<svg xmlns="http://www.w3.org/2000/svg" xmlns:xlink="http://www.w3.org/1999/xlink" width="748" height="729" viewBox="0 0 748 729">
    <defs>
        <path id="a" d="M0 0h996v729H0z"/>
        <path id="c" d="M.386.514h117.86V119.17H.386z"/>
        <path id="e" d="M0 .096h129.447v176.838H0z"/>
        <path id="g" d="M.198.71h17.107v20.087H.198z"/>
    </defs>
    <g fill="none" fill-rule="evenodd">
        <g transform="translate(108)">
            <mask id="b" fill="#fff">
                <use xlink:href="#a"/>
            </mask>
            <path fill="#1E91FD" d="M865.855 262.855c-39.54-22.937-72.64-55.822-95.068-95.608C715.192 68.634 591.305 0 447.385 0 251.512 0 92.725 127.12 92.725 283.928c0 4.813.15 9.596.447 14.35 4.244 68.219-18.8 134.746-62.564 187.304C11.096 509.017 0 535.922 0 564.532 0 655.367 111.815 729 249.747 729c47.176 0 91.294-8.616 128.927-23.587 56.8-22.599 119.457-25.487 177.691-6.87 37.09 11.855 77.647 18.388 120.142 18.388C852.959 716.93 996 604.329 996 465.43c0-83.107-51.211-156.789-130.145-202.576" mask="url(#b)"/>
        </g>
        <path fill="#1173D0" d="M188.399 543.22c-16.594.266-33.188.467-49.775.517-29.562.088-68.31-4.313-90.375 12.445-11.11 8.439-7.453 25.266 10.17 28.249 4.987.844 10.356.75 15.034 2.188 4.68 1.438 8.386 5.352 5.79 8.34-1.328 1.528-3.883 2.346-6.332 2.989-15.492 4.058-32.664 4.574-48.075 8.768-36.62 9.967-30.298 30 2.993 36.467 29.938 5.814 63.232 5.01 94.098 5.404 180.644 2.304 361.775 5.04 541.418-2.728 38.742-1.674 77.26-3.79 115.835-5.762 17.655-.902 39.75-3.253 39.82-8.522.049-3.669-11.606-6.405-23.093-7.837-20.118-2.508-46.383-4.69-42.581-12.895 1.387-2.993 7.936-5.74 17.031-7.141 7.026-1.084 15.107-1.371 22.724-2.023 7.617-.652 15.425-1.851 18.627-3.984 8.624-5.75-13.093-9.172-28.381-9.696-18.31-.629-33.238-4.67-26.926-10.765 4.397-4.247 18.707-7.119 23.059-11.37 1.75-1.71 1.747-3.549.585-5.301-11.622-17.505-72.334-16.004-94.96-17.315-41.857-2.424-83.903-2.886-125.893-3.103-95.251-.493-190.506.33-285.737 1.606-28.341.38-56.7 1.018-85.056 1.47"/>
        <path fill="#F8F8F8" d="M291 182l9.538 4.495 23.349 57.778L357 258.192 355.302 270l-42.454-9.7-19.527-34.16z"/>
        <path fill="#B5D6CA" d="M349.928 252.12L349 331.2l8.552 101.8h11.626l13.912-93.92L399 245z"/>
        <path fill="#1A3151" d="M370 438.5l-12 6.5-6-6.5 6-6.5h12z"/>
        <path fill="#B5D6CA" d="M429.778 252.12l.222 45.75L422.365 433h-11.32l-18.936-89.671L382 245z"/>
        <path fill="#1A3151" d="M410 438.5l12 6.5 6-6.5-6-6.5h-12z"/>
        <path fill="#B5D6CA" d="M441.03 279.606c.245 7.267.088 16.987-2.969 17.35-.572.068-1.124-.185-1.628-.43-5.316-2.585-9.105-6.24-14.346-8.736-5.492-2.616-11.734-3.986-17.834-4.932-9.1-1.455-18.347-2.328-27.504-2.41-7.87-.07-16.054 3.524-23.495 5.5-2.864.76-5.193 2.85-7.573 4.487-3.513 2.42-5.054 3.378-4.575-1.566.782-8.066 1.594-16.132 2.586-24.175 1.978-16.045 4.67-32.052 9.225-47.584 1.74-5.934 3.747-11.784 5.755-17.634l7.331-21.366c3.038-8.852 8.163-15.088 17.14-18.184 7.756-2.677 17.391-3.408 24.936.337 8.386 4.164 12.376 18.35 16.45 25.931 3.57 6.643 8.071 24.762 9.407 31.924 1.61 8.62 3.095 17.199 4.265 25.755 1.295 9.478 2.209 18.927 2.474 28.32.028 1.04.238 3.943.355 7.413"/>
        <path fill="#FFF" d="M399.6 161.515l-15.49.147s-16.62 58.135-17.231 68.153c-.6 9.836-4.801 49.719-4.801 49.719s17.155.405 36.919 2.815c19.322 4.138 20.946 1.69 20.946 1.69s-10.428-41.917-10.774-53.96c-.354-12.32-1.93-53.003-1.93-53.003l-7.639-15.561z"/>
        <path fill="#B5D6CA" d="M397.356 162.465h-7.626c-1.78 0-2.79 2.04-1.71 3.458l3.131 4.105-8.33 76.896 10.251 10.085 7.05-11.976-1.923-75.005 1.24-4.88a2.152 2.152 0 0 0-2.083-2.683"/>
        <path fill="#E5B8AA" d="M390.206 161.817c.182.158.392.283.634.362.482.158 1.004.1 1.507.042l6.147-.728c-.676-6.28 2.992-7.701 6.566-11.74 3.623-4.094 2.508-9.615 2.304-14.625-.059-1.396-.126-2.833-.715-4.1-1.035-2.221-3.444-3.448-5.783-4.175-5.967-1.857-12.793-1.4-18.048 1.986-1.398.901-2.704 2.033-3.462 3.516-1.167 2.284-.871 5.01-.545 7.557.5 3.912 1.658 7.756 3.868 11.053 2.06 3.073 5.987 4.544 6.438 8.232.117.953.405 2.025 1.09 2.62"/>
        <path fill="#1A3151" d="M378.984 135.363c.347 1.579 1.083 3.175.7 4.745-2.504-.851-4.141-3.415-5.028-6.021-.402-1.181-.695-2.432-.593-3.682.101-1.25.644-2.505 1.63-3.212 1.375-.986 3.843-.598 4.237 1.188.397 1.8-1.471 4.608-.946 6.982"/>
        <path fill="#1A3151" d="M365.687 121.502c.059-1.891.78-3.58 2.468-4.722 1.455-.984 3.133-1.8 4.017-3.364.686-1.214.787-2.716 1.467-3.933 1.232-2.205 3.904-2.855 6.23-3.601 5.816-1.87 8.947-4.028 15.108-1.635 4.38 1.702 10.04 1.93 14.105 4.411 1.698 1.038 3.142 2.702 4.327 4.558 4.108 6.426 5.093 15.462 2.419 22.165-.6 1.5-1.36 2.88-2.173 4.2-1.627 2.642-3.369 5.892-6.248 7.185-.18-1.244-1.108-1.93-1.397-3.154-.208-.88-.138-1.804-.093-2.71.177-3.523 1.257-9.096-2.26-10.844-4.446-2.21-12.788-.217-17.07 1.655-3.79 1.655-10.186 3.808-14.226 2.035-3.75-1.646-6.8-8.207-6.674-12.246"/>
        <path fill="#3ABABA" d="M484.836 11.091L425.5 33.151l15.891 13.675c-14.934 17.898-33.602 40.365-34.066 41.392-.773 1.718-19.205-29.323-19.205-29.323l-38.823 50.655L332.046 90.2l-30.96 40.865 30.034-24.27 19.004 21.023L385.3 85.705l19.072 32.113 52.708-57.493 17.08 14.697 10.676-63.93z"/>
        <path fill="#3F7D71" d="M404.324 117.913l53.803-56.793-3.573-3.576zM350.1 127.589l37.41-38.283-2.522-4.207zM331.185 106.554l-29.844 24.4 31.934-21.775z"/>
        <path fill="#B5D6CA" d="M379.524 162.085l-44.976 13.883 9.668-44.173-13.871-5.048-21.438 55.53 13.03 16.828 45.397-5.889zM404.568 159.459l48.732-3.416-12.398-52.96 11.993-8.61 26.796 60.717-8.006 19.724-46.981 11.225z"/>
        <path fill="#E5B8AA" d="M334.614 128.3l-2.588-13.41 8-9.15 4.19 3.812-1.928 9.484 2.076 2.295-2.26 9.695s-7.516-2.909-7.49-2.726M450.076 96.495l.983-13.992-11.309-8.762-4.74 6.206 5.106 9.127-1.824 4.746 5.013 7.535z"/>
        <path fill="#AA7159" d="M534.6 436.091l.038-.054-.043-.012-2.084-27.34-13.51 2.902 6.698 23.807-3.448 7.241s-1.316 3.632-.086 3.258c1.231-.375 6.563-1.864 6.98-2.26.354-.336 4.046-5.547 5.17-7.137l.285-.405zM474.38 416l2.127 18.613-3.534 4.913.37 3.238 9.47-3.134 4.263-2.127.276-26.266z"/>
        <path fill="#1A3151" d="M490.411 276.532l6.65 52.633 4.119 19.63 18.023 72.53 16.42-3.374-7.605-79.35 3.718-50.468 1.464-13.26 4.04-15.99z"/>
        <path fill="#1A3151" d="M456.897 279.266l2.656 53.58 13.499 89.455 16.172-1.851.504-52.936 8.758-98.973-18.494-7.721-14.797-4.045zM476.507 434.613l-12.498 12.499.96 4.808 10.107-1.156 13.225-9.712.023-6.972-1.352-1.075s-12.243 7.55-13.098 7.238c-.855-.311 2.633-5.63 2.633-5.63M525.683 435.518l-6.34 6.8-3.836 3.051 1.566 5.234 5.613.98 14.786-8.993-1.357-6.439-1.393-1.483s-5.79 4.777-11.23 7.548c-1.539.783 2.19-6.698 2.19-6.698"/>
        <path fill="#C5CACE" d="M476.671 171.335l-11.77 6.109-24.007 42.355 7.324 13.033 10.58-7.33 15.87-21.179z"/>
        <path fill="#C5CACE" d="M473.447 173.625s5.698-6.77 27.265-6.77c21.566 0 37.673 68.36 36.859 80.629-.813 12.269 2.205 39.92 2.205 39.92l-50.459-12.667s-28.475.054-35.393 6.823c-6.918 6.769 13.464-48.308 13.871-61 .407-12.691-1.265-40.59 5.652-46.935"/>
        <path fill="#B5D6CA" d="M496.7 168.397l1.977.088-6.39 54.47-11.108-23.111L479.145 175l2.034-3.665z"/>
        <path fill="#AA7159" d="M467.913 146.56c-1.33-16.512 19.952-19.409 29.434-8.333 6.185 7.225 4.471 20.858-3.116 27.025.105.345.21.664.323.924.578 1.342.99 2.733 1.374 4.157.144.53-8.044 2.38-8.959 2.583-.32.07-.685.134-.95-.044-.512-.342-.627-1.957-.802-2.509l-.62-1.953c-5.165-.22-9.785-3.475-12.504-7.657-2.731-4.202-3.78-9.231-4.18-14.193"/>
        <path fill="#0D1929" d="M474.606 128.189c1.466.588 2.493 1.852 3.388 3.106.535.748 1.058 1.537 1.238 2.43.718 3.567-2.585 4.808-4.624 6.95-2.515 2.642-4.13 6.187-4.656 9.688-.825 5.48 2.806 10.484 5.97 14.749 1.116 1.503 2.977 3.649 2.332 5.707-.655 2.09-3.8 3.186-5.716 3.095-1.751-.082-3.51-.883-5.207-.456-1.797.451-3.738 2.177-5.188.98-.403-.333-.651-.847-1.096-1.12-1.502-.919-3.127 1.637-4.838 1.273-1.053-.223-1.58-1.449-1.732-2.535-.15-1.087-.123-2.267-.742-3.17-.53-.775-1.433-1.177-2.145-1.782-1.409-1.196-2.016-3.29-1.467-5.058 1.019-3.289 5.206-4.58 6.436-7.79.64-1.674.349-3.557.081-5.341-.268-1.785-.487-3.694.27-5.314.936-2.001 3.23-2.733 4.037-4.974.475-1.317.533-2.786 1.167-4.03.837-1.638 3.027-3.573 4.41-4.826 2.193-1.989 5.309-2.696 8.082-1.582"/>
        <path fill="#0D1929" d="M496.58 145.862c2.15 4.686 2.033 10.82 6.023 14.028 4.026 3.238 9.827 1.603 14.585-.216.784-.3 10.796-3.82 10.955-3.955 5.123-4.34-.351-7.322-.943-10.943-.852-5.207 7.286-4.392 5.488-8.936-1.023.25-2.009-.704-2.327-1.732-.319-1.03-.196-2.136-.315-3.207-.29-2.63-2.17-5.026-4.625-5.89-4.898-1.727-10.62 2.381-15.233-.044-2.858-1.504-4.102-4.955-6.304-7.355-4.257-4.64-10.728-3.171-16.268-3.686-5.847-.543-10.907-.03-15.95 3.254-6.25 4.072-8.264 13.132-2.844 18.46 6.954 6.833 19.974.29 26.144 7.618.663.787 1.183 1.666 1.613 2.604"/>
        <path fill="#C5CACE" d="M440.894 219.72l12.189-10.098 23.54-5.468 3.362 9.255-31.946 19.351z"/>
        <path fill="#000" d="M507.316 198.033H485.298a4.493 4.493 0 0 0-4.49 4.443l-.002.053.003.054v89.586l-3.976.617 1.037 1.428a5.762 5.762 0 0 0 4.661 2.376h19.784c-.966 0-1.87-.254-2.656-.695a5.39 5.39 0 0 0 2.31.523 5.419 5.419 0 0 0 3.806-1.557c1.442-1.413 1.541-2.993 1.541-4.887l.096-87.445a4.494 4.494 0 0 1 4.491-4.496h-4.587z"/>
        <path fill="#D9CEC3" d="M517.815 214.902l-6.283-16.344h-.003a4.491 4.491 0 0 0-4.249-3.049 4.492 4.492 0 0 0-4.409 3.645l-.43.03v16.935l.997-1.324 1.099 1.463h.21l1.1-1.463 1.1 1.463h.21l1.1-1.463 1.1 1.463h.21l1.1-1.463 1.099 1.463h.211l1.1-1.463 1.1 1.463h.21l1.1-1.463 1.099 1.463h.21l1.02-1.356z"/>
        <path fill="#F0EDEA" d="M502.693 195.51H480.674a4.492 4.492 0 0 0-4.489 4.441l-.003.054.003.054v92.278h17.355a5.423 5.423 0 0 0 3.806 1.557 5.423 5.423 0 0 0 3.805-1.557c1.442-1.413 1.542-2.994 1.542-4.887l.095-87.445a4.494 4.494 0 0 1 4.492-4.496h-4.587z"/>
        <path fill="#D9CEC3" d="M492.25 288.62c0-.51.075-1.002.206-1.47h-.207l-20.04 3.112 1.038 1.428a5.758 5.758 0 0 0 4.66 2.376h19.785a5.444 5.444 0 0 1-5.443-5.447"/>
        <path fill="#000" d="M484.441 200.955h4.756v-.826h-4.756zM490.395 200.955h4.755v-.826h-4.755zM496.347 200.955h3.25v-.826h-3.25zM486.819 202.486h3.25v-.827h-3.25zM490.69 202.466h3.25v-.826h-3.25zM494.524 202.466h1.908v-.826h-1.908zM496.925 202.466h1.908v-.826h-1.908zM478.123 213.64h11.074v-.517h-11.074zM478.123 209.532h11.074v-.517h-11.074zM478.123 210.139h2.098v-.31h-2.098zM496.715 209.532h4.104v-.517h-4.104zM478.161 215.988h11.074v-.517h-11.074zM478.162 216.595h2.098v-.31h-2.098zM496.754 215.988h4.104v-.517h-4.104zM478.123 219.398h11.074v-.518h-11.074zM478.123 220.005h2.098v-.31h-2.098zM496.715 219.398h4.104v-.518h-4.104zM496.715 213.64h4.104v-.517h-4.104zM478.123 227.126h11.074v-.517h-11.074zM478.123 223.019h11.074v-.517h-11.074zM478.123 223.625h2.098v-.31h-2.098zM496.715 223.019h4.104v-.517h-4.104zM478.161 229.474h11.074v-.516h-11.074zM478.162 230.081h2.098v-.31h-2.098zM496.754 229.474h4.104v-.516h-4.104zM478.123 232.884h11.074v-.517h-11.074zM478.123 233.492h2.098v-.31h-2.098zM496.715 232.884h4.104v-.517h-4.104zM496.715 227.126h4.104v-.517h-4.104zM478.123 240.612h11.074v-.516h-11.074zM478.123 236.505h11.074v-.517h-11.074zM478.123 237.113h2.098v-.31h-2.098zM496.715 236.505h4.104v-.517h-4.104zM478.161 242.96h11.074v-.516h-11.074zM478.162 243.568h2.098v-.31h-2.098zM496.754 242.96h4.104v-.516h-4.104zM478.123 246.371h11.074v-.516h-11.074zM478.123 246.978h2.098v-.31h-2.098zM496.715 246.371h4.104v-.516h-4.104zM496.715 240.612h4.104v-.516h-4.104zM478.123 254.099h11.074v-.517h-11.074zM478.123 249.992h11.074v-.517h-11.074zM478.123 250.6h2.098v-.31h-2.098zM496.715 249.992h4.104v-.517h-4.104zM478.161 256.447h11.074v-.516h-11.074zM478.162 257.055h2.098v-.31h-2.098zM496.754 256.447h4.104v-.516h-4.104zM478.123 259.858h11.074v-.517h-11.074zM478.123 260.465h2.098v-.31h-2.098zM496.715 259.858h4.104v-.517h-4.104zM496.715 254.099h4.104v-.517h-4.104zM478.123 267.24h11.074v-.517h-11.074zM478.123 263.133h11.074v-.517h-11.074zM478.123 263.74h2.098v-.31h-2.098zM496.715 263.133h4.104v-.517h-4.104zM478.161 269.588h11.074v-.516h-11.074zM478.162 270.196h2.098v-.31h-2.098zM496.754 269.588h4.104v-.516h-4.104zM478.123 272.998h11.074v-.517h-11.074zM478.123 273.606h2.098v-.31h-2.098zM496.715 272.998h4.104v-.517h-4.104zM496.715 267.24h4.104v-.517h-4.104zM478.123 276.231h11.074v-.516h-11.074zM478.161 278.58h11.074v-.517h-11.074zM478.162 279.187h2.098v-.31h-2.098zM496.754 278.58h4.104v-.517h-4.104zM478.123 281.99h11.074v-.517h-11.074zM478.123 282.596h2.098v-.31h-2.098zM496.715 281.99h4.104v-.517h-4.104zM496.715 276.231h4.104v-.516h-4.104z"/>
        <path fill="#FFF" d="M581.707 184.802l-19.15 29.42-12.466 23.83 4.56 9.236 16.584-4.642z"/>
        <path fill="#1A3151" d="M604.653 288.701v14.897l-19.847 64.556 4.962 67.038-12.405 2.483-19.847-81.936.76-24.106 9.164-49.166z"/>
        <path fill="#0D1929" d="M578.992 436.402l-9.47 10.03 2.736 5.084 19.538-9.386-3.598-7.43zM609.019 440.982l-11.672 7.344 1.38 5.607 21.26-4.203-1.63-8.095z"/>
        <path fill="#FFF" d="M581.643 184.727l29.526-11.723s10.494 26.086 22.424 67.871c11.929 41.787-5.54 94.978-5.54 94.978s-67.643-16.09-81.151-18.743l16.943-76.381 17.798-56.002z"/>
        <path fill="#1A3151" d="M588.909 306.34L608.85 442.9h9.065l5.725-74.488 12.405-74.487z"/>
        <path fill="#E5B8AA" d="M580.666 143.73c8.039.593 15.557-6.015 23.469-4.375 5.145 1.067 9.207 5.634 10.776 10.78.733 2.4.992 5.015.276 7.4-.465 1.548-1.322 2.944-2.331 4.184-1.351 1.657-3 3.035-4.832 4.093a31.651 31.651 0 0 0 3.441 4.57l-11.123 4.262-2.458-6.396a16.968 16.968 0 0 1-3.315-.503c-6.582-1.71-12.04-7.48-13.508-14.283-.688-3.186-.556-6.483-.395-9.731"/>
        <path fill="#1A3151" d="M582.695 146.158l24.86-2.956 4.823 19.004 7.02-5.575-3.617-31.096-35.081-.757-15.192 8.918.644 8.938 13.583 9.151z"/>
        <path fill="#3ABABA" d="M592.344 177.587l29.527-11.723s10.494 26.086 22.423 67.872c11.929 41.786-5.54 94.976-5.54 94.976s-60.508-29.922-74.016-32.575l9.808-62.548 17.798-56.002z"/>
        <path fill="#FFF" d="M644.74 234.628c-11.929-41.786-22.26-67.915-22.26-67.915l-29.69 11.766-.047.151c.654 1.708 1.337 3.405 1.93 5.136a118.762 118.762 0 0 1 5.128 21.007c1.867 12.555 2.063 25.464 1.662 38.135-.385 12.157-1.637 24.29-3.796 36.261-2.852 15.826-7.401 31.246-13.264 46.172a78944.14 78944.14 0 0 1 59.784 12.188s12.482-61.114.552-102.901"/>
        <path fill="#B5D6CA" d="M578.427 241.393c-1.336 5.627-2.766 11.966-1.625 17.437 0 0 3.683 7.702 4 7.386.013-.246 4.199-3.705 5.37-6.284 1.999-4.397 2.428-9.888 2.47-14.849.148-17.605-.893-35.353 2.074-52.708 3.462-1.053 6.43-3.601 4.301-7.218-6.737 2.556-7.45 17.732-8.92 23.93l-7.67 32.306"/>
        <g transform="translate(549.418 1)">
            <mask id="d" fill="#fff">
                <use xlink:href="#c"/>
            </mask>
            <path fill="#C5CACE" d="M117.205 73.068l-46.764 45.15c-1.422 1.373-3.771 1.247-5.244-.282L1.519 51.872C.045 50.343.004 47.99 1.427 46.616L48.19 1.466C49.613.094 51.961.22 53.435 1.75l63.678 66.064c1.473 1.53 1.515 3.882.092 5.255" mask="url(#d)"/>
        </g>
        <path fill="#94989B" d="M666.53 68.813l-52.164-54.12 2.868 105.47c.957.057 1.908-.254 2.625-.945l46.764-45.15c1.423-1.373 1.381-3.726-.092-5.255"/>
        <path fill="#145566" d="M608.83 70.401l-12.246 11.823c-.762.736-2.02.668-2.81-.151l-12.34-12.804c-.79-.819-.812-2.08-.05-2.815L593.63 54.63c.762-.735 2.02-.668 2.81.151l12.34 12.804c.79.819.812 2.08.05 2.815M631.408 48.603l-12.245 11.823c-.763.736-2.02.669-2.811-.151l-12.34-12.804c-.79-.819-.813-2.079-.05-2.815l12.246-11.823c.761-.735 2.02-.668 2.809.151l12.341 12.804c.79.819.811 2.08.05 2.815M629.006 91.333l-12.246 11.822c-.763.736-2.02.669-2.81-.15L601.61 90.2c-.791-.82-.813-2.08-.05-2.816l12.245-11.822c.762-.736 2.02-.668 2.81.15l12.34 12.804c.79.819.812 2.08.05 2.816"/>
        <path fill="#EBB044" d="M651.583 69.534l-12.246 11.823c-.762.736-2.02.669-2.81-.15l-12.34-12.804c-.79-.82-.812-2.08-.05-2.816l12.246-11.822c.761-.736 2.02-.668 2.809.15l12.341 12.804c.79.82.812 2.08.05 2.815"/>
        <path fill="#F2F2F2" d="M595.257 67.133l3.477-3.358a.996.996 0 0 1 .76-.296c.29.013.54.128.752.348.211.22.313.466.305.74-.007.272-.124.517-.347.732l-3.478 3.357 3.722 3.862c.238.247.366.508.384.783.017.274-.082.516-.3.726-.19.184-.438.264-.74.238a1.177 1.177 0 0 1-.771-.369l-3.722-3.861-3.458 3.34c-.224.215-.474.323-.75.325-.277.001-.52-.108-.732-.327a1.058 1.058 0 0 1-.295-.769c0-.305.102-.557.307-.754l3.459-3.339-3.712-3.85c-.239-.248-.363-.512-.375-.793a.923.923 0 0 1 .299-.726c.218-.209.463-.3.736-.273.273.028.53.166.768.413l3.712 3.85zM614.91 51.568a.52.52 0 0 1-.426.162c-.156-.014-.306-.097-.453-.248l-1.051-1.092a.593.593 0 0 1-.189-.415c.001-.146.066-.282.194-.404l7.941-7.668c.147-.142.3-.215.454-.22a.549.549 0 0 1 .423.189l1.052 1.091c.119.124.179.282.179.474 0 .191-.06.346-.183.463l-7.941 7.668zM632.134 69.686a.521.521 0 0 1-.426.163c-.156-.015-.307-.098-.453-.249l-1.052-1.092a.596.596 0 0 1-.187-.415c0-.146.064-.281.193-.404l7.942-7.668c.146-.142.298-.215.454-.22a.55.55 0 0 1 .422.189l1.052 1.09c.12.125.179.283.179.475s-.06.346-.182.463l-7.942 7.668zM635.99 73.686a.521.521 0 0 1-.427.162c-.156-.015-.306-.098-.452-.248l-1.052-1.092a.592.592 0 0 1-.188-.416c0-.146.064-.28.193-.403l7.942-7.668c.146-.142.298-.215.454-.22a.554.554 0 0 1 .422.189l1.052 1.09c.12.125.179.282.179.474a.61.61 0 0 1-.182.464l-7.942 7.668zM611.89 93.82a.519.519 0 0 1-.425.163c-.156-.014-.307-.098-.453-.248l-1.051-1.092a.593.593 0 0 1-.189-.415c0-.147.065-.282.193-.404l7.942-7.668c.147-.142.299-.215.454-.22a.551.551 0 0 1 .423.189l1.051 1.091c.12.124.18.281.18.473 0 .192-.061.347-.183.464l-7.942 7.668zM613.485 85.399c.59.612.607 1.553.038 2.103-.57.55-1.51.5-2.1-.112-.59-.612-.606-1.555-.037-2.104.57-.55 1.509-.5 2.1.113M618.432 90.531c.591.612.607 1.554.038 2.104-.57.55-1.51.5-2.1-.113-.59-.612-.606-1.553-.037-2.103.57-.55 1.51-.5 2.1.112"/>
        <path fill="#1A3151" d="M614.522 14.855l-51.6 50.45-11.71-12.147a3.846 3.846 0 0 1 .099-5.433L597.7 2.937a3.837 3.837 0 0 1 5.429.098l11.393 11.82z"/>
        <path fill="#F2F2F2" d="M612.723 21.94l-42.14 40.684-9.541-9.898 42.14-40.686z"/>
        <path fill="#FFF" d="M619.988 167.7l29.394-18.236-5.465-50.061 13.03-5.048 21.438 57.213-4.204 9.255-40.29 38.913z"/>
        <path fill="#E5B8AA" d="M655.083 95.077l1.713-14.572-15.821-6.764-2.943 6.731 7.451 10.958 1.804 6.667z"/>
        <path fill="#FFF" d="M565.734 223.084l2.943-34.916h-14.292l-10.929 47.958 7.566 14.724 12.168-5.951z"/>
        <path fill="#E5B8AA" d="M556.067 188.168v-11.78l8.826-3.366 7.987 6.311v5.468l-5.885 3.367z"/>
        <path fill="#EBB044" d="M263.795 33.038c-21-7.517-44.111 3.426-51.622 24.442-7.512 21.017 3.422 44.148 24.422 51.665 20.998 7.518 44.11-3.425 51.622-24.442 7.511-21.016-3.423-44.147-24.422-51.665"/>
        <path fill="#CC9737" d="M237.86 105.605c-19.045-6.818-28.963-27.797-22.15-46.858 6.812-19.061 27.774-28.987 46.82-22.169 19.045 6.819 28.962 27.798 22.15 46.86-6.813 19.06-27.775 28.985-46.82 22.167m27.16-75.994c-22.89-8.194-48.084 3.734-56.272 26.644-8.188 22.909 3.731 48.123 26.622 56.317 22.89 8.196 48.084-3.733 56.271-26.643 8.188-22.909-3.73-48.123-26.621-56.318"/>
        <path fill="#F2D042" d="M236.595 109.145c-21-7.517-31.934-30.648-24.422-51.664 7.51-21.017 30.622-31.96 51.622-24.442 21 7.517 31.933 30.648 24.422 51.664-7.511 21.016-30.624 31.96-51.622 24.442m29.945-83.789c-25.238-9.035-53.016 4.118-62.043 29.377-9.027 25.26 4.114 53.06 29.352 62.095 25.239 9.035 53.016-4.118 62.044-29.377 9.027-25.259-4.114-53.06-29.353-62.095"/>
        <path fill="#F2D042" d="M233.691 78.066c-.347-.493-.184-1.201-.07-1.856.292-1.663 1.692-2.496 3.305-2.117 2.42.568 4.153 3.196 5.892 4.965 1.43 1.455 3.188 2.563 5.276 3.324 2.235.816 4.226.925 5.973.329 1.746-.597 2.942-1.782 3.588-3.555.655-1.799.577-3.276-.232-4.432-.81-1.156-2.531-2.215-5.167-3.177l-1.74-.635c-4.302-1.57-7.254-3.664-8.854-6.286-1.602-2.622-1.78-5.642-.534-9.062 1.217-3.343 3.265-5.537 6.142-6.583 2.877-1.044 6.309-.84 10.294.614 1.624.592 3.18 1.469 4.67 2.63 3.095 2.412 7.868 7.37 5.366 10.413-2.853 3.468-6.889-4.536-8.711-6.254-1.067-1.006-2.454-1.82-4.162-2.443-1.982-.724-3.771-.781-5.366-.172-1.596.608-2.689 1.724-3.28 3.344-.58 1.596-.374 2.963.622 4.1.995 1.138 3.53 2.508 7.605 4.11 4.34 1.727 7.211 3.815 8.613 6.263 1.401 2.448 1.451 5.458.15 9.03-1.245 3.42-3.36 5.747-6.342 6.983-2.982 1.236-6.371 1.162-10.167-.223-1.202-.44-2.492-1.06-3.87-1.865-2.568-1.497-6.606-4.048-9-7.445"/>
        <path fill="#F2D042" d="M242.036 95.931l-.048-.018c-1.31-.478-1.924-2.094-1.372-3.61l17.052-46.814c.552-1.515 2.062-2.357 3.372-1.88l.048.017c1.31.479 1.924 2.096 1.372 3.612L245.41 94.05c-.553 1.517-2.064 2.359-3.373 1.881"/>
        <path fill="#0D1929" d="M302.069 451.585l-9.964-9.21c-2.891-1.465-5.949-2.487-8.427-2.456-1.8.023-3.293.6-4.194 1.967-.865 1.313-1.04 3.041-.451 4.442.215.512.521.97.865 1.403a45.232 45.232 0 0 0 1.623 1.784c2.063 2.236 5.518 5.879 6.889 6.702 2.012 1.208 6.438 4.43 11.669.806l-.062-.052c1.902-1.288 2.462-3.406 2.052-5.386"/>
        <path fill="#E5B8AA" d="M294.247 371.368l-.804 11.559-3.948 56.274 3.948 6.546s.804 5.235-5.23 4.832c-1.796-.12-8.154-8.21-8.154-8.21l.918-3.708-4.474-42.254.04-12.272-2.14-13.627 19.844.86z"/>
        <path fill="#0D1929" d="M231.084 437.295c-1.855-.584-3.582-.494-4.967.605-1.33 1.056-2.092 2.77-1.96 4.407.091 1.116.563 2.149 1.028 3.157 2.406 5.22 9.155 17.02 16.898 14.859 3.253-.91 4.485-4.235 3.825-7.17-.996-4.426-8.621-13.905-14.824-15.858"/>
        <path fill="#E5B8AA" d="M270.112 364.618l-1.348 16.644-32.645 58.825s4.692 8.206 1.716 8.918c-2.976.712-11.703-1.773-11.722-11.037 3.432-11.22 16.923-49.32 16.923-49.32l6.318-9.83-.092-18.476 20.85 4.276z"/>
        <path fill="#B5D6CA" d="M233.229 308.904c-.258-4.907 1.31-17.709 2.922-22.296 5.872-16.726 7.004-24.97 7.004-38.584 0-13.614-6.035-56.78-6.035-56.78l20.967-12.596 25.135.706 13.957 4.606s2.954 54.31 3.794 71.813c.598 12.491 1.465 23.31 2.606 37.784 0 0 3.199 33.012-1.743 68.4 0 0-1.104 11.752-1.599 12.782-.065.349-.102.537-.102.537H244.043v-20.168a786.487 786.487 0 0 1-5.321-19.494c-2.153-8.285-5.015-17.605-5.493-26.71"/>
        <path fill="#F8F8F8" d="M245.051 182.452l-9.54 7.18s7.257 49.716 7.645 58.392c.387 8.676-10.784 43.344-10.784 43.344l46.27 6.04s6.807-37.024 8.765-55.417c1.959-18.392-26.037-63.23-26.037-63.23l-16.319 3.691z"/>
        <path fill="#F8F8F8" d="M291.439 181.58l9.444 4.484s-1.33 55.266 1.093 69.303c1.476 8.557 7.222 36.265 7.222 36.265l-14.943 5.118s-9.199-34.66-11.027-53.052c-1.828-18.393.164-64.132.164-64.132l8.047 2.013z"/>
        <path fill="#1A3151" d="M289.607 161.334c1.225 4.748-1.59 9.439-4.052 13.444-1.006 1.636-2.565 3.913-1.268 5.78 1.455 2.09 5.064 1.672 6.653.109 1.121-1.104 1.672-2.601 2.15-4.06 2.144-6.54 5.138-15.7 4.552-22.575-.47-5.512-7.223-15.302-14.181-11.799-1.263.636-2.073 1.83-2.765 3.004-.415.702-.814 1.437-.897 2.237-.328 3.192 2.748 4.013 4.768 5.729 2.492 2.115 4.257 5.098 5.04 8.13"/>
        <path fill="#E5B8AA" d="M277.997 178.391c4.646-.59 8.53-3.842 10.61-7.755 2.078-3.914 2.574-8.417 2.492-12.809-.27-14.614-19.632-15.425-27.16-4.924-6.56 9.154.546 27.206 14.058 25.488"/>
        <path fill="#1A3151" d="M264.779 159.802c-.16 1.77-1.06 3.646-1.308 5.465-.455 3.347.292 7.69-.931 10.747-3.395-.465-7.524-2.59-10.04-4.923-2.57-2.382-2.107-5.922-2.68-9.43-.532-3.246-1.21-6.506-1.024-9.79 1.015-17.972 18.935-27.8 34.723-19.693 5.973 3.067 8.585 10.863 4.192 15.985-4.726 5.509-14.328 3.12-19.987 7.208-1.255.907-2.221 2.536-2.945 4.431"/>
        <path fill="#E5B8AA" d="M278.386 176.884l-.707 3.263c-.109.499-.067 1.927-.497 2.269-.223.178-.556.152-.85.115-.839-.103-8.353-1.06-8.271-1.539.219-1.281.465-2.538.865-3.763.322-.99.446-2.85 1.042-3.601 1.277.873 2.596 1.414 4.1 1.84 1.45.412 2.909.8 4.372 1.162-.018.085-.037.169-.054.254"/>
        <path fill="#F8F8F8" d="M261.37 178.492l-40.772-7.994 13.03-52.164-13.03-3.366-24.8 51.745 2.101 18.93 44.977 15.986z"/>
        <path fill="#E5B8AA" d="M222.475 115.453l1.698-14.248 11.137-6.43 3.216 7.674-5.318 8.733v7.151z"/>
        <path fill="#C5CACE" d="M495.538 167.133l39.511-11.358-5.885-48.38 12.19-2.944 15.133 61.42-8.407 9.676-34.048 12.62-14.921-20.403z"/>
        <path fill="#AA7159" d="M540.072 104.772l1.696-10.753-10.521-5.076-8.799 11.018 7.897 7.215zM472.4 212.462c.019.105-2.924-2.84-2.924-2.84l-.84-6.73 10.824-3.997 1.785 5.258-8.846 8.31z"/>
        <path fill="#AA6755" d="M304.593 306.162l3.931-2.649 4.495 2.002 2.244 4.188-1.585 3.19-4.024 1.779 1.393.541-.391 1.143-6.24 2.054c-1.264-1.647-5.955-3.323-6.633-4.205l4.35-2.98 2.46-5.063z"/>
        <path fill="#1A3151" d="M221.523 459.925l-43.575-16.038 8.982 76.398-5.205 65.913-.139.438.104.012-.012.144 8.596.82.002-.008.32.035 19.193-58.724 10.16-62.553z"/>
        <path fill="#162A42" d="M189.827 590.616l-8.914-.226-2.277 7.528.225.068-.057.006 14.738 8.74 7.007.78.892-8.015-1.894-1.388z"/>
        <path fill="#1A3151" d="M251.205 461.237l-13.078 130.808-8.625.393-8.665-70.631-15.022-70.343z"/>
        <path fill="#162A42" d="M238.105 595.083l11.425 6.483-1.07 5.395-20.414-3.08 1.201-7.773z"/>
        <path fill="#F8F8F8" d="M232.01 353.147l24.406 13.28 14.712-5.042 37.642-41.418-10-9.047-39.95 31.255-31.447-13.731z"/>
        <g transform="translate(145 324.18)">
            <mask id="f" fill="#fff">
                <use xlink:href="#e"/>
            </mask>
            <path fill="#F8F8F8" d="M126.634 169.908c2.758-1.916 2.817-5.252 2.813-8.594-.01-6.274-1.138-12.688-2.574-18.786-2.737-11.439-5.84-25.216-7.203-40.038-3.526-38.309-15.613-64.017-15.613-64.017l-3.9-10.409a100.45 100.45 0 0 0-2.42-4.01C92.866 16.401 84.408 3.4 75.362 1.272c-.19-.045-.38-.088-.57-.13C65.28-.945 53.093.024 44.498 4.652c-1.631.879-3.082 2.048-4.522 3.21-4.203 3.394-7.631 5.231-9.443 10.401-1.572 4.49-1.939 9.389-2.806 14.041-1.762 9.453-2.814 19.018-4.22 28.525-2.64 17.829-4.88 35.715-7.703 53.516-1.452 9.162-2.916 18.34-3.602 27.597-.607 8.185-7.985 16.496-12.131 23.832-1.443 2.552 19.277 9.166 21.134 9.6 8.595 2.002 17.738 1.49 26.599 1.53a823.002 823.002 0 0 0 58.211-1.796c6.438-.427 14.372-1.657 20.085-4.865.189-.106.366-.217.533-.334" mask="url(#f)"/>
        </g>
        <path fill="#3ABABA" d="M209.126 324.276s-10.937-2.955-12.448 21.744c-1.51 24.7-4.03 87.203-7.555 104.34-3.525 17.138-8.814 50.754-8.814 50.754l33.493 1.165 38.277-3.024s-13.095-24.195-15.11-41.333c-2.014-17.139 1.511-81.658-7.05-105.853-8.562-24.195-10.36-27.358-20.793-27.793"/>
        <path fill="#1A3151" d="M224.381 304.708c1.655 4.973-.74 10.276-2.842 14.808-1.864 4.019-2.513 6.664 2.22 7.749 2.667.61 7.399 1.75 9.738-.293 1.77-1.548.776-6.33-.085-8.229-.658-1.45-2.4-2.187-3.02-3.654-.255-.605-.292-1.277-.3-1.933a26.724 26.724 0 0 1 1.094-7.94c.518-1.745 1.218-3.46 1.374-5.273.227-2.63-1.631-5.696-2.609-8.114-1.817-4.497-8.142-10.528-13.437-6.998-1.206.804-1.908 2.162-2.496 3.488-.35.792-.683 1.618-.693 2.484-.041 3.451 3.109 4.035 5.284 5.678 2.683 2.026 4.716 5.053 5.772 8.227"/>
        <path fill="#AA6755" d="M214.309 324.114c4.593-1.083 8.185-4.944 9.91-9.34 1.727-4.396 1.816-9.27 1.34-13.969-1.589-15.636-21.024-14.632-27.605-2.648-5.736 10.444 2.998 29.105 16.355 25.957"/>
        <path fill="#AA6755" d="M214.304 322.428l-.232 5.344c-.01.26-.032.547-.215.734-.207.213-.541.216-.838.206l-4.352-.15c-.718-.025-1.466-.058-2.1-.398-1.387-.745-1.674-2.627-1.452-4.187.22-1.56.78-3.133.45-4.673 2.995 1.476 5.84-1.861 8.834-.384l-.095 3.508z"/>
        <path fill="#1A3151" d="M208.036 273.696c-5.103 1.736-8.375 6.901-13.356 8.965-2.855 1.183-6.235 1.333-8.565 3.366-5.223 4.555-1.026 14.113-5.315 19.555-.892 1.132-2.095 1.988-2.99 3.117-1.933 2.434-2.185 5.758-2.358 8.862-.039.699-.046 1.46.075 2.162.671 7.17 11.07 6.713 15.2 6.254 4.533-.504 3.023-3.024 3.023-3.024l-.165-.202c-.435-2.91.76-6.015 3.046-7.869.848-.688 1.85-1.236 2.448-2.15 1.342-2.052.062-4.77.259-7.214.794-9.844 17.301-7.735 21.96-14.743 5.713-8.594-3.624-20.355-13.262-17.079"/>
        <path fill="#EAC1A4" d="M597.576 328.742l-5.74-3.214-1.49-5.61-1.349-.288-.421 1.647-2.567-4.303-3.832-1.359-4.433 3.1-1.647 5.343 3.542 4.08 6.073 2.093 7.667 4.739z"/>
        <path fill="#F8F8F8" d="M598.118 325.09l-8.605 10.2 31.865 30.94 8.59 2.774 36.594-29.205-9.787-19.998-27.292 23.214z"/>
        <g transform="translate(706.994 589.872)">
            <mask id="h" fill="#fff">
                <use xlink:href="#g"/>
            </mask>
            <path fill="#1A3151" d="M16.027 6.577l1.278 5.867-10.126 8.353-6.98-4.623 4.424-7.11L14.75.71z" mask="url(#h)"/>
        </g>
        <path fill="#145566" d="M687.607 416.06l11.3 26.078 1.065 73.37 23.234 78.92-10.804 4.794-47.41-91.636-5.397-29.024-2.145-61.129z"/>
        <path fill="#145566" d="M632.9 421.905l-.89 76.892 14.48 99.14h11.132l7.03-91.478 15.234-91.479z"/>
        <path fill="#1A3151" d="M657.557 596.61v6.025l-12.038 6.024-6.02-6.024 6.02-6.024z"/>
        <path fill="#FFF" d="M654.822 317.787l29.572-1.096s17.69 15.534 26.832 55.902c9.31 41.104-1.72 100.278-1.72 100.278s-79.335-10.582-92.343-12.217l19.846-81.158 17.813-61.71z"/>
        <path fill="#EAC1A4" d="M665.42 320.81l10.36-1.013a52.128 52.128 0 0 0-.551-8.281c2.879-1.01 6.207-2.523 6.712-5.535.16-.948-.003-1.917-.166-2.865l-2.012-11.755c-.232-1.355-.48-2.75-1.214-3.912-1.29-2.038-3.796-2.933-6.17-3.35-6.06-1.06-12.667.245-17.371 4.212-1.252 1.055-2.385 2.325-2.939 3.867-.853 2.378-.22 5.002.417 7.447.59 2.256 1.177 4.513 1.766 6.769.677 2.595 1.656 5.546 4.152 6.522 1.326.518 2.891.37 4.09 1.136 2.117 1.35 1.827 4.5 2.926 6.758"/>
        <path fill="#1A3151" d="M631.682 281.65c-.067-2.687.31-5.405.846-7.854.92-4.21 5.883-6.101 10.178-6.4 9.276-.643 18.229-4.853 27.287-1.604 5.178 1.857 12.132 2.303 16.818 4.921 1.957 1.093 3.518 2.8 4.733 4.684 4.21 6.528 4.223 15.523.027 22.062-.94 1.466-2.066 2.806-3.249 4.087-2.448 2.65-5.376 5.922-8.738 6.9-.077-3.01 2.675-12.498.37-14.968-3.66-3.92-11.951-2.565-16.5-1.608-4.961 1.045-9.388 4.554-14.307 5.3-3.54.535-8.052-1.209-11.06-3.043-4.71-2.875-6.284-7.625-6.405-12.478"/>
        <path fill="#C8D6A1" d="M662.979 321.446L631.89 445.897l-2.548 16.322 38.732 5.1s-1.529-59.595-1.02-67.54c.51-7.946 6.255-25.133 7.135-43.65.51-10.711 3.909-29.95 1.529-36.213l-12.74 1.53z"/>
        <path fill="#D9A3A3" d="M408.613 459.426l-.004 33.699c.157-.676.26-1.378.26-2.12v-53.383h-.254l-.002 21.804zM408.628 414.111l-.003-33.013a9.348 9.348 0 0 0-.264 2.148v52.836h.253v-21.97h.014zM398.716 533.494a9.195 9.195 0 0 0-3.619 1.172c-3.61 2.063-7.198 4.016-10.851 5.261 3.598-1.197 7.162-3.134 10.9-5.165 1.197-.65 2.4-1.062 3.57-1.268M432.983 380.508c-3.652-1.245-7.24-3.199-10.85-5.26a9.176 9.176 0 0 0-3.618-1.173c1.17.207 2.372.619 3.569 1.269 3.737 2.03 7.3 3.966 10.9 5.164M408.605 540.516l-.006 69.735.27-.001v-67.585a9.35 9.35 0 0 0-.264-2.15M310.746 423.528a9.079 9.079 0 0 1 1.389 5.027c.196-1.913-.206-3.927-1.358-5.778-3.716-5.966-6.09-12.59-6.062-18.84-.234 6.468 2.168 13.385 6.03 19.59M353.185 405.615c-.295 6.002-3.307 11.708-6.593 17.471a9.133 9.133 0 0 0-1.217 4.615 9.165 9.165 0 0 1 1.185-3.847c3.43-6.008 6.56-11.954 6.625-18.239M408.62 333.706l-.004-33.698-.002-38.05c-.084.005-.17.004-.253.008v69.62c0 .742.102 1.444.259 2.12"/>
        <path fill="#271D45" d="M398.716 533.494c-1.17.206-2.373.618-3.57 1.268-3.738 2.031-7.302 3.968-10.9 5.165-5.42 1.847-10.981 2.131-16.968-1.126-12.19-6.633-16.705-23.048-9.673-35.006 8.672-14.749 24.438-12.93 37.187-4.973 5.503 3.434 12.447.223 13.817-5.696l.004-33.7.002-21.804h-.001v-1.54h-.253v1.242h-56.213c-4.315-1.146-7.114-5.303-6.773-9.623a9.13 9.13 0 0 1 1.217-4.615c3.286-5.762 6.298-11.47 6.593-17.47.032-3.103-.68-6.287-2.478-9.603-6.62-12.204-23.02-16.73-34.971-9.7-7.575 4.455-10.773 10.789-11.021 17.624-.029 6.251 2.346 12.875 6.062 18.84 1.152 1.85 1.554 3.865 1.358 5.777-.082 4.026-2.841 7.753-6.952 8.77h-48.88c-.162.247-.33.487-.487.742-4.219 6.899-3.349 12.03 2.946 16.371 4.033 2.783 8.29 5.173 11.82 8.78 5.39 5.509 5.74 8.758 1.624 15.571-4.631 7.669-4.607 7.982 2.51 13.431 1.91 1.462 3.933 2.562 1.25 5.33-3.95 4.071-2.536 8.044.864 11.01 4.773 4.166 5.49 9.508 4.594 15.482-.782 5.212-1.935 10.357-2.91 15.536-2.628 13.97 1.033 20.454 13.645 24.125 13.164 3.83 26.264.512 39.392-.756 8.8-.85 17.462-3.913 26.464-1.684 5.845 1.447 9.072 5.024 9.823 11.575 1.094 9.552 3.935 18.682 5.559 28.082 1.323 7.666 4.66 10.06 11.557 9.75 5.782-.26 14.05-.381 23.645-.418l.006-69.735c-1.067-4.534-5.41-7.49-9.889-7.022M456.203 305.93c2.706 5.44 10.206 6.95 14.763 2.33 10.554-10.703 25.466-16.134 37.323-3.804 9.613 9.998 9.032 27.014-1.287 36.297-5.068 4.56-10.543 5.576-16.243 5.04-3.778-.33-7.694-1.385-11.8-2.492a11.733 11.733 0 0 0-3.765-.404c-4.468.585-8.007 4.47-7.992 9.13l7.663 32.11-.014.002 5.097 21.37h.002l.184.772.173.726.246-.058 55.345-13.223c5.415.61 9.454 6.029 7.783 11.738-2.9 9.917-5.196 19.548 2.426 28.043 9.27 10.333 26.271 10.925 36.266 1.309 12.327-11.86 6.908-26.788-3.78-37.358-4.36-4.311-3.245-11.252 1.48-14.286l33.836-8.083c1.776-12.492 1.617-24.79-.368-36.293-5.853-29.643-17.343-52.563-35.502-69.211-37.256-34.154-80.238-43.497-125.88-36.238a108.03 108.03 0 0 0-12.606 2.798l8.83 37.01 7.82 32.776z"/>
        <path fill="#B5D6CA" d="M408.616 436.082h-.002v1.54l.002-.747z"/>
        <path fill="#0AD" d="M512.908 610.695c8.236-.447 4.24-5.592.441-13.582-30.812-64.82 5.89-117.071 11.898-124.382 9.008-10.959 15.91-22.892 20.724-35.11h-34.787c-5.298 1.854-7.994 8.345-4.753 13.553 7.944 12.765 9.75 28.544-4.99 37.214-11.952 7.03-28.353 2.505-34.972-9.7-5.442-10.033-.975-18.868 4.148-27.84 2.948-5.166.277-11.375-4.849-13.227h-56.9v53.385a9.33 9.33 0 0 1-.258 2.12v.227c-1.442 5.833-8.324 8.97-13.786 5.565-12.754-7.952-28.52-9.762-37.184 4.99-7.026 11.962-1.827 28.098 10.366 34.724 5.894 3.204 11.104 3.004 16.24 1.295 3.653-1.245 7.24-3.199 10.852-5.26a9.176 9.176 0 0 1 3.619-1.174c4.686-.828 8.835 1.77 9.888 6.864v.16c.16.684.264 1.397.264 2.147v67.586c37.13-.136 93.917.995 104.039.445"/>
        <path fill="#1A3151" d="M408.605 540.516v-.16c-1.052-5.092-5.202-7.69-9.889-6.862 4.48-.467 8.822 2.488 9.889 7.022M394.793 498.822c-12.75-7.958-28.515-9.776-37.187 4.972-7.032 11.959-2.518 28.374 9.672 35.007 5.987 3.257 11.549 2.973 16.968 1.126-5.136 1.71-10.346 1.909-16.24-1.294-12.194-6.627-17.392-22.763-10.366-34.724 8.664-14.752 24.43-12.942 37.184-4.99 5.462 3.405 12.344.267 13.786-5.566v-.228c-1.37 5.92-8.315 9.131-13.817 5.697"/>
        <path fill="#FF2A77" d="M459.624 344.376c-8.672-14.748-24.436-12.931-37.186-4.973-5.504 3.435-12.448.223-13.818-5.697a9.319 9.319 0 0 1-.26-2.12v-69.62c-18.996.857-37.477 6.585-55.213 15.288-4.769 2.34-9.459 4.897-14.105 7.53-32.612 18.484-50.755 46.863-49.215 88.443.863 23.335-9.518 40.32-24.855 54.595-2.773 2.581-5.529 5.149-7.8 8.244-.298.41-.588.83-.87 1.258h48.881c4.11-1.017 6.87-4.744 6.952-8.77a9.085 9.085 0 0 0-1.39-5.026c-3.861-6.207-6.265-13.123-6.03-19.59.248-6.837 3.446-13.17 11.02-17.625 11.953-7.03 28.352-2.504 34.973 9.7 1.797 3.316 2.51 6.5 2.477 9.602-.064 6.285-3.195 12.231-6.625 18.238a9.16 9.16 0 0 0-1.185 3.848c-.34 4.32 2.458 8.477 6.773 9.623h56.213V383.246c0-.75.103-1.464.264-2.147 1.066-4.536 5.41-7.493 9.89-7.024a9.192 9.192 0 0 1 3.617 1.172c3.611 2.062 7.199 4.017 10.852 5.261 5.419 1.848 10.98 2.131 16.968-1.126 12.19-6.632 16.704-23.048 9.672-35.006"/>
        <path fill="#FFF" d="M689.056 340.384L651.22 376.14l-56.13-16.746-4.016 12.636 61.69 28.247h16.234L703.3 371.07z"/>
        <path fill="#EAC1A4" d="M591.435 370.89l-9.77.18-5.965-8.427 15.165-8.437 4.224 5.188z"/>
        <path fill="#AA6755" d="M277.445 392.279l-.182 5.698 10.05 3.662 5.792-4.392.005-6.635-5.593-.312-.175-1.459-1.831-1.178z"/>
        <path fill="#F8F8F8" d="M193.565 349.645l41.445 35.322 44.022.855s-1.786 18.93-1.77 17.356c.019-1.573-48.752 4.72-48.752 4.72l-43.268-30.607 8.323-27.646z"/>
    </g>
</svg>
