<svg xmlns="http://www.w3.org/2000/svg" xmlns:xlink="http://www.w3.org/1999/xlink" width="1440" height="476" viewBox="0 0 1440 476">
    <defs>
        <path id="a" d="M0 0h1440v476H0z"/>
        <path id="c" d="M0 0h1440v235H0z"/>
    </defs>
    <g fill="none" fill-rule="evenodd">
        <g transform="matrix(1 0 0 -1 0 476)">
            <mask id="b" fill="#fff">
                <use xlink:href="#a"/>
            </mask>
            <path fill="#0AD" d="M1340.048 382.052C1221.322 156.785 956.758 0 649.409 0 231.114 0-107.98 290.386-107.98 648.593c0 10.993.32 21.92.953 32.78 9.063 155.836-40.147 307.808-133.608 427.87-41.668 53.532-65.365 114.992-65.365 180.35 0 207.498 238.786 375.702 533.345 375.702 100.747 0 194.963-19.68 275.33-53.88 121.3-51.624 255.106-58.223 379.467-15.695 79.204 27.083 165.817 42.005 256.566 42.005 376.821 0 682.292-257.224 682.292-574.516 0-189.845-109.364-358.16-277.93-462.755-84.44-52.395-155.125-127.517-203.022-218.402z" mask="url(#b)" transform="matrix(1 0 0 -1 0 1665.295)"/>
        </g>
        <g opacity=".203" transform="translate(0 241)">
            <mask id="d" fill="#fff">
                <use xlink:href="#c"/>
            </mask>
            <path fill="#FFF" d="M1340.048 382.052C1221.322 156.785 956.758 0 649.409 0 231.114 0-107.98 290.386-107.98 648.593c0 10.993.32 21.92.953 32.78 9.063 155.836-40.147 307.808-133.608 427.87-41.668 53.532-65.365 114.992-65.365 180.35 0 207.498 238.786 375.702 533.345 375.702 100.747 0 194.963-19.68 275.33-53.88 121.3-51.624 255.106-58.223 379.467-15.695 79.204 27.083 165.817 42.005 256.566 42.005 376.821 0 682.292-257.224 682.292-574.516 0-189.845-109.364-358.16-277.93-462.755-84.44-52.395-155.125-127.517-203.022-218.402z" mask="url(#d)" transform="matrix(1 0 0 -1 0 1665.295)"/>
        </g>
    </g>
</svg>
