<svg xmlns="http://www.w3.org/2000/svg" xmlns:xlink="http://www.w3.org/1999/xlink" width="1440" height="1137" viewBox="0 0 1440 1137">
    <defs>
        <path id="a" d="M0 0h1440v831H0z"/>
    </defs>
    <g fill="none" fill-rule="evenodd">
        <g transform="matrix(1 0 0 -1 0 831)">
            <mask id="b" fill="#fff">
                <use xlink:href="#a"/>
            </mask>
            <path fill="#1E91FD" d="M1210.048-451.948C1091.322-677.215 826.758-834 519.409-834 101.114-834-237.98-543.614-237.98-185.407c0 10.993.32 21.92.953 32.78 9.063 155.836-40.147 307.808-133.608 427.87C-412.303 328.775-436 390.235-436 455.593c0 207.498 238.786 375.702 533.345 375.702 100.747 0 194.963-19.68 275.33-53.88 121.3-51.624 255.106-58.223 379.467-15.695 79.204 27.083 165.817 42.005 256.566 42.005C1385.53 803.725 1691 546.5 1691 229.209c0-189.845-109.364-358.16-277.93-462.755-84.44-52.395-155.125-127.517-203.022-218.402z" mask="url(#b)"/>
        </g>
        <path fill="#1E91FD" d="M0 790h1440v347H0z"/>
    </g>
</svg>
