<svg xmlns="http://www.w3.org/2000/svg" xmlns:xlink="http://www.w3.org/1999/xlink" width="1440" height="835" viewBox="0 0 1440 835">
    <defs>
        <path id="a" d="M0 0h1440v875H0z"/>
    </defs>
    <g fill="none" fill-rule="evenodd" transform="matrix(1 0 0 -1 0 835)">
        <mask id="b" fill="#fff">
            <use xlink:href="#a"/>
        </mask>
        <path fill="#1E91FD" d="M1210.048-448.244c-118.726-225.266-383.29-382.051-690.639-382.051-418.295 0-757.389 290.386-757.389 648.593 0 10.993.32 21.92.953 32.779 9.063 155.836-40.147 307.809-133.608 427.87C-412.303 332.48-436 393.94-436 459.298-436 666.795-197.214 835 97.345 835c100.747 0 194.963-19.681 275.33-53.881 121.3-51.623 255.106-58.222 379.467-15.695 79.204 27.083 165.817 42.005 256.566 42.005C1385.53 807.43 1691 550.206 1691 232.913c0-189.844-109.364-358.16-277.93-462.754-84.44-52.395-155.125-127.517-203.022-218.403z" mask="url(#b)"/>
    </g>
</svg>
