<svg xmlns="http://www.w3.org/2000/svg" width="147.941" height="29.229" viewBox="0 0 147.941 29.229">

    <g fill="#FFFFFF" id="Artboard_1" data-name="Artboard 1" transform="translate(-1.776 -2.236)">
        <path id="Path_5" d="M19.246 15.06l-2.171 12.2a1.488 1.488 0 0 1-1.488 1.34 1.4 1.4 0 0 1-1.116-.476 1.339 1.339 0 0 1-.3-1.189l2.068-11.895a5.355 5.355 0 0 0 .1-1.041 3.7 3.7 0 0 0-.967-2.657 3.719 3.719 0 0 0-2.856-1.012 5.441 5.441 0 0 0-3.748 1.413 6.054 6.054 0 0 0-1.928 3.611L4.773 27.249a1.488 1.488 0 0 1-1.488 1.368 1.488 1.488 0 0 1-1.176-.476 1.369 1.369 0 0 1-.3-1.2L4.98 9.08q.209-1.295 1.339-1.295A1.057 1.057 0 0 1 7.524 8.9v1.487a7.438 7.438 0 0 1 5.947-2.827 5.947 5.947 0 0 1 4.344 1.577 5.712 5.712 0 0 1 1.621 4.254 10.8 10.8 0 0 1-.19 1.668z" data-name="Path 5" transform="translate(0 2.592)"/>
        <path id="Path_6" d="M29.879 23.077a7.319 7.319 0 0 1-7.616 5.668 7.719 7.719 0 0 1-5.088-1.645 5.459 5.459 0 0 1-1.993-4.463 8.374 8.374 0 0 1 .119-1.488l1.1-5.637a9.832 9.832 0 0 1 2.828-5.822 8.33 8.33 0 0 1 5.86-2.1 6.8 6.8 0 0 1 4.79 1.71 5.947 5.947 0 0 1 1.874 4.611 3.957 3.957 0 0 1-.416 1.488l-.313 1.725a1.755 1.755 0 0 1-.535 1.1 1.488 1.488 0 0 1-1.1.432h-10.7l-.52 2.9v1.012a3.66 3.66 0 0 0 1.116 2.8 4.463 4.463 0 0 0 3.138 1.041 4.73 4.73 0 0 0 4.879-3.957 1.562 1.562 0 0 1 1.621-1.041.967.967 0 0 1 .907.52 1.645 1.645 0 0 1 .044 1.145zm-10.592-7.914l-.178 1.037h9.46l.223-1.041a5.741 5.741 0 0 0 .134-1.2 3.823 3.823 0 0 0-1.1-2.784 4.254 4.254 0 0 0-3.094-1.057 4.849 4.849 0 0 0-3.556 1.488 7.007 7.007 0 0 0-1.889 3.6z" data-name="Path 6" transform="translate(6.533 2.608)"/>
        <path id="Path_7" d="M37.947 12.368h-3.124l-2.98 16.572a1.534 1.534 0 0 1-2.618.878 1.3 1.3 0 0 1-.282-1.16l2.871-16.288H29.03a1.189 1.189 0 0 1-.848-.328 1.16 1.16 0 0 1-.357-.878 1.235 1.235 0 0 1 .416-.967 1.488 1.488 0 0 1 .952-.3h3.065l.773-4.463a1.518 1.518 0 0 1 2.608-.863 1.3 1.3 0 0 1 .3 1.16L35.267 9.9h2.841a1.22 1.22 0 0 1 .863.342 1.116 1.116 0 0 1 .357.863 1.249 1.249 0 0 1-.4.982 1.368 1.368 0 0 1-.981.281z" data-name="Path 7" transform="translate(12.7 .91)"/>
        <path id="Path_8" d="M43.632 14.7l-2.486 13.972a3.437 3.437 0 0 1-.744 1.74 2.142 2.142 0 0 1-1.645.58 2.543 2.543 0 0 1-1.918-.729 2.217 2.217 0 0 1-.491-1.978L38.773 14.7h-.788a1.934 1.934 0 0 1-1.413-.58A1.874 1.874 0 0 1 36 12.756a2.112 2.112 0 0 1 .625-1.488 2.025 2.025 0 0 1 1.488-.625H39.6l.119-.714c.834-4.849 3.631-7.289 8.376-7.289h.3a2.083 2.083 0 0 1 1.993 2.025 2.053 2.053 0 0 1-2.039 2.052h-.3a3.124 3.124 0 0 0-3.5 2.87l-.178 1.026h2.29a1.978 1.978 0 0 1 1.413.566 1.8 1.8 0 0 1 .576 1.353 2.171 2.171 0 0 1-.625 1.562 1.964 1.964 0 0 1-1.488.639z" data-name="Path 8" transform="translate(16.686 .196)"/>
        <path id="Path_9" d="M51.463 13.1l-2.784 15.754a3.629 3.629 0 0 1-.729 1.772 2.151 2.151 0 0 1-1.645.566 2.44 2.44 0 0 1-1.874-.729 2.246 2.246 0 0 1-.4-1.978l2.732-15.791c.268-1.488 1.086-2.336 2.455-2.336a2.2 2.2 0 0 1 1.782.728 2.321 2.321 0 0 1 .461 2.008zm-3.749-7.62a3.138 3.138 0 0 1 .938-2.306A3.2 3.2 0 0 1 51 2.237a2.217 2.217 0 0 1 1.667.685 2.35 2.35 0 0 1 .669 1.7 3.094 3.094 0 0 1-.952 2.29 3.332 3.332 0 0 1-2.4.922 2.2 2.2 0 0 1-1.645-.669 2.261 2.261 0 0 1-.623-1.68z" data-name="Path 9" transform="translate(20.561)"/>
        <path id="Path_10" d="M68.172 15.179l-2.008 11.2a2.278 2.278 0 0 1-2.4 2.217 2.455 2.455 0 0 1-1.889-.729 2.1 2.1 0 0 1-.476-1.934l1.83-10.5a6.308 6.308 0 0 0 .09-.907 2.722 2.722 0 0 0-.7-1.949 2.752 2.752 0 0 0-2.068-.729 3.734 3.734 0 0 0-2.651 1.041 5.013 5.013 0 0 0-1.488 2.657L54.6 26.316a3.376 3.376 0 0 1-.714 1.711 2.2 2.2 0 0 1-1.68.566 2.5 2.5 0 0 1-1.918-.714 2.025 2.025 0 0 1-.476-1.9l2.745-15.8q.416-2.4 2.455-2.4a2.514 2.514 0 0 1 1.488.432 1.488 1.488 0 0 1 .625 1.235v.573a6.843 6.843 0 0 1 5.34-2.455 5.947 5.947 0 0 1 4.344 1.577 5.821 5.821 0 0 1 1.562 4.254 9.121 9.121 0 0 1-.194 1.785z" data-name="Path 10" transform="translate(23.384 2.592)"/>
        <path id="Path_11" d="M81.9 10.109L79.069 26.19c-.282 1.592-1.086 2.38-2.4 2.38s-1.993-.506-2.083-1.488v-.7a6.173 6.173 0 0 1-5.117 2.455A5.947 5.947 0 0 1 65 27.157a6.188 6.188 0 0 1-1.636-4.463 15.058 15.058 0 0 1 .119-1.711l.982-5.459c.922-5.281 3.585-7.914 7.943-7.914a6.783 6.783 0 0 1 2.975.669 4.849 4.849 0 0 1 2.074 1.711l.238-.744a2.278 2.278 0 0 1 2.356-1.487 1.859 1.859 0 0 1 1.488.639 2.008 2.008 0 0 1 .361 1.711zM69.073 23.764a3.094 3.094 0 0 0 2.2.729 3.51 3.51 0 0 0 2.531-1.026 4.774 4.774 0 0 0 1.356-2.647l1.145-5.188a5.573 5.573 0 0 0 0-.8 2.871 2.871 0 0 0-.788-2.171 3.153 3.153 0 0 0-2.278-.833 3.436 3.436 0 0 0-2.531.982 4.864 4.864 0 0 0-1.295 2.6l-1 5.534a7.064 7.064 0 0 0 0 .833 2.633 2.633 0 0 0 .654 1.993z" data-name="Path 11" transform="translate(30.024 2.62)"/>
        <path id="Path_12" d="M94.972 15.18l-2.008 11.2a2.278 2.278 0 0 1-2.4 2.217 2.455 2.455 0 0 1-1.889-.729 2.1 2.1 0 0 1-.476-1.934l1.83-10.5a8.718 8.718 0 0 0 .075-.907 2.707 2.707 0 0 0-.685-1.949 2.784 2.784 0 0 0-2.083-.729A3.719 3.719 0 0 0 84.7 12.89a5.014 5.014 0 0 0-1.488 2.657l-1.9 10.77a3.376 3.376 0 0 1-.714 1.711 2.231 2.231 0 0 1-1.68.566 2.559 2.559 0 0 1-1.934-.714 2.1 2.1 0 0 1-.476-1.9l2.845-15.8q.416-2.4 2.455-2.4a2.543 2.543 0 0 1 1.413.447 1.488 1.488 0 0 1 .625 1.235v.58a6.843 6.843 0 0 1 5.321-2.475 5.947 5.947 0 0 1 4.463 1.577 5.821 5.821 0 0 1 1.485 4.256 9.119 9.119 0 0 1-.143 1.784z" data-name="Path 12" transform="translate(36.403 2.59)"/>
        <path id="Path_13" d="M98.127 15.276l2.737.848c3.184 1 4.76 2.812 4.745 5.415a6.857 6.857 0 0 1-2.171 5.265 8.791 8.791 0 0 1-6.247 2.025 9.951 9.951 0 0 1-4.7-1.084 4.924 4.924 0 0 1-2.657-2.975 4.358 4.358 0 0 1-.178-1.012 2.112 2.112 0 0 1 .595-1.488 1.934 1.934 0 0 1 1.488-.625 1.785 1.785 0 0 1 1.488.788 10.873 10.873 0 0 1 .714 1.026 5.947 5.947 0 0 0 .744 1 3.3 3.3 0 0 0 .967.491 4.463 4.463 0 0 0 1.7.282c2.306 0 3.466-.863 3.466-2.588 0-.938-.595-1.621-1.8-2.037l-3.332-1.13a6.04 6.04 0 0 1-2.886-1.922 4.849 4.849 0 0 1-1.13-3.362 6.143 6.143 0 0 1 2.13-4.734 8.449 8.449 0 0 1 5.947-1.934 10 10 0 0 1 4.285.892 4.835 4.835 0 0 1 2.588 2.531 2.693 2.693 0 0 1 0 2.29 1.815 1.815 0 0 1-1.8 1.116 1.934 1.934 0 0 1-1.488-.58 17.962 17.962 0 0 1-.833-.922 11.261 11.261 0 0 0-.833-.892 2.975 2.975 0 0 0-.907-.52 3.986 3.986 0 0 0-1.488-.253 3.8 3.8 0 0 0-2.187.58 1.83 1.83 0 0 0-.863 1.607c.136.905.731 1.515 1.906 1.902z" data-name="Path 13" transform="translate(42.844 2.57)"/>
    </g>
</svg>
