<svg 
 xmlns="http://www.w3.org/2000/svg"
 xmlns:xlink="http://www.w3.org/1999/xlink"
 width="70px" height="20px">
<path fill-rule="evenodd"  fill="rgb(191, 196, 210)"
 d="M3.484,18.173 C3.484,18.678 3.313,19.109 2.970,19.471 C2.628,19.833 2.215,20.011 1.734,20.011 L-0.016,20.011 L-0.016,6.549 C-0.016,4.026 0.687,2.305 2.094,1.388 C3.502,0.470 5.027,0.008 6.674,0.008 C7.533,0.008 8.398,0.179 9.274,0.523 C10.150,0.866 10.843,1.360 11.357,2.010 C12.387,3.415 12.901,5.218 12.901,7.416 C12.901,9.686 12.387,11.526 11.357,12.930 C10.327,14.301 9.008,14.986 7.394,14.986 C6.536,14.986 5.783,14.824 5.131,14.499 C4.433,14.128 3.858,13.544 3.484,12.822 L3.484,18.173 ZM9.351,7.578 C9.351,6.173 9.094,5.091 8.578,4.335 C8.062,3.578 7.326,3.200 6.365,3.200 C5.438,3.200 4.718,3.578 4.204,4.335 C3.723,5.018 3.484,6.099 3.484,7.578 C3.484,8.947 3.741,9.974 4.257,10.659 C4.771,11.415 5.508,11.793 6.470,11.793 C7.361,11.793 8.066,11.415 8.580,10.659 C9.091,9.902 9.351,8.874 9.351,7.578 ZM22.264,14.118 C21.544,14.515 20.782,14.759 19.975,14.849 C19.167,14.939 18.457,14.983 17.840,14.983 C16.604,14.983 15.524,14.633 14.598,13.929 C13.671,13.226 13.208,12.063 13.208,10.442 C13.208,8.927 13.627,7.847 14.468,7.197 C15.309,6.547 16.380,6.115 17.685,5.899 C17.856,5.899 18.062,5.871 18.301,5.818 C18.541,5.765 18.815,5.719 19.125,5.682 C20.635,5.465 21.388,4.997 21.388,4.277 C21.388,3.738 21.123,3.385 20.591,3.223 C20.060,3.062 19.573,2.983 19.127,2.983 C18.646,2.983 18.218,3.055 17.840,3.200 C17.463,3.346 17.188,3.615 17.017,4.012 L13.570,4.012 C13.706,2.893 14.187,1.973 15.011,1.254 C15.937,0.426 17.256,0.011 18.973,0.011 C20.894,0.011 22.335,0.352 23.296,1.037 C24.291,1.759 24.789,2.767 24.789,4.065 L24.789,8.984 C24.789,10.426 24.541,11.554 24.043,12.363 C23.544,13.173 22.952,13.758 22.264,14.118 ZM21.441,7.469 C20.799,7.780 20.126,8.015 19.434,8.173 L18.251,8.442 C17.634,8.622 17.188,8.858 16.914,9.146 C16.688,9.498 16.562,9.911 16.554,10.336 C16.554,10.876 16.708,11.309 17.017,11.634 C17.327,11.923 17.772,12.068 18.354,12.068 C19.316,12.068 20.069,11.780 20.618,11.203 C21.167,10.627 21.441,9.833 21.441,8.823 L21.441,7.469 ZM28.800,18.173 C28.800,18.678 28.629,19.109 28.287,19.471 C27.944,19.833 27.531,20.011 27.051,20.011 L25.301,20.011 L25.301,6.549 C25.301,4.026 26.003,2.305 27.411,1.388 C28.818,0.470 30.344,0.008 31.990,0.008 C32.849,0.008 33.714,0.179 34.590,0.523 C35.466,0.866 36.160,1.360 36.674,2.010 C37.703,3.415 38.217,5.216 38.217,7.414 C38.217,9.683 37.703,11.524 36.674,12.928 C35.644,14.298 34.324,14.983 32.711,14.983 C31.852,14.983 31.099,14.822 30.447,14.497 C29.749,14.126 29.175,13.541 28.800,12.820 L28.800,18.173 ZM34.667,7.578 C34.667,6.173 34.410,5.091 33.894,4.335 C33.378,3.578 32.643,3.200 31.681,3.200 C30.755,3.200 30.034,3.578 29.521,4.335 C29.040,5.018 28.800,6.099 28.800,7.578 C28.800,8.947 29.057,9.974 29.573,10.659 C30.087,11.415 30.825,11.793 31.784,11.793 C32.676,11.793 33.380,11.415 33.894,10.659 C34.410,9.902 34.667,8.874 34.667,7.578 ZM47.583,14.118 C46.863,14.515 46.099,14.757 45.293,14.847 C44.487,14.937 43.774,14.983 43.157,14.983 C41.921,14.983 40.841,14.633 39.914,13.929 C38.988,13.226 38.527,12.066 38.527,10.442 C38.527,8.927 38.946,7.847 39.787,7.197 C40.628,6.547 41.699,6.115 43.003,5.899 C43.174,5.899 43.381,5.871 43.620,5.818 C43.859,5.765 44.134,5.719 44.443,5.682 C45.954,5.465 46.707,4.997 46.707,4.277 C46.707,3.738 46.441,3.385 45.910,3.223 C45.379,3.062 44.889,2.983 44.443,2.983 C43.963,2.983 43.534,3.055 43.157,3.200 C42.779,3.346 42.505,3.615 42.334,4.012 L38.887,4.012 C39.025,2.896 39.504,1.976 40.327,1.256 C41.253,0.428 42.573,0.013 44.290,0.013 C46.211,0.013 47.651,0.354 48.613,1.039 C49.607,1.761 50.106,2.769 50.106,4.067 L50.106,8.987 C50.106,10.428 49.858,11.556 49.359,12.366 C48.861,13.175 48.268,13.758 47.583,14.118 ZM46.760,7.469 C46.117,7.779 45.444,8.015 44.753,8.173 L43.570,8.442 C42.953,8.622 42.507,8.858 42.233,9.146 C42.006,9.498 41.881,9.911 41.873,10.336 C41.873,10.876 42.026,11.309 42.336,11.634 C42.645,11.923 43.091,12.068 43.673,12.068 C44.634,12.068 45.387,11.780 45.936,11.203 C46.485,10.627 46.760,9.833 46.760,8.823 L46.760,7.469 ZM50.617,14.713 L50.617,7.739 C50.617,6.335 50.815,5.154 51.210,4.199 C51.605,3.244 52.145,2.478 52.830,1.902 C53.482,1.362 54.246,0.965 55.120,0.712 C55.994,0.458 56.896,0.333 57.821,0.333 L58.334,0.333 L58.334,4.171 L57.151,4.171 C56.156,4.171 55.419,4.423 54.938,4.928 C54.457,5.433 54.218,6.226 54.218,7.305 L54.218,14.711 L50.617,14.711 L50.617,14.713 ZM67.446,14.118 C66.726,14.515 65.962,14.757 65.156,14.847 C64.350,14.937 63.639,14.983 63.020,14.983 C61.784,14.983 60.703,14.633 59.777,13.929 C58.850,13.226 58.387,12.063 58.387,10.442 C58.387,8.927 58.806,7.847 59.647,7.197 C60.488,6.547 61.560,6.115 62.864,5.899 C63.035,5.899 63.241,5.871 63.481,5.818 C63.720,5.765 63.994,5.719 64.304,5.682 C65.815,5.465 66.568,4.997 66.568,4.277 C66.568,3.738 66.302,3.385 65.771,3.223 C65.239,3.062 64.752,2.983 64.306,2.983 C63.825,2.983 63.397,3.055 63.020,3.200 C62.642,3.346 62.368,3.615 62.196,4.012 L58.749,4.012 C58.888,2.896 59.366,1.976 60.190,1.256 C61.116,0.428 62.436,0.013 64.152,0.013 C66.074,0.013 67.514,0.354 68.475,1.039 C69.470,1.761 69.968,2.769 69.968,4.067 L69.968,8.987 C69.968,10.428 69.720,11.556 69.222,12.366 C68.724,13.175 68.131,13.758 67.446,14.118 ZM66.622,7.469 C65.980,7.779 65.307,8.015 64.616,8.173 L63.432,8.442 C62.815,8.622 62.370,8.858 62.095,9.146 C61.869,9.498 61.744,9.911 61.735,10.336 C61.735,10.876 61.889,11.309 62.199,11.634 C62.508,11.923 62.954,12.068 63.536,12.068 C64.497,12.068 65.250,11.780 65.799,11.203 C66.348,10.627 66.622,9.833 66.622,8.823 L66.622,7.469 Z"/>
</svg>