<svg 
 xmlns="http://www.w3.org/2000/svg"
 xmlns:xlink="http://www.w3.org/1999/xlink"
 width="64px" height="20px">
<path fill-rule="evenodd"  fill="rgb(191, 196, 210)"
 d="M62.814,6.449 C62.494,6.449 62.234,6.346 62.035,6.139 C61.822,5.931 61.714,5.679 61.714,5.383 C61.714,5.279 61.726,5.182 61.750,5.091 C61.798,4.910 61.893,4.756 62.035,4.627 C62.234,4.420 62.494,4.317 62.814,4.317 C63.119,4.317 63.379,4.405 63.593,4.627 C63.806,4.820 63.913,5.072 63.913,5.383 C63.913,5.679 63.806,5.931 63.593,6.139 C63.379,6.361 63.119,6.449 62.814,6.449 ZM61.507,7.740 C62.175,7.398 62.742,7.197 63.033,7.197 C63.936,7.197 63.844,8.028 63.844,8.950 L63.844,13.363 C63.844,14.376 63.865,15.180 64.000,15.434 L61.833,15.434 C61.985,15.165 61.990,14.529 61.990,13.379 L61.990,9.388 C61.990,8.416 61.856,7.966 61.507,7.740 ZM58.903,15.600 C58.047,15.600 57.439,15.343 57.049,14.844 C56.784,14.497 56.644,13.862 56.644,12.955 L56.644,8.465 L55.352,8.465 L55.352,7.484 L56.644,7.333 L56.784,5.383 L58.498,5.262 L58.498,7.347 L60.617,7.347 L60.617,8.465 L58.498,8.465 L58.498,13.016 C58.498,13.877 58.872,14.301 59.589,14.301 C60.040,14.301 60.492,14.194 60.975,13.952 L61.131,15.010 C60.352,15.403 59.604,15.600 58.903,15.600 ZM52.620,14.453 C52.626,14.117 52.626,13.715 52.626,13.242 L52.626,10.069 C52.626,8.980 52.282,8.481 51.457,8.481 C50.818,8.481 50.071,8.919 49.479,9.434 L49.479,13.423 C49.479,13.880 49.487,14.302 49.504,14.652 C49.522,14.996 49.549,15.268 49.588,15.434 L47.547,15.434 C47.624,15.101 47.640,14.437 47.640,13.484 L47.640,9.358 C47.640,8.345 47.472,7.937 47.158,7.740 C47.884,7.388 48.329,7.212 48.659,7.212 C49.263,7.212 49.400,7.728 49.416,8.375 C50.133,7.665 51.145,7.120 52.096,7.120 C53.030,7.120 53.716,7.438 54.136,8.088 C54.230,8.240 54.304,8.434 54.358,8.670 C54.440,9.023 54.479,9.472 54.479,10.023 L54.479,13.393 C54.479,14.727 54.538,15.285 54.603,15.434 L52.544,15.434 C52.611,15.270 52.613,14.888 52.620,14.453 ZM44.198,14.632 C43.543,15.282 42.739,15.645 41.790,15.630 C40.403,15.600 39.297,14.829 39.266,13.363 C39.204,10.779 41.977,9.962 44.158,10.612 C44.158,9.449 44.235,8.239 42.646,8.239 C42.103,8.239 41.547,8.304 41.020,8.447 C40.702,8.535 40.395,8.651 40.107,8.799 L40.325,7.657 C41.135,7.309 41.861,7.136 42.749,7.136 C44.993,7.136 46.027,7.862 46.027,10.114 L46.027,13.575 C46.027,14.209 46.045,15.139 46.183,15.434 C46.183,15.434 44.744,15.434 44.329,15.434 C44.239,15.145 44.198,14.632 44.198,14.632 ZM44.158,11.474 C42.382,11.020 41.151,11.867 41.151,13.136 C41.151,13.997 41.680,14.345 42.522,14.345 C43.129,14.345 43.691,14.103 44.158,13.741 L44.158,11.474 ZM38.998,8.542 C38.406,8.542 37.814,8.844 37.238,9.479 L37.238,13.544 C37.238,14.738 37.286,15.296 37.347,15.434 L35.306,15.434 C35.335,15.309 35.355,15.155 35.369,14.976 C35.399,14.592 35.399,14.096 35.399,13.559 L35.399,9.358 C35.399,8.436 35.243,7.926 34.914,7.740 C35.499,7.444 36.055,7.212 36.414,7.212 C37.037,7.212 37.159,7.771 37.159,8.391 C37.736,7.544 38.453,7.120 39.278,7.120 C39.434,7.120 39.590,7.136 39.729,7.167 L39.465,8.557 C39.325,8.542 39.185,8.542 38.998,8.542 ZM31.921,14.632 C31.267,15.282 30.472,15.645 29.522,15.630 C28.135,15.600 27.030,14.829 26.999,13.363 C26.936,10.779 29.709,9.962 31.890,10.612 C31.890,9.449 31.968,8.239 30.379,8.239 C29.507,8.239 28.603,8.405 27.840,8.799 L28.057,7.665 C28.868,7.317 29.585,7.136 30.472,7.136 C32.716,7.136 33.760,7.862 33.760,10.114 L33.760,13.575 C33.760,14.209 33.791,14.980 33.915,15.434 L32.062,15.434 L31.921,14.632 ZM31.890,11.474 C30.114,11.020 28.884,11.867 28.884,13.136 C28.884,13.997 29.413,14.345 30.255,14.345 C30.862,14.345 31.423,14.103 31.890,13.741 L31.890,11.474 ZM26.084,14.889 C24.759,15.418 23.435,15.691 22.095,15.691 C20.116,15.691 18.590,15.161 17.484,14.103 C16.394,13.046 15.760,11.629 15.760,9.815 C15.760,7.986 16.441,6.486 17.655,5.323 C18.855,4.174 20.444,3.599 22.422,3.599 C24.119,3.599 24.730,3.810 25.633,4.112 L25.336,5.564 C24.401,5.201 23.420,5.020 22.422,5.020 C21.146,5.020 20.145,5.459 19.304,6.305 C18.462,7.167 18.042,8.269 18.042,9.599 C18.042,11.051 18.415,12.214 19.179,13.061 C19.927,13.907 20.912,14.345 22.251,14.345 C22.953,14.345 23.529,14.254 24.011,14.073 L24.011,11.217 C24.011,11.021 24.008,10.840 24.002,10.673 L22.429,10.673 C22.407,10.167 22.338,9.636 22.257,9.328 L26.084,9.454 C25.943,9.893 25.928,10.431 25.928,11.352 L25.928,12.819 C25.928,13.847 25.990,14.542 26.084,14.889 ZM12.755,15.510 C11.855,12.091 10.129,10.497 9.534,10.033 C10.022,9.971 11.286,9.980 12.682,11.345 C13.324,11.974 13.647,12.655 13.647,13.378 C13.647,13.618 13.611,13.862 13.540,14.111 C13.352,14.765 12.963,15.273 12.755,15.510 ZM10.396,9.278 C9.896,9.353 9.492,9.277 9.290,9.223 C10.765,8.072 11.654,6.683 12.143,5.707 C12.571,4.851 12.770,4.176 12.839,3.910 C13.025,4.056 13.427,4.433 13.568,5.056 C13.602,5.207 13.619,5.363 13.619,5.523 C13.619,6.120 13.382,6.777 12.909,7.482 C12.217,8.516 11.347,9.138 10.396,9.278 ZM9.088,8.961 C9.059,8.689 9.004,8.076 9.004,7.473 C9.004,7.317 9.008,7.161 9.016,7.012 L9.027,6.827 C9.081,5.795 9.225,3.056 10.345,2.095 C10.628,1.853 10.958,1.743 11.327,1.769 C11.370,1.774 12.463,1.916 12.605,3.633 C12.576,3.741 12.359,4.544 11.844,5.560 C11.349,6.534 10.473,7.901 9.088,8.961 ZM7.358,17.904 C7.348,17.928 6.414,20.000 4.850,20.000 C3.418,20.000 2.840,18.169 2.755,17.866 C2.943,17.736 3.790,17.132 4.808,16.050 C5.844,14.948 7.269,13.115 8.244,10.597 C8.463,11.308 8.548,12.047 8.548,12.759 C8.548,13.745 8.388,14.682 8.209,15.423 C7.860,16.859 7.363,17.894 7.358,17.904 ZM7.027,6.305 C6.239,5.056 4.835,3.295 2.606,1.974 C2.667,1.748 2.989,0.684 3.763,0.217 C4.126,-0.003 4.541,-0.060 4.997,0.046 C5.945,0.265 6.762,0.994 7.358,2.154 C7.991,3.384 8.344,5.057 8.379,6.991 C8.379,6.992 8.380,7.017 8.380,7.060 C8.380,7.268 8.361,7.913 8.154,8.556 C8.021,8.191 7.674,7.333 7.027,6.305 ZM7.925,8.852 C7.805,8.932 7.411,9.164 6.743,9.277 C5.991,9.405 4.729,9.406 2.985,8.683 C1.194,7.943 0.000,6.490 0.000,5.058 C0.000,5.045 0.000,5.033 0.001,5.020 C0.018,3.853 0.803,2.910 2.211,2.365 C2.376,2.447 3.350,2.954 4.549,4.047 C6.039,5.406 7.174,7.022 7.925,8.852 ZM6.573,10.124 C7.354,10.095 7.853,10.248 8.017,10.309 C6.868,12.984 5.379,14.776 4.328,15.811 C3.297,16.826 2.478,17.328 2.316,17.424 C1.028,16.806 0.220,15.827 0.154,14.800 C0.151,14.752 0.149,14.704 0.149,14.656 C0.149,13.588 0.915,12.540 2.375,11.617 C4.229,10.444 5.681,10.158 6.573,10.124 ZM9.148,11.790 C9.148,11.765 9.148,11.740 9.148,11.717 C9.148,11.004 9.235,10.461 9.278,10.236 C11.366,11.736 12.400,15.522 12.473,15.798 C12.218,17.315 11.175,17.180 11.131,17.174 L11.124,17.173 L11.118,17.173 C10.749,17.176 10.428,17.047 10.163,16.791 C9.210,15.869 9.147,13.493 9.147,12.327 C9.147,12.227 9.148,12.137 9.148,12.057 L9.148,11.790 Z"/>
</svg>