<svg 
 xmlns="http://www.w3.org/2000/svg"
 xmlns:xlink="http://www.w3.org/1999/xlink"
 width="92px" height="20px">
<path fill-rule="evenodd"  fill="rgb(191, 196, 210)"
 d="M90.697,15.974 L90.697,7.695 L92.000,7.695 L92.000,15.974 L90.697,15.974 ZM89.935,13.442 C89.935,14.659 88.703,16.021 87.127,16.021 C85.552,16.021 84.380,15.298 84.380,15.298 L84.784,14.193 C84.784,14.193 85.734,14.845 86.965,14.845 C88.197,14.845 88.622,14.061 88.622,13.627 C88.622,13.194 88.339,12.740 86.885,12.389 C85.430,12.039 84.582,11.193 84.582,9.790 C84.582,8.387 85.895,7.582 87.147,7.582 C88.400,7.582 89.460,8.174 89.460,8.174 L89.168,9.169 C89.168,9.169 88.218,8.758 87.491,8.758 C86.763,8.758 85.976,9.088 85.976,9.769 C85.976,10.450 86.460,10.925 87.552,11.151 C88.642,11.379 89.935,12.224 89.935,13.442 ZM82.270,15.463 C82.270,15.463 81.339,16.102 80.319,16.102 C79.299,16.102 77.483,15.689 77.483,13.669 C77.483,11.966 78.665,10.791 80.300,10.791 L82.169,10.791 L82.169,9.695 C82.169,9.150 81.531,8.445 80.331,8.675 C79.151,8.903 78.331,9.367 78.331,9.367 L78.472,8.118 C78.472,8.118 79.796,7.500 81.018,7.500 C82.240,7.500 83.482,8.408 83.482,9.924 L83.482,16.102 L82.270,16.102 L82.270,15.463 ZM82.149,11.647 L80.816,11.647 C79.180,11.647 78.715,12.740 78.715,13.462 C78.715,14.184 78.755,15.145 80.230,15.145 C81.705,15.145 82.149,13.991 82.149,12.988 L82.149,11.647 ZM77.895,15.910 L75.775,15.910 L72.902,11.601 L72.562,11.601 L72.562,15.984 L71.036,15.984 L71.038,4.669 L72.587,4.669 L72.587,10.759 L72.902,10.759 L75.569,7.293 L77.532,7.293 L74.066,11.193 L77.895,15.910 ZM68.684,10.116 C68.684,9.719 68.660,9.002 67.593,9.002 C66.525,9.002 65.582,9.819 65.582,10.338 L65.582,16.008 L64.200,16.008 L64.200,7.724 L65.508,7.442 L65.508,8.531 C65.508,8.531 66.404,7.417 67.836,7.466 C69.331,7.518 70.139,8.880 70.139,9.596 L70.139,16.008 L68.684,16.008 L68.684,10.116 ZM62.139,15.463 C62.139,15.463 61.208,16.102 60.188,16.102 C59.168,16.102 57.352,15.689 57.352,13.669 C57.352,11.966 58.534,10.791 60.169,10.791 L62.038,10.791 L62.038,9.695 C62.038,9.150 61.400,8.445 60.200,8.675 C59.020,8.903 58.200,9.367 58.200,9.367 L58.341,8.118 C58.341,8.118 59.665,7.500 60.887,7.500 C62.109,7.500 63.351,8.408 63.351,9.924 L63.351,16.102 L62.139,16.102 L62.139,15.463 ZM62.018,11.647 L60.685,11.647 C59.050,11.647 58.584,12.740 58.584,13.462 C58.584,14.184 58.625,15.145 60.099,15.145 C61.574,15.145 62.018,13.991 62.018,12.988 L62.018,11.647 ZM54.359,15.990 L49.656,15.990 L49.656,4.693 L53.140,4.693 C54.831,4.693 56.473,5.653 56.473,7.262 C56.473,8.872 54.958,9.924 54.958,9.924 C54.958,9.924 56.959,10.512 56.959,12.740 C56.959,14.969 55.110,15.990 54.359,15.990 ZM55.095,7.680 C55.095,6.303 53.822,5.963 53.231,5.963 L51.125,5.963 L51.125,9.429 L53.353,9.429 C53.913,9.429 55.095,9.057 55.095,7.680 ZM53.861,10.735 L51.080,10.735 L51.080,14.674 L53.570,14.674 C54.564,14.674 55.606,14.090 55.606,12.876 C55.606,11.663 54.867,10.735 53.861,10.735 ZM45.001,9.026 L45.001,13.780 C45.001,14.399 45.111,14.752 45.686,14.752 L46.686,14.752 L46.686,15.959 L44.899,15.959 C44.414,15.959 43.232,15.618 43.232,14.349 L43.232,8.995 L42.414,8.995 L42.414,7.727 L43.293,7.727 L43.293,5.529 L44.977,5.529 L44.977,7.757 L46.916,7.757 L46.481,9.026 L45.001,9.026 ZM40.134,15.587 L39.831,15.587 C39.831,15.587 39.168,16.133 38.161,16.133 C37.156,16.133 35.552,15.786 35.552,13.929 C35.552,12.072 36.576,11.378 37.613,11.057 C38.650,10.735 40.061,10.790 40.061,10.790 L40.061,9.992 C40.061,9.671 39.776,9.026 38.970,9.026 C38.165,9.026 36.832,9.423 36.832,9.423 L37.225,7.757 C37.225,7.757 38.347,7.466 39.406,7.466 C40.468,7.466 41.879,8.073 41.879,10.295 L41.879,15.978 L40.134,15.978 L40.134,15.587 ZM40.013,12.039 C40.013,12.039 39.618,12.049 38.690,12.049 C37.650,12.049 37.298,13.091 37.298,13.545 C37.298,13.998 37.629,14.700 38.599,14.700 C39.568,14.700 40.013,14.177 40.013,13.855 L40.013,12.039 ZM33.293,15.587 L32.991,15.587 C32.991,15.587 32.326,16.133 31.321,16.133 C30.315,16.133 28.712,15.786 28.712,13.929 C28.712,12.072 29.736,11.378 30.772,11.057 C31.809,10.735 33.221,10.790 33.221,10.790 L33.221,9.992 C33.221,9.671 32.936,9.026 32.130,9.026 C31.324,9.026 29.991,9.423 29.991,9.423 L30.385,7.757 C30.385,7.757 31.505,7.466 32.566,7.466 C33.627,7.466 35.039,8.073 35.039,10.295 L35.039,15.978 L33.293,15.978 L33.293,15.587 ZM33.172,12.039 C33.172,12.039 32.778,12.049 31.849,12.049 C30.809,12.049 30.457,13.091 30.457,13.545 C30.457,13.998 30.789,14.700 31.758,14.700 C32.728,14.700 33.172,14.177 33.172,13.855 L33.172,12.039 ZM26.652,10.735 L26.652,15.959 L25.149,15.959 L25.149,7.727 L26.597,7.727 L26.597,8.655 C26.597,8.655 27.088,8.098 27.791,7.912 C28.494,7.727 29.100,7.887 29.100,7.887 L29.100,9.472 L27.960,9.472 C27.500,9.472 26.652,10.116 26.652,10.735 ZM22.705,7.061 C22.105,7.061 21.619,6.565 21.619,5.952 C21.619,5.339 22.105,4.843 22.705,4.843 C23.305,4.843 23.791,5.339 23.791,5.952 C23.791,6.565 23.305,7.061 22.705,7.061 ZM20.992,14.275 L20.325,15.980 L13.739,15.980 L13.739,14.275 L18.446,6.406 L14.144,6.406 L14.629,4.619 L21.012,4.619 L21.012,6.386 L16.285,14.275 L20.992,14.275 ZM5.925,19.239 L4.977,19.997 L4.977,16.519 L5.467,16.124 L5.467,14.511 L4.977,14.906 L4.977,11.428 L5.467,11.040 L5.467,9.427 L4.977,9.813 L4.977,6.335 L5.925,5.577 L7.347,4.431 L9.235,2.922 L9.235,6.400 L9.235,9.321 C9.235,9.612 9.172,9.878 8.872,10.128 C9.054,10.249 9.235,10.508 9.235,10.750 L9.235,16.584 L7.347,18.093 L5.925,19.239 ZM8.564,7.458 C8.564,7.183 8.319,7.134 8.074,7.336 L7.347,7.909 L6.138,8.886 L6.138,10.499 L7.347,9.523 L8.185,8.853 C8.446,8.644 8.564,8.507 8.564,8.200 L8.564,7.458 ZM8.564,13.291 L8.564,12.549 C8.564,12.275 8.319,12.227 8.074,12.429 L7.347,13.002 L6.138,13.978 L6.138,15.592 L7.347,14.615 L8.185,13.946 C8.446,13.736 8.564,13.598 8.564,13.291 ZM4.977,5.343 L4.977,1.550 L5.925,0.775 L6.865,0.001 L6.865,1.244 L5.925,2.018 L5.649,2.244 L5.649,3.544 L5.925,3.318 L6.865,2.551 L6.865,3.793 L5.925,4.569 L4.977,5.343 ZM-0.000,16.584 L-0.000,13.106 L0.900,12.210 L-0.000,11.492 L-0.000,8.014 L2.820,10.274 L3.310,9.781 L3.705,9.378 L3.310,9.063 L-0.000,6.400 L-0.000,2.922 L3.310,5.577 L4.250,6.335 L4.250,9.813 L3.365,10.709 L4.250,11.428 L4.250,14.906 L3.310,14.147 L1.446,12.646 L0.552,13.542 L3.310,15.761 L4.250,16.519 L4.250,19.997 L3.310,19.239 L-0.000,16.584 ZM3.641,3.665 L3.887,3.866 L3.887,5.109 L3.310,4.633 L2.741,4.157 L2.741,2.914 L2.978,3.108 L2.978,1.744 L2.370,1.244 L2.370,0.001 L3.310,0.775 L4.250,1.550 L4.250,2.793 L3.641,2.293 L3.641,3.665 ZM23.597,15.974 L21.855,15.974 L21.855,7.695 L23.597,7.695 L23.597,15.974 Z"/>
</svg>