<svg 
 xmlns="http://www.w3.org/2000/svg"
 xmlns:xlink="http://www.w3.org/1999/xlink"
 width="126px" height="20px">
<path fill-rule="evenodd"  fill="rgb(191, 196, 210)"
 d="M124.278,14.821 L124.278,13.763 C123.786,14.556 122.967,14.998 121.821,14.998 C119.609,14.998 117.889,13.145 117.889,10.587 C117.889,8.029 119.609,6.177 121.821,6.177 C122.885,6.177 123.704,6.618 124.278,7.412 L124.278,3.001 L125.998,3.001 L125.998,10.587 L125.998,14.821 L124.278,14.821 ZM122.066,7.853 C120.592,7.853 119.691,9.088 119.691,10.587 C119.691,12.087 120.592,13.233 122.066,13.322 C123.459,13.322 124.442,12.087 124.442,10.587 C124.442,8.999 123.459,7.853 122.066,7.853 ZM115.842,7.853 C114.777,7.853 114.204,8.646 114.204,10.058 L114.204,14.821 L112.484,14.821 L112.484,6.353 L114.204,6.353 L114.204,7.412 C114.613,6.706 115.268,6.177 116.251,6.177 C116.579,6.177 117.070,6.177 117.398,6.265 L116.906,8.029 C116.579,7.941 116.169,7.853 115.842,7.853 ZM108.470,13.763 C107.979,14.556 107.160,14.998 106.013,14.998 C103.802,14.998 102.082,13.145 102.082,10.587 C102.082,8.029 103.802,6.177 106.013,6.177 C107.078,6.177 107.897,6.618 108.470,7.412 L108.470,6.353 L110.190,6.353 L110.190,10.587 L110.190,14.821 L108.470,14.821 L108.470,13.763 ZM106.259,7.853 C104.785,7.853 103.884,9.088 103.884,10.587 C103.884,12.087 104.785,13.233 106.259,13.322 C107.651,13.322 108.634,12.087 108.634,10.587 C108.634,8.999 107.651,7.853 106.259,7.853 ZM98.396,13.322 C99.133,13.322 99.789,13.057 100.444,12.528 L101.263,14.027 C100.444,14.733 99.625,14.998 98.478,14.998 C95.939,14.998 94.301,13.145 94.301,10.587 C94.301,8.029 95.939,6.177 98.478,6.177 C99.625,6.177 100.444,6.441 101.263,7.147 L100.444,8.646 C99.789,8.117 99.133,7.853 98.396,7.853 C97.004,7.941 96.021,8.999 96.021,10.587 C96.021,12.263 97.004,13.322 98.396,13.322 ZM92.172,7.853 C91.107,7.853 90.534,8.646 90.534,10.058 L90.534,14.821 L88.814,14.821 L88.814,6.353 L90.534,6.353 L90.534,7.412 C90.943,6.706 91.598,6.177 92.581,6.177 C92.909,6.177 93.400,6.177 93.728,6.265 L93.236,8.029 C92.909,7.941 92.499,7.853 92.172,7.853 ZM83.490,13.410 C84.309,13.410 85.128,13.057 85.783,12.528 L86.602,13.851 C85.701,14.645 84.555,14.998 83.408,14.998 C81.033,14.998 79.395,13.233 79.395,10.587 C79.395,7.941 81.033,6.177 83.326,6.177 C85.537,6.177 87.012,7.941 86.930,10.675 L86.930,11.381 L81.115,11.381 C81.361,12.880 82.425,13.410 83.490,13.410 ZM85.292,9.793 C85.128,8.470 84.391,7.764 83.326,7.764 C82.098,7.764 81.361,8.646 81.197,9.793 L85.292,9.793 ZM76.364,13.233 C76.774,13.233 77.347,13.145 77.839,12.792 L78.330,14.380 C77.757,14.733 76.938,14.998 76.201,14.998 C74.235,14.998 73.498,13.851 73.498,11.910 L73.498,8.029 L71.942,8.029 L71.942,6.353 L73.498,6.353 L73.498,3.795 L75.218,3.795 L75.218,6.353 L78.002,6.353 L78.002,8.029 L75.218,8.029 L75.218,11.822 C75.218,12.704 75.545,13.233 76.364,13.233 ZM67.191,9.617 L68.010,9.705 C69.648,9.970 70.713,10.763 70.713,12.263 C70.713,13.851 69.403,14.998 67.109,14.998 C65.881,14.998 64.652,14.645 63.751,13.939 L64.570,12.528 C65.144,12.969 66.045,13.410 67.191,13.410 C68.338,13.410 68.993,12.969 68.993,12.351 C68.993,11.910 68.502,11.646 67.601,11.469 L66.782,11.381 C65.062,11.116 64.079,10.322 64.079,8.911 C64.079,7.235 65.389,6.177 67.355,6.177 C68.584,6.177 69.730,6.441 70.549,7.059 L69.812,8.558 C69.321,8.294 68.338,7.853 67.355,7.853 C66.454,7.853 65.881,8.205 65.881,8.823 C65.881,9.352 66.454,9.529 67.191,9.617 ZM60.475,13.763 C59.984,14.556 59.165,14.998 58.018,14.998 C55.807,14.998 54.087,13.145 54.087,10.587 C54.087,8.029 55.807,6.177 58.018,6.177 C59.083,6.177 59.902,6.618 60.475,7.412 L60.475,6.353 L62.195,6.353 L62.195,10.587 L62.195,14.821 L60.475,14.821 L60.475,13.763 ZM58.182,7.853 C56.708,7.853 55.807,9.088 55.807,10.587 C55.807,12.087 56.708,13.233 58.182,13.322 C59.574,13.322 60.557,12.087 60.557,10.587 C60.557,8.999 59.574,7.853 58.182,7.853 ZM50.647,10.146 C50.647,8.735 50.073,7.941 48.927,7.941 C47.862,7.941 47.043,8.646 47.043,10.146 L47.043,14.821 L45.323,14.821 L45.323,10.146 C45.323,8.735 44.750,7.941 43.603,7.941 C42.456,7.941 41.719,8.646 41.719,10.146 L41.719,14.821 L39.999,14.821 L39.999,6.353 L41.719,6.353 L41.719,7.412 C42.375,6.441 43.194,6.177 44.013,6.177 C45.241,6.177 46.060,6.706 46.634,7.676 C47.371,6.530 48.435,6.177 49.418,6.177 C51.384,6.177 52.530,7.500 52.530,9.529 L52.530,14.821 L50.647,14.821 L50.647,10.146 ZM22.111,20.000 C19.804,20.000 17.689,19.194 16.014,17.861 L15.986,17.861 C14.311,19.194 12.196,20.000 9.888,20.000 C4.422,20.000 0.000,15.528 0.000,10.000 C0.000,4.472 4.422,-0.000 9.888,-0.000 C12.196,-0.000 14.311,0.805 15.986,2.139 L16.014,2.139 C17.689,0.805 19.804,-0.000 22.111,-0.000 C27.578,-0.000 32.000,4.500 32.000,10.000 C32.000,15.528 27.578,20.000 22.111,20.000 Z"/>
</svg>