<svg 
 xmlns="http://www.w3.org/2000/svg"
 xmlns:xlink="http://www.w3.org/1999/xlink"
 width="110px" height="12px">
<path fill-rule="evenodd"  fill="rgb(191, 196, 210)"
 d="M92.911,0.038 L92.911,11.969 L97.190,11.969 L97.190,7.700 L98.621,7.700 L103.839,11.969 L109.998,11.969 L102.675,6.073 L109.535,-0.003 L103.489,-0.003 L98.663,4.224 L97.036,4.224 L97.036,0.066 L92.911,0.038 L92.911,0.038 ZM9.595,0.066 L12.583,0.066 L19.065,11.997 L14.519,11.997 L13.397,9.981 L9.595,9.981 L5.864,9.981 L4.741,11.955 L-0.000,11.955 L6.635,0.066 L9.595,0.066 L9.595,0.066 ZM9.595,6.935 L11.615,6.935 L9.595,3.431 L9.581,3.403 L7.575,6.935 L9.595,6.935 L9.595,6.935 ZM19.696,0.038 L19.696,11.969 L23.988,11.969 L23.988,7.700 L25.420,7.700 L30.638,11.969 L36.797,11.969 L29.460,6.073 L36.334,-0.003 L30.287,-0.003 L25.462,4.224 L23.820,4.224 L23.820,0.066 L19.696,0.038 L19.696,0.038 ZM45.060,0.038 C46.687,0.038 48.314,0.038 49.942,0.038 C50.671,0.038 52.046,0.692 52.509,2.096 C52.888,3.278 52.621,5.225 51.597,5.934 C52.340,6.240 52.846,7.394 52.916,8.590 L52.916,9.063 C52.901,9.272 52.873,9.480 52.831,9.675 C52.565,10.996 51.513,11.997 50.671,11.997 C48.791,11.997 46.925,11.997 45.060,11.997 C42.590,11.997 40.122,11.997 37.666,11.997 C37.652,8.020 37.652,4.029 37.638,0.038 C40.108,0.038 42.590,0.038 45.060,0.038 L45.060,0.038 ZM45.060,8.674 L48.104,8.674 C48.469,8.674 48.777,8.382 48.777,8.034 C48.777,7.686 48.469,7.408 48.104,7.408 L45.060,7.408 L41.524,7.422 L41.524,8.674 L45.060,8.674 L45.060,8.674 ZM45.060,4.377 L47.936,4.377 C48.300,4.377 48.595,4.085 48.595,3.737 C48.595,3.389 48.300,3.098 47.936,3.098 L45.060,3.111 L41.524,3.125 L41.524,4.377 L45.060,4.377 L45.060,4.377 ZM73.229,0.066 L73.229,11.955 L77.564,11.955 L77.564,3.946 L83.694,11.969 L90.414,11.969 L90.414,0.066 L86.135,0.066 L86.135,8.396 L79.878,0.038 L73.229,0.066 L73.229,0.066 ZM63.044,0.066 L66.032,0.066 L72.514,11.997 L67.982,11.997 L66.846,9.981 L63.044,9.981 L59.312,9.981 L58.190,11.955 L53.449,11.955 L60.084,0.066 L63.044,0.066 L63.044,0.066 ZM63.044,6.935 L65.078,6.935 L63.044,3.431 L63.030,3.403 L61.024,6.935 L63.044,6.935 L63.044,6.935 Z"/>
</svg>