<svg 
 xmlns="http://www.w3.org/2000/svg"
 xmlns:xlink="http://www.w3.org/1999/xlink"
 width="86px" height="20px">
<path fill-rule="evenodd"  fill="rgb(191, 196, 210)"
 d="M77.804,15.859 L77.804,0.668 L80.761,0.668 L80.761,12.944 L84.261,12.944 L86.000,15.859 L77.804,15.859 ZM75.501,11.537 C75.501,14.756 72.680,16.063 69.660,16.063 C65.689,16.063 63.711,13.382 63.711,13.382 L65.778,11.501 C65.778,11.501 67.360,13.219 69.840,13.219 C72.320,13.219 72.536,11.935 72.536,11.537 C72.536,11.358 72.753,9.893 69.042,9.296 C64.414,8.283 64.340,6.154 64.340,4.972 C64.340,2.567 66.120,0.397 69.570,0.397 C73.093,0.397 75.160,2.712 75.160,2.712 L73.057,4.737 C73.057,4.737 71.709,3.200 69.553,3.200 C67.486,3.200 67.270,4.339 67.270,4.701 C67.270,5.063 67.090,5.769 70.505,6.654 C73.920,7.539 75.501,8.318 75.501,11.537 ZM63.011,11.537 C63.011,14.756 60.189,16.063 57.170,16.063 C53.198,16.063 51.221,13.382 51.221,13.382 L53.288,11.501 C53.288,11.501 54.869,13.219 57.349,13.219 C59.830,13.219 60.045,11.935 60.045,11.537 C60.045,11.358 60.262,9.893 56.551,9.296 C51.923,8.283 51.850,6.154 51.850,4.972 C51.850,2.567 53.629,0.397 57.080,0.397 C60.602,0.397 62.669,2.712 62.669,2.712 L60.566,4.737 C60.566,4.737 59.219,3.200 57.062,3.200 C54.995,3.200 54.779,4.339 54.779,4.701 C54.779,5.063 54.600,5.769 58.014,6.654 C61.429,7.539 63.011,8.318 63.011,11.537 ZM46.868,15.262 L46.692,15.190 C46.692,15.190 45.757,16.063 44.283,16.063 C42.235,16.063 39.952,14.846 39.952,10.018 C39.952,5.189 42.720,4.177 44.301,4.177 C45.883,4.177 46.868,5.117 46.868,5.117 L46.868,4.990 L46.868,1.464 L49.694,-0.001 L49.694,15.859 L46.868,15.859 L46.868,15.262 ZM46.868,7.992 C46.868,7.992 46.243,6.907 44.769,6.907 C43.295,6.907 42.828,8.318 42.828,10.310 C42.828,12.303 43.834,13.399 44.949,13.399 C46.063,13.399 46.868,12.296 46.868,12.296 L46.868,7.992 ZM37.005,3.327 C36.112,3.327 35.387,2.598 35.387,1.699 C35.387,0.800 36.112,0.071 37.005,0.071 C37.898,0.071 38.622,0.800 38.622,1.699 C38.622,2.598 37.898,3.327 37.005,3.327 ZM29.744,16.063 C27.929,16.063 27.236,15.190 27.236,15.190 L27.236,18.481 L24.350,20.000 L24.350,4.455 L27.236,4.455 L27.236,5.099 C27.236,5.099 28.378,4.177 29.672,4.177 C30.966,4.177 34.021,4.918 34.021,9.963 C34.021,15.009 31.559,16.063 29.744,16.063 ZM29.061,6.925 C27.775,6.925 27.236,7.974 27.236,7.974 L27.236,12.296 C27.236,12.296 27.875,13.382 29.295,13.382 C30.715,13.382 31.164,11.796 31.164,10.310 C31.164,8.824 30.886,6.925 29.061,6.925 ZM19.646,15.139 C19.646,15.118 18.105,16.063 17.104,16.063 C16.102,16.063 12.859,15.643 12.859,12.116 C12.859,8.588 16.186,8.295 17.500,8.295 C18.815,8.295 19.646,8.672 19.646,8.672 C19.646,8.672 19.646,8.358 19.646,8.085 C19.646,7.812 19.646,6.552 17.980,6.552 C15.601,6.552 14.959,7.245 14.959,7.245 L14.959,4.704 C14.959,4.704 15.873,4.201 17.980,4.201 C22.404,4.201 22.457,7.539 22.457,7.539 L22.457,15.859 L19.646,15.859 C19.646,15.859 19.646,15.160 19.646,15.139 ZM19.646,11.089 C19.646,11.089 19.200,10.532 17.770,10.532 C16.340,10.532 15.628,10.893 15.628,12.016 C15.628,13.139 16.557,13.613 17.470,13.613 C18.384,13.613 19.380,12.973 19.646,12.498 C19.646,11.956 19.646,11.089 19.646,11.089 ZM9.362,10.100 C9.404,10.226 12.200,15.859 12.200,15.859 L8.820,15.859 L6.170,10.520 C6.170,10.520 6.058,10.398 5.974,10.398 C5.905,10.398 3.629,10.398 3.004,10.398 C2.857,10.398 2.876,10.449 2.876,10.478 C2.876,10.646 2.876,15.859 2.876,15.859 L0.000,15.859 L0.000,0.668 L7.547,0.668 C7.547,0.668 9.605,0.812 10.972,2.049 C11.803,2.802 12.221,4.197 12.221,5.523 C12.221,9.029 9.550,9.785 9.446,9.848 C9.342,9.911 9.321,9.974 9.362,10.100 ZM7.422,3.508 C6.212,3.508 2.876,3.487 2.876,3.487 L2.876,3.634 L2.876,7.539 C2.876,7.539 6.546,7.539 7.380,7.539 C8.215,7.539 9.175,6.844 9.175,5.649 C9.175,4.455 8.632,3.508 7.422,3.508 ZM38.455,15.859 L35.585,15.859 L35.585,4.455 L38.455,4.455 L38.455,15.859 Z"/>
</svg>