<svg 
 xmlns="http://www.w3.org/2000/svg"
 xmlns:xlink="http://www.w3.org/1999/xlink"
 width="62px" height="20px">
<path fill-rule="evenodd"  fill="rgb(191, 196, 210)"
 d="M57.354,19.668 L56.760,16.797 L50.329,16.797 L49.274,19.668 L44.000,19.668 L51.545,1.779 C51.545,1.779 52.003,0.338 53.881,0.338 L57.948,0.338 L61.999,19.668 L57.354,19.668 ZM54.445,5.596 L51.786,12.830 L55.940,12.830 L54.445,5.596 ZM37.304,5.704 C37.304,7.889 44.364,8.357 44.364,13.383 C44.364,18.222 39.155,20.000 35.703,20.000 C32.251,20.000 29.992,18.908 29.992,18.908 L30.745,14.569 C32.816,16.223 39.092,16.692 39.092,14.070 C39.092,11.447 32.095,11.385 32.095,6.391 C32.095,1.084 38.057,-0.008 40.567,-0.008 C42.890,-0.008 45.118,0.835 45.118,0.835 L44.396,4.986 C42.231,3.800 37.304,3.519 37.304,5.704 ZM21.816,19.668 L24.978,0.338 L30.037,0.338 L26.875,19.668 L21.816,19.668 ZM9.684,19.668 L5.289,2.877 C5.266,2.864 5.244,2.851 5.221,2.838 C4.899,2.647 4.582,2.469 4.274,2.308 C4.258,2.300 4.242,2.291 4.227,2.283 C3.908,2.118 3.600,1.968 3.302,1.832 C3.267,1.816 3.233,1.800 3.198,1.785 C2.608,1.518 2.071,1.308 1.612,1.145 C1.588,1.137 1.563,1.128 1.539,1.119 C1.315,1.041 1.109,0.974 0.928,0.918 C0.916,0.914 0.905,0.911 0.893,0.907 C0.720,0.854 0.567,0.810 0.440,0.776 C0.432,0.773 0.421,0.770 0.412,0.768 C0.287,0.734 0.189,0.710 0.119,0.693 C0.105,0.690 0.091,0.687 0.080,0.684 C0.038,0.674 -0.004,0.665 -0.004,0.665 L0.090,0.338 L8.063,0.338 C10.258,0.338 10.463,2.079 10.463,2.079 L12.166,10.771 L12.165,10.770 L12.736,13.633 L17.559,0.338 L23.005,0.338 L14.955,19.668 L9.684,19.668 Z"/>
</svg>