<svg 
 xmlns="http://www.w3.org/2000/svg"
 xmlns:xlink="http://www.w3.org/1999/xlink"
 width="104px" height="20px">
<path fill-rule="evenodd"  fill="rgb(191, 196, 210)"
 d="M102.426,13.741 L102.426,6.973 L104.000,6.972 L104.000,13.741 L102.426,13.741 ZM98.867,9.652 C100.109,9.952 101.255,10.321 101.227,11.726 C101.199,13.131 100.032,13.867 98.108,13.867 C96.183,13.867 95.085,12.667 95.085,12.667 L96.244,11.739 C96.990,12.489 97.727,12.504 98.052,12.530 C98.378,12.557 99.466,12.504 99.598,11.985 C99.731,11.466 99.419,11.166 97.859,10.866 C96.299,10.566 95.361,10.075 95.361,8.889 C95.361,7.702 96.534,6.856 98.232,6.856 C99.930,6.856 101.048,7.934 101.048,7.934 L99.888,8.916 C99.874,8.738 98.977,8.193 98.232,8.193 C97.486,8.193 97.031,8.357 97.031,8.807 C97.031,9.257 97.597,9.393 97.597,9.393 L98.867,9.652 ZM93.403,13.740 L92.795,12.247 L89.918,12.247 L89.293,13.740 L86.415,13.740 L84.280,10.505 L83.031,11.764 L83.031,13.740 L81.436,13.740 L81.436,6.961 L81.436,6.961 L83.031,6.961 L83.031,9.929 L85.841,6.969 L87.782,6.969 L85.411,9.329 L87.901,13.098 L90.643,6.960 L92.171,6.960 L95.158,13.740 L93.403,13.740 ZM91.376,8.680 L90.448,10.988 L92.305,10.988 L91.376,8.680 ZM75.167,9.394 L75.167,13.763 L73.614,13.763 L73.614,6.955 L75.080,6.958 L78.392,11.283 L78.392,6.972 L79.996,6.972 L79.996,13.755 L78.566,13.755 L75.167,9.394 ZM70.563,12.245 L67.717,12.245 L67.085,13.727 L65.401,13.727 L68.411,6.972 L69.982,6.972 L72.971,13.747 L71.206,13.747 L70.563,12.245 ZM69.156,8.626 L68.227,10.934 L70.084,10.934 L69.156,8.626 ZM62.622,13.741 L58.792,13.741 L58.792,6.970 C58.792,6.970 61.123,6.978 62.472,6.978 C63.821,6.978 64.895,7.562 64.895,8.681 C64.895,9.800 63.987,10.088 64.012,10.088 C64.037,10.088 65.186,10.327 65.186,11.561 C65.186,13.732 62.622,13.741 62.622,13.741 ZM62.628,8.245 L60.332,8.245 L60.333,9.504 L62.672,9.504 C62.672,9.504 63.313,9.504 63.313,8.862 C63.313,8.862 63.376,8.245 62.628,8.245 ZM62.630,10.697 L60.341,10.697 L60.341,12.449 L62.664,12.449 C62.664,12.449 63.534,12.416 63.534,11.589 C63.534,10.762 62.630,10.697 62.630,10.697 ZM53.192,12.171 L53.192,14.314 C53.192,14.314 53.168,14.964 53.909,14.964 L53.909,15.253 L50.617,15.253 L50.617,14.940 C50.617,14.940 51.343,14.956 51.343,14.275 C51.343,13.595 51.343,11.124 51.343,11.124 L53.192,12.171 ZM52.919,17.052 C52.919,17.052 53.527,17.357 53.527,18.100 C53.527,18.843 52.700,19.992 52.341,20.000 L52.131,20.000 C52.131,20.000 52.099,19.961 52.209,19.836 C52.318,19.711 52.825,19.101 52.700,18.749 C52.700,18.749 52.405,18.880 52.112,18.880 C51.819,18.880 51.254,18.627 51.254,17.959 C51.254,17.291 51.758,17.018 51.940,17.018 C51.940,17.018 51.658,16.988 50.759,16.664 C49.860,16.340 49.164,16.026 48.709,16.805 L48.467,16.805 L48.467,13.485 L48.760,13.485 C48.760,13.485 49.426,16.643 52.687,16.643 C54.949,16.633 55.221,14.761 55.221,14.417 C55.221,14.072 55.222,13.020 53.535,12.058 C51.849,11.097 50.234,10.216 50.234,10.216 C50.234,10.216 48.346,9.336 48.346,7.251 C48.346,5.166 50.253,4.202 51.132,4.202 L51.132,4.586 C51.132,4.586 49.455,4.844 49.455,6.353 C49.455,6.353 49.322,7.550 51.351,8.582 L53.863,9.966 C53.863,9.966 55.672,10.787 56.226,12.250 C56.780,13.712 56.421,15.667 54.580,16.598 C53.831,16.981 53.160,17.020 52.919,17.052 ZM53.416,4.810 L53.416,4.373 C53.416,4.373 54.176,4.805 54.623,4.805 C55.070,4.805 55.237,4.378 55.237,4.378 L55.490,4.378 L55.490,7.505 L55.205,7.505 C55.097,5.507 53.416,4.810 53.416,4.810 ZM53.201,3.692 L53.201,9.288 L51.349,8.240 C51.349,8.240 51.349,4.369 51.349,3.717 C51.349,3.065 50.624,3.032 50.624,3.032 L50.624,2.759 L53.909,2.759 L53.909,3.031 C53.168,3.031 53.201,3.692 53.201,3.692 ZM52.265,2.054 C51.699,2.054 51.240,1.594 51.240,1.027 C51.240,0.460 51.699,-0.000 52.265,-0.000 C52.831,-0.000 53.289,0.460 53.289,1.027 C53.289,1.594 52.831,2.054 52.265,2.054 ZM40.489,6.953 L45.984,6.953 L45.984,8.327 L42.074,8.327 L42.074,9.499 L44.308,9.499 L44.308,10.794 L42.074,10.794 L42.074,12.405 L46.143,12.405 L46.143,13.745 L40.478,13.745 L40.489,6.953 ZM36.933,13.746 L35.371,13.746 L35.371,11.042 L32.373,6.964 L34.254,6.964 L36.169,9.814 L38.141,6.976 L39.965,6.976 L36.933,11.042 L36.933,13.746 ZM30.942,6.571 C30.456,6.571 30.062,6.181 30.062,5.701 C30.062,5.221 30.456,4.832 30.942,4.832 C31.428,4.832 31.822,5.221 31.822,5.701 C31.822,6.181 31.428,6.571 30.942,6.571 ZM27.397,13.744 L25.255,10.483 L24.006,11.717 L24.006,13.744 L22.433,13.744 L22.433,6.961 L24.006,6.961 L24.006,9.871 L26.778,6.961 L28.686,6.961 L26.402,9.299 L29.275,13.744 L27.397,13.744 ZM19.442,13.738 L18.019,11.312 L16.415,11.312 L16.415,13.737 L14.868,13.737 L14.868,6.963 C14.868,6.963 17.775,6.964 18.822,6.964 C19.869,6.964 21.215,7.571 21.215,9.170 C21.215,10.768 19.725,11.127 19.725,11.127 L21.246,13.738 L19.442,13.738 ZM18.661,8.266 L16.418,8.266 L16.418,10.068 L18.700,10.068 C18.700,10.068 19.603,10.035 19.603,9.153 C19.603,8.272 18.661,8.266 18.661,8.266 ZM10.351,13.837 C7.088,13.837 7.094,11.152 7.094,10.807 C7.094,10.462 7.094,6.964 7.094,6.964 L8.695,6.964 L8.695,10.976 C8.695,10.976 8.739,12.537 10.274,12.537 C11.808,12.537 11.908,10.971 11.908,10.971 L11.908,6.969 L13.493,6.969 L13.493,10.801 C13.493,10.801 13.614,13.837 10.351,13.837 ZM11.531,6.555 C11.045,6.555 10.651,6.166 10.651,5.686 C10.651,5.206 11.045,4.817 11.531,4.817 C12.017,4.817 12.411,5.206 12.411,5.686 C12.411,6.166 12.017,6.555 11.531,6.555 ZM9.098,6.555 C8.613,6.555 8.219,6.166 8.219,5.686 C8.219,5.206 8.613,4.817 9.098,4.817 C9.584,4.817 9.978,5.206 9.978,5.686 C9.978,6.166 9.584,6.555 9.098,6.555 ZM3.886,13.741 L2.230,13.741 L2.230,8.376 L0.000,8.376 L0.000,6.961 L6.174,6.961 L6.174,8.371 L3.886,8.371 L3.886,13.741 ZM31.743,13.741 L30.129,13.741 L30.129,6.981 L31.743,6.981 L31.743,13.741 Z"/>
</svg>