<svg 
 xmlns="http://www.w3.org/2000/svg"
 xmlns:xlink="http://www.w3.org/1999/xlink"
 width="68px" height="20px">
<path fill-rule="evenodd"  fill="rgb(191, 196, 210)"
 d="M68.000,19.836 C67.675,20.042 66.960,19.919 66.861,19.759 L65.426,17.456 L64.519,18.426 L64.519,19.836 L63.572,19.836 L63.572,14.921 L64.519,14.921 L64.519,17.180 L66.631,14.921 L67.797,14.921 L66.083,16.754 L68.000,19.836 ZM61.910,19.599 L59.558,16.180 L59.558,19.836 L58.633,19.836 L58.633,14.921 L59.127,14.921 C59.371,14.921 59.797,14.980 59.978,15.225 L62.049,18.362 L62.049,14.921 L62.906,14.921 L62.906,19.836 L62.371,19.836 C62.127,19.836 62.015,19.707 61.910,19.599 ZM57.194,19.559 L56.788,18.511 L55.876,18.511 L54.881,18.511 L54.361,19.854 L53.446,19.854 L54.661,16.718 L55.388,14.921 L56.363,14.921 L57.090,16.718 L58.305,19.854 L57.664,19.854 C57.434,19.854 57.231,19.665 57.194,19.559 ZM55.844,16.059 L55.183,17.734 L56.480,17.734 L55.844,16.059 ZM55.010,5.978 C57.851,6.887 56.865,11.126 53.329,11.126 L47.222,11.126 L47.222,5.864 L47.222,0.850 L52.998,0.850 C55.522,0.850 57.102,3.413 55.569,5.192 C55.349,5.447 55.141,5.643 54.861,5.755 C54.501,5.901 54.782,5.905 55.010,5.978 ZM52.847,5.192 C53.655,5.192 54.315,4.545 54.315,3.755 L54.315,3.634 C54.315,2.910 53.710,2.318 52.971,2.318 L49.006,2.318 L49.006,5.192 L49.006,6.723 L49.006,7.311 L49.006,9.598 L53.351,9.598 C54.159,9.598 54.819,8.951 54.819,8.161 L54.819,8.039 C54.819,7.275 53.782,6.723 52.995,6.723 L50.807,6.723 C50.083,6.723 49.627,6.114 49.627,5.192 L52.847,5.192 ZM48.370,16.095 C47.646,15.464 46.970,15.558 46.970,15.558 C46.970,15.558 46.062,15.511 46.055,16.182 C46.042,17.267 48.751,16.627 48.757,18.472 C48.760,19.272 48.030,20.004 46.754,20.004 C45.478,20.004 44.834,19.282 44.834,19.282 L45.393,18.634 C46.116,19.265 46.747,19.198 46.747,19.198 C46.747,19.198 47.756,19.231 47.756,18.560 C47.756,17.888 46.658,17.714 46.658,17.714 C45.489,17.407 45.040,16.982 45.040,16.182 C45.040,15.383 45.650,14.785 46.926,14.785 C47.388,14.758 49.117,15.049 48.370,16.095 ZM43.457,10.631 L37.781,3.483 L37.781,11.126 L36.066,11.126 L36.066,0.850 L37.150,0.850 C37.686,0.850 38.161,1.170 38.391,1.396 L43.756,8.245 L43.756,0.850 L45.449,0.850 L45.449,11.126 L44.387,11.126 C43.851,11.126 43.688,10.856 43.457,10.631 ZM36.965,14.921 L37.940,14.921 L38.667,16.718 L39.882,19.854 L39.241,19.854 C39.011,19.854 38.807,19.665 38.770,19.559 L38.364,18.511 L37.452,18.511 L36.458,18.511 L35.938,19.854 L35.023,19.854 L36.238,16.718 L36.965,14.921 ZM38.056,17.734 L37.421,16.059 L36.759,17.734 L38.056,17.734 ZM33.649,19.599 L31.297,16.180 L31.297,19.836 L30.372,19.836 L30.372,14.921 L30.866,14.921 C31.110,14.921 31.536,14.980 31.717,15.225 L33.788,18.362 L33.788,14.921 L34.645,14.921 L34.645,19.836 L34.110,19.836 C33.866,19.836 33.754,19.707 33.649,19.599 ZM34.550,11.132 C34.550,11.132 34.042,11.589 33.383,11.589 C32.725,11.589 32.293,11.153 32.293,11.153 L31.891,10.751 C31.113,11.174 30.196,11.415 29.172,11.415 C25.925,11.415 23.739,8.995 23.739,6.008 C23.739,3.023 25.883,0.602 29.172,0.602 C32.461,0.602 34.605,3.023 34.605,6.008 C34.605,7.468 34.082,8.792 33.169,9.765 L34.550,11.132 ZM29.172,2.049 C27.041,2.049 25.619,3.720 25.619,6.008 C25.619,8.277 27.061,9.968 29.172,9.968 C29.752,9.968 30.282,9.840 30.745,9.608 L28.788,7.654 C30.118,6.666 31.106,7.721 31.106,7.721 L31.959,8.565 C32.448,7.887 32.725,7.003 32.725,6.008 C32.725,3.720 31.303,2.049 29.172,2.049 ZM20.233,11.325 L16.191,11.325 L19.298,14.367 L19.177,14.611 C18.853,15.265 18.413,15.872 17.942,16.432 L17.670,16.755 L11.936,11.142 C11.619,10.831 11.443,10.411 11.443,9.971 C11.443,9.532 11.619,9.112 11.936,8.801 L17.670,3.187 L17.942,3.510 C18.413,4.070 18.853,4.678 19.177,5.331 L19.298,5.575 L16.191,8.618 L20.233,8.618 L20.289,8.935 C20.348,9.277 20.377,9.624 20.377,9.971 C20.377,10.319 20.348,10.665 20.289,11.008 L20.233,11.325 ZM10.189,8.744 C9.740,8.744 9.311,8.571 8.993,8.260 L3.260,2.647 L3.590,2.380 C4.162,1.919 4.782,1.488 5.450,1.170 L5.699,1.052 L8.807,4.095 L8.807,0.137 L9.130,0.083 C9.480,0.024 9.834,-0.004 10.189,-0.004 C10.544,-0.004 10.897,0.024 11.247,0.083 L11.571,0.137 L11.571,4.095 L14.679,1.052 L14.928,1.170 C15.595,1.488 16.216,1.919 16.787,2.380 L17.118,2.647 L11.384,8.260 C11.067,8.571 10.638,8.744 10.189,8.744 ZM8.935,9.971 C8.935,10.411 8.759,10.831 8.441,11.142 L2.708,16.755 L2.435,16.432 C1.964,15.872 1.524,15.265 1.200,14.611 L1.079,14.367 L4.187,11.325 L0.144,11.325 L0.089,11.008 C0.029,10.665 0.000,10.319 0.000,9.971 C0.000,9.624 0.029,9.277 0.089,8.935 L0.144,8.618 L4.187,8.618 L1.079,5.575 L1.200,5.331 C1.524,4.678 1.964,4.070 2.435,3.510 L2.708,3.187 L8.441,8.801 C8.759,9.112 8.935,9.532 8.935,9.971 ZM10.189,11.199 C10.638,11.199 11.067,11.371 11.384,11.682 L17.118,17.296 L16.787,17.562 C16.216,18.024 15.595,18.455 14.928,18.772 L14.679,18.890 L11.571,15.848 L11.571,19.806 L11.247,19.860 C10.897,19.918 10.544,19.947 10.189,19.947 C9.834,19.947 9.480,19.918 9.130,19.860 L8.807,19.806 L8.807,15.848 L5.699,18.890 L5.450,18.772 C4.782,18.455 4.162,18.024 3.590,17.562 L3.260,17.296 L8.993,11.682 C9.311,11.371 9.740,11.199 10.189,11.199 ZM29.670,13.686 C29.670,14.073 29.421,14.384 28.916,14.384 L25.294,14.384 L25.294,16.157 L28.007,16.157 L28.007,17.110 L25.294,17.110 L25.294,19.836 L24.155,19.836 L24.155,13.431 L29.670,13.431 L29.670,13.686 ZM29.670,19.836 L29.528,19.836 C29.102,19.836 28.765,19.474 28.765,19.235 L28.765,15.552 L28.765,14.920 L29.670,14.920 L29.670,19.836 ZM41.512,15.225 L43.584,18.362 L43.584,14.921 L44.441,14.921 L44.441,19.836 L43.906,19.836 C43.661,19.836 43.549,19.707 43.444,19.599 L41.093,16.180 L41.093,19.836 L40.168,19.836 L40.168,14.921 L40.661,14.921 C40.905,14.921 41.332,14.980 41.512,15.225 ZM52.948,16.997 C52.843,17.120 52.745,17.213 52.612,17.267 C52.441,17.336 52.574,17.339 52.683,17.374 C54.031,17.808 53.563,19.836 51.884,19.836 L49.150,19.836 L49.150,17.319 L49.150,14.921 L51.727,14.921 C52.926,14.921 53.676,16.147 52.948,16.997 ZM49.997,15.623 L49.997,16.998 L49.997,17.730 L49.997,18.011 L49.997,19.105 L51.895,19.105 C52.278,19.105 52.592,18.796 52.592,18.418 L52.592,18.360 C52.592,17.994 52.100,17.730 51.726,17.730 L50.852,17.730 C50.508,17.730 50.291,17.439 50.291,16.998 L51.656,16.998 C52.039,16.998 52.353,16.688 52.353,16.310 L52.353,16.252 C52.353,15.906 52.065,15.623 51.714,15.623 L49.997,15.623 Z"/>
</svg>