<svg 
 xmlns="http://www.w3.org/2000/svg"
 xmlns:xlink="http://www.w3.org/1999/xlink"
 width="1920px" height="200px">
<defs>
<linearGradient id="PSgrad_0" x1="0%" x2="100%" y1="0%" y2="0%">
  <stop offset="0%" stop-color="rgb(154,133,239)" stop-opacity="1" />
  <stop offset="49%" stop-color="rgb(23,29,51)" stop-opacity="1" />
  <stop offset="100%" stop-color="rgb(254,133,193)" stop-opacity="1" />
</linearGradient>

</defs>
<path fill-rule="evenodd"  opacity="0.2" fill="url(#PSgrad_0)"
 d="M1917.545,200.001 L1917.545,124.997 L1919.999,124.997 L1919.999,200.001 L1917.545,200.001 ZM1910.202,86.260 L1912.656,86.260 L1912.656,200.001 L1910.202,200.001 L1910.202,86.260 ZM1902.859,64.888 L1905.314,64.888 L1905.314,200.001 L1902.859,200.001 L1902.859,64.888 ZM1895.517,54.283 L1897.972,54.283 L1897.972,200.001 L1895.517,200.001 L1895.517,54.283 ZM1888.175,43.533 L1890.629,43.533 L1890.629,200.001 L1888.175,200.001 L1888.175,43.533 ZM1880.831,33.033 L1883.286,33.033 L1883.286,200.001 L1880.831,200.001 L1880.831,33.033 ZM1873.490,16.800 L1875.944,16.800 L1875.944,200.001 L1873.490,200.001 L1873.490,16.800 ZM1866.147,23.484 L1868.601,23.484 L1868.601,200.001 L1866.147,200.001 L1866.147,23.484 ZM1858.804,54.283 L1861.259,54.283 L1861.259,200.001 L1858.804,200.001 L1858.804,54.283 ZM1851.461,66.260 L1853.915,66.260 L1853.915,200.001 L1851.461,200.001 L1851.461,66.260 ZM1844.119,81.000 L1846.574,81.000 L1846.574,200.001 L1844.119,200.001 L1844.119,81.000 ZM1836.777,57.062 L1839.231,57.062 L1839.231,200.001 L1836.777,200.001 L1836.777,57.062 ZM1829.433,70.021 L1831.888,70.021 L1831.888,200.001 L1829.433,200.001 L1829.433,70.021 ZM1822.091,48.467 L1824.545,48.467 L1824.545,200.001 L1822.091,200.001 L1822.091,48.467 ZM1814.749,55.985 L1817.203,55.985 L1817.203,200.001 L1814.749,200.001 L1814.749,55.985 ZM1807.406,72.532 L1809.860,72.532 L1809.860,200.001 L1807.406,200.001 L1807.406,72.532 ZM1800.063,68.664 L1802.517,68.664 L1802.517,200.001 L1800.063,200.001 L1800.063,68.664 ZM1792.720,72.526 L1795.175,72.526 L1795.175,200.001 L1792.720,200.001 L1792.720,72.526 ZM1785.378,52.477 L1787.833,52.477 L1787.833,200.001 L1785.378,200.001 L1785.378,52.477 ZM1778.036,77.988 L1780.490,77.988 L1780.490,200.001 L1778.036,200.001 L1778.036,77.988 ZM1770.693,81.000 L1773.147,81.000 L1773.147,200.001 L1770.693,200.001 L1770.693,81.000 ZM1763.351,75.260 L1765.806,75.260 L1765.806,200.001 L1763.351,200.001 L1763.351,75.260 ZM1756.008,67.990 L1758.462,67.990 L1758.462,200.001 L1756.008,200.001 L1756.008,67.990 ZM1748.210,86.260 L1750.664,86.260 L1750.664,200.001 L1748.210,200.001 L1748.210,86.260 ZM1740.867,64.888 L1743.321,64.888 L1743.321,200.001 L1740.867,200.001 L1740.867,64.888 ZM1733.525,54.283 L1735.980,54.283 L1735.980,200.001 L1733.525,200.001 L1733.525,54.283 ZM1726.182,43.533 L1728.636,43.533 L1728.636,200.001 L1726.182,200.001 L1726.182,43.533 ZM1718.839,33.033 L1721.294,33.033 L1721.294,200.001 L1718.839,200.001 L1718.839,33.033 ZM1711.497,16.800 L1713.952,16.800 L1713.952,200.001 L1711.497,200.001 L1711.497,16.800 ZM1704.155,23.484 L1706.609,23.484 L1706.609,200.001 L1704.155,200.001 L1704.155,23.484 ZM1696.812,54.283 L1699.266,54.283 L1699.266,200.001 L1696.812,200.001 L1696.812,54.283 ZM1689.469,66.260 L1691.923,66.260 L1691.923,200.001 L1689.469,200.001 L1689.469,66.260 ZM1682.127,81.000 L1684.581,81.000 L1684.581,200.001 L1682.127,200.001 L1682.127,81.000 ZM1674.784,57.062 L1677.239,57.062 L1677.239,200.001 L1674.784,200.001 L1674.784,57.062 ZM1667.441,70.021 L1669.896,70.021 L1669.896,200.001 L1667.441,200.001 L1667.441,70.021 ZM1660.098,48.467 L1662.553,48.467 L1662.553,200.001 L1660.098,200.001 L1660.098,48.467 ZM1652.757,55.985 L1655.211,55.985 L1655.211,200.001 L1652.757,200.001 L1652.757,55.985 ZM1645.414,72.532 L1647.868,72.532 L1647.868,200.001 L1645.414,200.001 L1645.414,72.532 ZM1638.071,68.664 L1640.525,68.664 L1640.525,200.001 L1638.071,200.001 L1638.071,68.664 ZM1630.728,72.526 L1633.182,72.526 L1633.182,200.001 L1630.728,200.001 L1630.728,72.526 ZM1623.386,52.477 L1625.841,52.477 L1625.841,200.001 L1623.386,200.001 L1623.386,52.477 ZM1616.043,77.988 L1618.498,77.988 L1618.498,200.001 L1616.043,200.001 L1616.043,77.988 ZM1608.700,81.000 L1611.155,81.000 L1611.155,200.001 L1608.700,200.001 L1608.700,81.000 ZM1601.359,75.260 L1603.813,75.260 L1603.813,200.001 L1601.359,200.001 L1601.359,75.260 ZM1594.016,67.990 L1596.470,67.990 L1596.470,200.001 L1594.016,200.001 L1594.016,67.990 ZM1586.673,40.933 L1589.127,40.933 L1589.127,200.001 L1586.673,200.001 L1586.673,40.933 ZM1579.330,20.005 L1581.784,20.005 L1581.784,200.001 L1579.330,200.001 L1579.330,20.005 ZM1571.988,10.999 L1574.443,10.999 L1574.443,200.001 L1571.988,200.001 L1571.988,10.999 ZM1564.646,37.473 L1567.100,37.473 L1567.100,200.001 L1564.646,200.001 L1564.646,37.473 ZM1557.302,45.179 L1559.757,45.179 L1559.757,200.001 L1557.302,200.001 L1557.302,45.179 ZM1549.961,59.352 L1552.415,59.352 L1552.415,200.001 L1549.961,200.001 L1549.961,59.352 ZM1542.618,58.780 L1545.072,58.780 L1545.072,200.001 L1542.618,200.001 L1542.618,58.780 ZM1535.275,75.306 L1537.729,75.306 L1537.729,200.001 L1535.275,200.001 L1535.275,75.306 ZM1527.932,75.593 L1530.386,75.593 L1530.386,200.001 L1527.932,200.001 L1527.932,75.593 ZM1520.590,66.710 L1523.045,66.710 L1523.045,200.001 L1520.590,200.001 L1520.590,66.710 ZM1513.247,93.329 L1515.702,93.329 L1515.702,200.001 L1513.247,200.001 L1513.247,93.329 ZM1505.904,68.289 L1508.359,68.289 L1508.359,200.001 L1505.904,200.001 L1505.904,68.289 ZM1498.562,48.439 L1501.016,48.439 L1501.016,200.001 L1498.562,200.001 L1498.562,48.439 ZM1491.220,37.715 L1493.674,37.715 L1493.674,200.001 L1491.220,200.001 L1491.220,37.715 ZM1483.877,25.427 L1486.331,25.427 L1486.331,200.001 L1483.877,200.001 L1483.877,25.427 ZM1476.534,13.477 L1478.988,13.477 L1478.988,200.001 L1476.534,200.001 L1476.534,13.477 ZM1469.192,16.776 L1471.647,16.776 L1471.647,200.001 L1469.192,200.001 L1469.192,16.776 ZM1461.849,24.000 L1464.304,24.000 L1464.304,200.001 L1461.849,200.001 L1461.849,24.000 ZM1454.506,36.285 L1456.961,36.285 L1456.961,200.001 L1454.506,200.001 L1454.506,36.285 ZM1447.164,70.021 L1449.618,70.021 L1449.618,200.001 L1447.164,200.001 L1447.164,70.021 ZM1439.822,56.116 L1442.276,56.116 L1442.276,200.001 L1439.822,200.001 L1439.822,56.116 ZM1432.479,63.413 L1434.933,63.413 L1434.933,200.001 L1432.479,200.001 L1432.479,63.413 ZM1425.136,45.937 L1427.590,45.937 L1427.590,200.001 L1425.136,200.001 L1425.136,45.937 ZM1417.793,67.166 L1420.248,67.166 L1420.248,200.001 L1417.793,200.001 L1417.793,67.166 ZM1410.451,95.114 L1412.906,95.114 L1412.906,200.001 L1410.451,200.001 L1410.451,95.114 ZM1403.109,87.998 L1405.563,87.998 L1405.563,200.001 L1403.109,200.001 L1403.109,87.998 ZM1395.765,111.021 L1398.220,111.021 L1398.220,200.001 L1395.765,200.001 L1395.765,111.021 ZM1388.424,126.323 L1390.879,126.323 L1390.879,200.001 L1388.424,200.001 L1388.424,126.323 ZM1381.081,112.237 L1383.535,112.237 L1383.535,200.001 L1381.081,200.001 L1381.081,112.237 ZM1373.738,104.619 L1376.192,104.619 L1376.192,200.001 L1373.738,200.001 L1373.738,104.619 ZM1366.395,87.766 L1368.849,87.766 L1368.849,200.001 L1366.395,200.001 L1366.395,87.766 ZM1359.053,84.340 L1361.508,84.340 L1361.508,200.001 L1359.053,200.001 L1359.053,84.340 ZM1351.711,70.222 L1354.165,70.222 L1354.165,200.001 L1351.711,200.001 L1351.711,70.222 ZM1344.368,57.220 L1346.822,57.220 L1346.822,200.001 L1344.368,200.001 L1344.368,57.220 ZM1337.025,37.898 L1339.479,37.898 L1339.479,200.001 L1337.025,200.001 L1337.025,37.898 ZM1329.683,30.468 L1332.137,30.468 L1332.137,200.001 L1329.683,200.001 L1329.683,30.468 ZM1322.340,20.437 L1324.795,20.437 L1324.795,200.001 L1322.340,200.001 L1322.340,20.437 ZM1314.997,11.148 L1317.451,11.148 L1317.451,200.001 L1314.997,200.001 L1314.997,11.148 ZM1307.655,24.512 L1310.110,24.512 L1310.110,200.001 L1307.655,200.001 L1307.655,24.512 ZM1300.312,35.370 L1302.767,35.370 L1302.767,200.001 L1300.312,200.001 L1300.312,35.370 ZM1292.970,51.826 L1295.424,51.826 L1295.424,200.001 L1292.970,200.001 L1292.970,51.826 ZM1285.627,82.831 L1288.081,82.831 L1288.081,200.001 L1285.627,200.001 L1285.627,82.831 ZM1278.285,66.794 L1280.739,66.794 L1280.739,200.001 L1278.285,200.001 L1278.285,66.794 ZM1270.942,56.102 L1273.397,56.102 L1273.397,200.001 L1270.942,200.001 L1270.942,56.102 ZM1263.599,46.836 L1266.053,46.836 L1266.053,200.001 L1263.599,200.001 L1263.599,46.836 ZM1256.258,63.942 L1258.712,63.942 L1258.712,200.001 L1256.258,200.001 L1256.258,63.942 ZM1248.914,75.131 L1251.369,75.131 L1251.369,200.001 L1248.914,200.001 L1248.914,75.131 ZM1241.572,59.129 L1244.026,59.129 L1244.026,200.001 L1241.572,200.001 L1241.572,59.129 ZM1234.229,32.219 L1236.683,32.219 L1236.683,200.001 L1234.229,200.001 L1234.229,32.219 ZM1226.887,4.215 L1229.342,4.215 L1229.342,200.001 L1226.887,200.001 L1226.887,4.215 ZM1219.544,0.002 L1221.998,0.002 L1221.998,200.001 L1219.544,200.001 L1219.544,0.002 ZM1212.201,24.790 L1214.656,24.790 L1214.656,200.001 L1212.201,200.001 L1212.201,24.790 ZM1204.858,48.672 L1207.313,48.672 L1207.313,200.001 L1204.858,200.001 L1204.858,48.672 ZM1197.517,62.847 L1199.971,62.847 L1199.971,200.001 L1197.517,200.001 L1197.517,62.847 ZM1190.174,72.497 L1192.628,72.497 L1192.628,200.001 L1190.174,200.001 L1190.174,72.497 ZM1182.831,67.150 L1185.285,67.150 L1185.285,200.001 L1182.831,200.001 L1182.831,67.150 ZM1175.488,48.261 L1177.942,48.261 L1177.942,200.001 L1175.488,200.001 L1175.488,48.261 ZM1168.146,23.696 L1170.600,23.696 L1170.600,200.001 L1168.146,200.001 L1168.146,23.696 ZM1160.803,30.269 L1163.258,30.269 L1163.258,200.001 L1160.803,200.001 L1160.803,30.269 ZM1153.460,14.840 L1155.915,14.840 L1155.915,200.001 L1153.460,200.001 L1153.460,14.840 ZM1146.119,38.995 L1148.573,38.995 L1148.573,200.001 L1146.119,200.001 L1146.119,38.995 ZM1138.776,48.974 L1141.230,48.974 L1141.230,200.001 L1138.776,200.001 L1138.776,48.974 ZM1131.433,61.448 L1133.887,61.448 L1133.887,200.001 L1131.433,200.001 L1131.433,61.448 ZM1123.537,81.840 L1125.992,81.840 L1125.992,200.001 L1123.537,200.001 L1123.537,81.840 ZM1116.195,86.260 L1118.649,86.260 L1118.649,200.001 L1116.195,200.001 L1116.195,86.260 ZM1108.852,64.888 L1111.306,64.888 L1111.306,200.001 L1108.852,200.001 L1108.852,64.888 ZM1101.510,54.283 L1103.964,54.283 L1103.964,200.001 L1101.510,200.001 L1101.510,54.283 ZM1094.167,43.533 L1096.621,43.533 L1096.621,200.001 L1094.167,200.001 L1094.167,43.533 ZM1086.824,33.033 L1089.279,33.033 L1089.279,200.001 L1086.824,200.001 L1086.824,33.033 ZM1079.482,16.800 L1081.937,16.800 L1081.937,200.001 L1079.482,200.001 L1079.482,16.800 ZM1072.140,23.484 L1074.594,23.484 L1074.594,200.001 L1072.140,200.001 L1072.140,23.484 ZM1064.797,54.283 L1067.251,54.283 L1067.251,200.001 L1064.797,200.001 L1064.797,54.283 ZM1057.453,66.260 L1059.908,66.260 L1059.908,200.001 L1057.453,200.001 L1057.453,66.260 ZM1050.112,81.000 L1052.566,81.000 L1052.566,200.001 L1050.112,200.001 L1050.112,81.000 ZM1042.769,57.062 L1045.223,57.062 L1045.223,200.001 L1042.769,200.001 L1042.769,57.062 ZM1035.426,70.021 L1037.881,70.021 L1037.881,200.001 L1035.426,200.001 L1035.426,70.021 ZM1028.083,48.467 L1030.537,48.467 L1030.537,200.001 L1028.083,200.001 L1028.083,48.467 ZM1020.741,55.985 L1023.196,55.985 L1023.196,200.001 L1020.741,200.001 L1020.741,55.985 ZM1013.399,72.532 L1015.853,72.532 L1015.853,200.001 L1013.399,200.001 L1013.399,72.532 ZM1006.056,68.664 L1008.510,68.664 L1008.510,200.001 L1006.056,200.001 L1006.056,68.664 ZM998.713,72.526 L1001.167,72.526 L1001.167,200.001 L998.713,200.001 L998.713,72.526 ZM991.371,52.477 L993.825,52.477 L993.825,200.001 L991.371,200.001 L991.371,52.477 ZM984.028,77.988 L986.483,77.988 L986.483,200.001 L984.028,200.001 L984.028,77.988 ZM976.685,81.000 L979.139,81.000 L979.139,200.001 L976.685,200.001 L976.685,81.000 ZM969.344,75.260 L971.798,75.260 L971.798,200.001 L969.344,200.001 L969.344,75.260 ZM962.000,67.990 L964.455,67.990 L964.455,200.001 L962.000,200.001 L962.000,67.990 ZM955.545,124.997 L957.999,124.997 L957.999,200.001 L955.545,200.001 L955.545,124.997 ZM948.202,86.260 L950.656,86.260 L950.656,200.001 L948.202,200.001 L948.202,86.260 ZM940.859,64.888 L943.314,64.888 L943.314,200.001 L940.859,200.001 L940.859,64.888 ZM933.517,54.283 L935.972,54.283 L935.972,200.001 L933.517,200.001 L933.517,54.283 ZM926.175,43.533 L928.629,43.533 L928.629,200.001 L926.175,200.001 L926.175,43.533 ZM918.831,33.033 L921.286,33.033 L921.286,200.001 L918.831,200.001 L918.831,33.033 ZM911.490,16.800 L913.944,16.800 L913.944,200.001 L911.490,200.001 L911.490,16.800 ZM904.147,23.484 L906.601,23.484 L906.601,200.001 L904.147,200.001 L904.147,23.484 ZM896.804,54.283 L899.259,54.283 L899.259,200.001 L896.804,200.001 L896.804,54.283 ZM889.461,66.260 L891.915,66.260 L891.915,200.001 L889.461,200.001 L889.461,66.260 ZM882.119,81.000 L884.574,81.000 L884.574,200.001 L882.119,200.001 L882.119,81.000 ZM874.777,57.062 L877.231,57.062 L877.231,200.001 L874.777,200.001 L874.777,57.062 ZM867.433,70.021 L869.888,70.021 L869.888,200.001 L867.433,200.001 L867.433,70.021 ZM860.091,48.467 L862.545,48.467 L862.545,200.001 L860.091,200.001 L860.091,48.467 ZM852.749,55.985 L855.203,55.985 L855.203,200.001 L852.749,200.001 L852.749,55.985 ZM845.406,72.532 L847.860,72.532 L847.860,200.001 L845.406,200.001 L845.406,72.532 ZM838.063,68.664 L840.517,68.664 L840.517,200.001 L838.063,200.001 L838.063,68.664 ZM830.720,72.526 L833.175,72.526 L833.175,200.001 L830.720,200.001 L830.720,72.526 ZM823.378,52.477 L825.833,52.477 L825.833,200.001 L823.378,200.001 L823.378,52.477 ZM816.035,77.988 L818.490,77.988 L818.490,200.001 L816.035,200.001 L816.035,77.988 ZM808.693,81.000 L811.147,81.000 L811.147,200.001 L808.693,200.001 L808.693,81.000 ZM801.351,75.260 L803.806,75.260 L803.806,200.001 L801.351,200.001 L801.351,75.260 ZM794.008,67.990 L796.462,67.990 L796.462,200.001 L794.008,200.001 L794.008,67.990 ZM786.210,86.260 L788.664,86.260 L788.664,200.001 L786.210,200.001 L786.210,86.260 ZM778.867,64.888 L781.321,64.888 L781.321,200.001 L778.867,200.001 L778.867,64.888 ZM771.525,54.283 L773.980,54.283 L773.980,200.001 L771.525,200.001 L771.525,54.283 ZM764.182,43.533 L766.636,43.533 L766.636,200.001 L764.182,200.001 L764.182,43.533 ZM756.839,33.033 L759.294,33.033 L759.294,200.001 L756.839,200.001 L756.839,33.033 ZM749.497,16.800 L751.952,16.800 L751.952,200.001 L749.497,200.001 L749.497,16.800 ZM742.155,23.484 L744.609,23.484 L744.609,200.001 L742.155,200.001 L742.155,23.484 ZM734.812,54.283 L737.266,54.283 L737.266,200.001 L734.812,200.001 L734.812,54.283 ZM727.469,66.260 L729.923,66.260 L729.923,200.001 L727.469,200.001 L727.469,66.260 ZM720.127,81.000 L722.581,81.000 L722.581,200.001 L720.127,200.001 L720.127,81.000 ZM712.784,57.062 L715.239,57.062 L715.239,200.001 L712.784,200.001 L712.784,57.062 ZM705.441,70.021 L707.896,70.021 L707.896,200.001 L705.441,200.001 L705.441,70.021 ZM698.098,48.467 L700.553,48.467 L700.553,200.001 L698.098,200.001 L698.098,48.467 ZM690.757,55.985 L693.211,55.985 L693.211,200.001 L690.757,200.001 L690.757,55.985 ZM683.414,72.532 L685.868,72.532 L685.868,200.001 L683.414,200.001 L683.414,72.532 ZM676.071,68.664 L678.525,68.664 L678.525,200.001 L676.071,200.001 L676.071,68.664 ZM668.728,72.526 L671.182,72.526 L671.182,200.001 L668.728,200.001 L668.728,72.526 ZM661.386,52.477 L663.841,52.477 L663.841,200.001 L661.386,200.001 L661.386,52.477 ZM654.043,77.988 L656.498,77.988 L656.498,200.001 L654.043,200.001 L654.043,77.988 ZM646.700,81.000 L649.155,81.000 L649.155,200.001 L646.700,200.001 L646.700,81.000 ZM639.359,75.260 L641.813,75.260 L641.813,200.001 L639.359,200.001 L639.359,75.260 ZM632.016,67.990 L634.470,67.990 L634.470,200.001 L632.016,200.001 L632.016,67.990 ZM624.673,40.933 L627.127,40.933 L627.127,200.001 L624.673,200.001 L624.673,40.933 ZM617.330,20.005 L619.784,20.005 L619.784,200.001 L617.330,200.001 L617.330,20.005 ZM609.988,10.999 L612.443,10.999 L612.443,200.001 L609.988,200.001 L609.988,10.999 ZM602.646,37.473 L605.099,37.473 L605.099,200.001 L602.646,200.001 L602.646,37.473 ZM595.302,45.179 L597.757,45.179 L597.757,200.001 L595.302,200.001 L595.302,45.179 ZM587.961,59.352 L590.415,59.352 L590.415,200.001 L587.961,200.001 L587.961,59.352 ZM580.618,58.780 L583.072,58.780 L583.072,200.001 L580.618,200.001 L580.618,58.780 ZM573.275,75.306 L575.729,75.306 L575.729,200.001 L573.275,200.001 L573.275,75.306 ZM565.932,75.593 L568.386,75.593 L568.386,200.001 L565.932,200.001 L565.932,75.593 ZM558.590,66.710 L561.045,66.710 L561.045,200.001 L558.590,200.001 L558.590,66.710 ZM551.247,93.329 L553.702,93.329 L553.702,200.001 L551.247,200.001 L551.247,93.329 ZM543.904,68.289 L546.359,68.289 L546.359,200.001 L543.904,200.001 L543.904,68.289 ZM536.562,48.439 L539.016,48.439 L539.016,200.001 L536.562,200.001 L536.562,48.439 ZM529.220,37.715 L531.674,37.715 L531.674,200.001 L529.220,200.001 L529.220,37.715 ZM521.877,25.427 L524.331,25.427 L524.331,200.001 L521.877,200.001 L521.877,25.427 ZM514.534,13.477 L516.988,13.477 L516.988,200.001 L514.534,200.001 L514.534,13.477 ZM507.192,16.776 L509.647,16.776 L509.647,200.001 L507.192,200.001 L507.192,16.776 ZM499.849,24.000 L502.304,24.000 L502.304,200.001 L499.849,200.001 L499.849,24.000 ZM492.506,36.285 L494.961,36.285 L494.961,200.001 L492.506,200.001 L492.506,36.285 ZM485.164,70.021 L487.618,70.021 L487.618,200.001 L485.164,200.001 L485.164,70.021 ZM477.822,56.116 L480.276,56.116 L480.276,200.001 L477.822,200.001 L477.822,56.116 ZM470.479,63.413 L472.933,63.413 L472.933,200.001 L470.479,200.001 L470.479,63.413 ZM463.136,45.937 L465.591,45.937 L465.591,200.001 L463.136,200.001 L463.136,45.937 ZM455.793,67.166 L458.248,67.166 L458.248,200.001 L455.793,200.001 L455.793,67.166 ZM448.451,95.114 L450.906,95.114 L450.906,200.001 L448.451,200.001 L448.451,95.114 ZM441.109,87.998 L443.563,87.998 L443.563,200.001 L441.109,200.001 L441.109,87.998 ZM433.765,111.021 L436.220,111.021 L436.220,200.001 L433.765,200.001 L433.765,111.021 ZM426.424,126.323 L428.878,126.323 L428.878,200.001 L426.424,200.001 L426.424,126.323 ZM419.081,112.237 L421.535,112.237 L421.535,200.001 L419.081,200.001 L419.081,112.237 ZM411.738,104.619 L414.192,104.619 L414.192,200.001 L411.738,200.001 L411.738,104.619 ZM404.395,87.766 L406.849,87.766 L406.849,200.001 L404.395,200.001 L404.395,87.766 ZM397.053,84.340 L399.508,84.340 L399.508,200.001 L397.053,200.001 L397.053,84.340 ZM389.711,70.222 L392.165,70.222 L392.165,200.001 L389.711,200.001 L389.711,70.222 ZM382.368,57.220 L384.822,57.220 L384.822,200.001 L382.368,200.001 L382.368,57.220 ZM375.025,37.898 L377.479,37.898 L377.479,200.001 L375.025,200.001 L375.025,37.898 ZM367.683,30.468 L370.137,30.468 L370.137,200.001 L367.683,200.001 L367.683,30.468 ZM360.340,20.437 L362.795,20.437 L362.795,200.001 L360.340,200.001 L360.340,20.437 ZM352.997,11.148 L355.451,11.148 L355.451,200.001 L352.997,200.001 L352.997,11.148 ZM345.655,24.512 L348.110,24.512 L348.110,200.001 L345.655,200.001 L345.655,24.512 ZM338.312,35.370 L340.767,35.370 L340.767,200.001 L338.312,200.001 L338.312,35.370 ZM330.970,51.826 L333.424,51.826 L333.424,200.001 L330.970,200.001 L330.970,51.826 ZM323.627,82.831 L326.081,82.831 L326.081,200.001 L323.627,200.001 L323.627,82.831 ZM316.285,66.794 L318.739,66.794 L318.739,200.001 L316.285,200.001 L316.285,66.794 ZM308.942,56.102 L311.397,56.102 L311.397,200.001 L308.942,200.001 L308.942,56.102 ZM301.599,46.836 L304.053,46.836 L304.053,200.001 L301.599,200.001 L301.599,46.836 ZM294.258,63.942 L296.712,63.942 L296.712,200.001 L294.258,200.001 L294.258,63.942 ZM286.914,75.131 L289.369,75.131 L289.369,200.001 L286.914,200.001 L286.914,75.131 ZM279.572,59.129 L282.026,59.129 L282.026,200.001 L279.572,200.001 L279.572,59.129 ZM272.229,32.219 L274.683,32.219 L274.683,200.001 L272.229,200.001 L272.229,32.219 ZM264.887,4.215 L267.342,4.215 L267.342,200.001 L264.887,200.001 L264.887,4.215 ZM257.544,0.002 L259.998,0.002 L259.998,200.001 L257.544,200.001 L257.544,0.002 ZM250.201,24.790 L252.656,24.790 L252.656,200.001 L250.201,200.001 L250.201,24.790 ZM242.858,48.672 L245.313,48.672 L245.313,200.001 L242.858,200.001 L242.858,48.672 ZM235.517,62.847 L237.971,62.847 L237.971,200.001 L235.517,200.001 L235.517,62.847 ZM228.174,72.497 L230.628,72.497 L230.628,200.001 L228.174,200.001 L228.174,72.497 ZM220.830,67.150 L223.285,67.150 L223.285,200.001 L220.830,200.001 L220.830,67.150 ZM213.488,48.261 L215.942,48.261 L215.942,200.001 L213.488,200.001 L213.488,48.261 ZM206.146,23.696 L208.600,23.696 L208.600,200.001 L206.146,200.001 L206.146,23.696 ZM198.803,30.269 L201.258,30.269 L201.258,200.001 L198.803,200.001 L198.803,30.269 ZM191.460,14.840 L193.915,14.840 L193.915,200.001 L191.460,200.001 L191.460,14.840 ZM184.119,38.995 L186.573,38.995 L186.573,200.001 L184.119,200.001 L184.119,38.995 ZM176.776,48.974 L179.230,48.974 L179.230,200.001 L176.776,200.001 L176.776,48.974 ZM169.433,61.448 L171.887,61.448 L171.887,200.001 L169.433,200.001 L169.433,61.448 ZM161.537,81.840 L163.992,81.840 L163.992,200.001 L161.537,200.001 L161.537,81.840 ZM154.195,86.260 L156.649,86.260 L156.649,200.001 L154.195,200.001 L154.195,86.260 ZM146.852,64.888 L149.306,64.888 L149.306,200.001 L146.852,200.001 L146.852,64.888 ZM139.510,54.283 L141.964,54.283 L141.964,200.001 L139.510,200.001 L139.510,54.283 ZM132.167,43.533 L134.621,43.533 L134.621,200.001 L132.167,200.001 L132.167,43.533 ZM124.824,33.033 L127.278,33.033 L127.278,200.001 L124.824,200.001 L124.824,33.033 ZM117.482,16.800 L119.937,16.800 L119.937,200.001 L117.482,200.001 L117.482,16.800 ZM110.139,23.484 L112.594,23.484 L112.594,200.001 L110.139,200.001 L110.139,23.484 ZM102.797,54.283 L105.251,54.283 L105.251,200.001 L102.797,200.001 L102.797,54.283 ZM95.453,66.260 L97.908,66.260 L97.908,200.001 L95.453,200.001 L95.453,66.260 ZM88.112,81.000 L90.566,81.000 L90.566,200.001 L88.112,200.001 L88.112,81.000 ZM80.769,57.062 L83.223,57.062 L83.223,200.001 L80.769,200.001 L80.769,57.062 ZM73.426,70.021 L75.881,70.021 L75.881,200.001 L73.426,200.001 L73.426,70.021 ZM66.083,48.467 L68.537,48.467 L68.537,200.001 L66.083,200.001 L66.083,48.467 ZM58.741,55.985 L61.196,55.985 L61.196,200.001 L58.741,200.001 L58.741,55.985 ZM51.399,72.532 L53.853,72.532 L53.853,200.001 L51.399,200.001 L51.399,72.532 ZM44.056,68.664 L46.510,68.664 L46.510,200.001 L44.056,200.001 L44.056,68.664 ZM36.713,72.526 L39.167,72.526 L39.167,200.001 L36.713,200.001 L36.713,72.526 ZM29.371,52.477 L31.825,52.477 L31.825,200.001 L29.371,200.001 L29.371,52.477 ZM22.028,77.988 L24.483,77.988 L24.483,200.001 L22.028,200.001 L22.028,77.988 ZM14.685,81.000 L17.139,81.000 L17.139,200.001 L14.685,200.001 L14.685,81.000 ZM7.343,75.260 L9.798,75.260 L9.798,200.001 L7.343,200.001 L7.343,75.260 ZM0.000,67.990 L2.455,67.990 L2.455,200.001 L0.000,200.001 L0.000,67.990 Z"/>
</svg>