<svg xmlns="http://www.w3.org/2000/svg" width="92" height="96" viewBox="0 0 92 96">
    <g fill="none" fill-rule="nonzero">
        <path fill="#1E91FD" d="M19.504 20.545l-7.985-7.984a1.996 1.996 0 0 0-2.822 0L.712 20.545a1.997 1.997 0 0 0-.586 1.414v71.86c0 1.102.893 1.996 1.996 1.996H18.09a1.996 1.996 0 0 0 1.997-1.997v-71.86c0-.529-.21-1.037-.583-1.413z"/>
        <path fill="#008FDD" d="M42.806 28.099a1.996 1.996 0 0 0-2.176.43l-6.57 6.576-6.572-6.575a1.996 1.996 0 0 0-3.41 1.413v63.875c0 1.103.894 1.996 1.997 1.996h15.969a1.996 1.996 0 0 0 1.996-1.996V29.943c0-.808-.487-1.536-1.234-1.844z"/>
        <path fill="#00A2DD" d="M66.76 36.083a1.996 1.996 0 0 0-2.176.431l-6.572 6.575-6.57-6.575a1.996 1.996 0 0 0-3.41 1.413v55.891c0 1.103.894 1.997 1.996 1.997h15.969a1.996 1.996 0 0 0 1.996-1.997v-55.89c0-.808-.487-1.536-1.234-1.845z"/>
        <path fill="#0AD" d="M73.981 55.892h15.97c1.102 0 1.995.894 1.995 1.997v35.93a1.996 1.996 0 0 1-1.996 1.996H73.981a1.996 1.996 0 0 1-1.996-1.997v-35.93c0-1.102.894-1.996 1.996-1.996z"/>
        <path fill="#271D45" d="M90.713 36.083a1.996 1.996 0 0 0-2.176.431l-4.575 4.58L67.41 24.537a1.996 1.996 0 0 0-2.822 0l-6.576 6.575-14.555-14.56a1.996 1.996 0 0 0-2.823 0l-6.575 6.575L11.52.584a1.996 1.996 0 0 0-2.822 0L.712 8.57a1.996 1.996 0 0 0 2.823 2.822l6.571-6.57 22.54 22.543c.78.78 2.043.78 2.823 0l6.575-6.575 14.555 14.555c.78.78 2.043.78 2.823 0l6.575-6.57L81.14 43.915l-4.575 4.575a1.996 1.996 0 0 0 1.41 3.41H89.95a1.996 1.996 0 0 0 1.996-1.997V37.927c0-.807-.487-1.535-1.233-1.844z"/>
    </g>
</svg>
