<svg xmlns="http://www.w3.org/2000/svg" width="93" height="96" viewBox="0 0 93 96">
    <g fill="none" fill-rule="evenodd">
        <path stroke="#424A60" stroke-linecap="round" stroke-width="2" d="M77.313 22.153l5.751-5.752"/>
        <path fill="#271D45" fill-rule="nonzero" d="M78.461 14.1l6.905-6.904 6.903 6.903-6.904 6.905z"/>
        <path fill="#1E91FD" fill-rule="nonzero" d="M47.398 9.763a42.38 42.38 0 0 0-9.498 1.083v10.307H24.884c-.9 0-1.628.727-1.628 1.627s.728 1.627 1.628 1.627H37.9v8.135H16.748c-.9 0-1.627.728-1.627 1.627 0 .9.727 1.628 1.627 1.628H37.9v8.135H8.612c-.9 0-1.627.728-1.627 1.627 0 .9.728 1.627 1.627 1.627H37.9v8.136H2.104c-.9 0-1.627.727-1.627 1.627s.727 1.627 1.627 1.627H37.9v8.136H11.867c-.9 0-1.628.727-1.628 1.627s.728 1.627 1.628 1.627H37.9v8.136H21.63c-.9 0-1.628.727-1.628 1.627s.727 1.627 1.627 1.627H37.9v11.933a42.38 42.38 0 0 0 9.498 1.084c23.364 0 42.305-18.941 42.305-42.305S70.762 9.763 47.398 9.763z"/>
        <path fill="#2B77AA" fill-rule="nonzero" d="M69.966 37.704a1.633 1.633 0 0 0-2.104-.17L46.796 52.772a5.788 5.788 0 0 0-2.37 4.237 5.792 5.792 0 0 0 1.682 4.551 5.757 5.757 0 0 0 4.097 1.7 5.822 5.822 0 0 0 4.696-2.393l15.234-21.061a1.625 1.625 0 0 0-.169-2.102z"/>
        <path fill="#FF8C00" fill-rule="nonzero" d="M68.339 34.646a1.633 1.633 0 0 0-2.104-.169L45.17 49.715a5.788 5.788 0 0 0-2.37 4.237 5.792 5.792 0 0 0 1.682 4.551 5.75 5.75 0 0 0 4.095 1.7 5.822 5.822 0 0 0 4.696-2.391L68.507 36.75a1.625 1.625 0 0 0-.168-2.104z"/>
        <path fill="#271D45" fill-rule="nonzero" d="M44.409 9.9a43.05 43.05 0 0 1 3.254-.137c1.097 0 2.179.055 3.254.136V4.881h4.068a2.442 2.442 0 0 0 0-4.881H40.341a2.442 2.442 0 0 0 0 4.881h4.068V9.9z"/>
        <g fill="#A1C8EC" fill-rule="nonzero">
            <path d="M47.663 8.136c-.9 0-1.627.727-1.627 1.627v4.881c0 .9.727 1.627 1.627 1.627s1.627-.727 1.627-1.627V9.763c0-.9-.727-1.627-1.627-1.627zM47.663 87.864c-.9 0-1.627.728-1.627 1.628v4.88c0 .9.727 1.628 1.627 1.628s1.627-.727 1.627-1.627v-4.881c0-.9-.727-1.628-1.627-1.628zM89.703 50.44h-4.881c-.9 0-1.627.728-1.627 1.628 0 .9.727 1.627 1.627 1.627h4.881c.9 0 1.627-.727 1.627-1.627s-.727-1.627-1.627-1.627zM69.364 14.02a1.626 1.626 0 0 0-2.223.596l-2.44 4.23a1.627 1.627 0 0 0 2.818 1.626l2.44-4.228a1.628 1.628 0 0 0-.595-2.223zM84.848 71.811l-4.228-2.44a1.627 1.627 0 0 0-1.627 2.818l4.228 2.44a1.624 1.624 0 0 0 2.223-.596c.45-.778.183-1.773-.596-2.222zM67.519 83.665a1.623 1.623 0 0 0-2.223-.596 1.625 1.625 0 0 0-.595 2.223l2.44 4.227a1.626 1.626 0 1 0 2.819-1.627l-2.441-4.227zM79.81 34.983c.277 0 .557-.07.812-.218l4.227-2.44a1.625 1.625 0 0 0 .596-2.223 1.624 1.624 0 0 0-2.223-.596l-4.227 2.44a1.625 1.625 0 0 0-.596 2.223c.301.523.848.814 1.411.814z"/>
        </g>
    </g>
</svg>
