<svg xmlns="http://www.w3.org/2000/svg" width="92" height="96" viewBox="0 0 92 96">
    <g fill="none" fill-rule="nonzero">
        <path fill="#0AD" d="M18.852 52.05a1.996 1.996 0 0 0-2.176.431l-6.57 6.576-6.572-6.576a1.996 1.996 0 0 0-3.41 1.414v39.922c0 1.102.894 1.996 1.997 1.996H18.09a1.996 1.996 0 0 0 1.996-1.996V53.895c0-.808-.487-1.536-1.234-1.845z"/>
        <path fill="#00A2DD" d="M35.472 36.513a1.996 1.996 0 0 0-2.823 0l-7.984 7.984a1.997 1.997 0 0 0-.587 1.413v47.907c0 1.102.894 1.996 1.996 1.996h15.969a1.996 1.996 0 0 0 1.996-1.996V45.91c0-.53-.209-1.038-.583-1.413l-7.984-7.984z"/>
        <path fill="#008FDD" d="M59.425 28.528a1.996 1.996 0 0 0-2.823 0l-7.984 7.985a1.997 1.997 0 0 0-.587 1.413v55.89c0 1.103.894 1.997 1.996 1.997h15.969a1.996 1.996 0 0 0 1.996-1.996V37.926c.001-.53-.209-1.038-.583-1.413l-7.984-7.985z"/>
        <path fill="#1E91FD" d="M91.363 24.536l-3.993-3.992a1.996 1.996 0 0 0-1.413-.583h-3.992c-.53 0-1.038.209-1.413.583l-7.985 7.984a1.996 1.996 0 0 0-.583 1.414v63.875c0 1.102.894 1.996 1.996 1.996h15.97a1.996 1.996 0 0 0 1.995-1.996V25.949c.001-.53-.208-1.038-.582-1.413z"/>
        <path fill="#271D45" d="M89.95 0H77.972a1.996 1.996 0 0 0-1.413 3.41l4.579 4.574-15.143 15.143-6.571-6.575a1.996 1.996 0 0 0-2.823 0l-14.56 14.56-6.57-6.576a1.996 1.996 0 0 0-2.823 0L10.105 47.08l-6.571-6.575a1.996 1.996 0 0 0-2.823 2.822l7.985 7.985c.78.779 2.043.779 2.823 0l22.54-22.54 6.57 6.571c.78.78 2.044.78 2.823 0l14.56-14.556 6.57 6.572c.78.779 2.044.779 2.823 0l16.556-16.552 4.575 4.575a1.997 1.997 0 0 0 3.41-1.41V1.997A1.996 1.996 0 0 0 89.949 0z"/>
    </g>
</svg>
