<svg xmlns="http://www.w3.org/2000/svg" width="16" height="16" viewBox="0 0 16 16">
    <path fill="#FFF" fill-rule="evenodd" d="M13.635 13.633H11.26V9.921c0-.886-.015-2.025-1.233-2.025-1.234 0-1.422.965-1.422 1.961v3.777H6.235V5.997H8.51v1.044h.033c.316-.6 1.09-1.233 2.244-1.233 2.403 0 2.848 1.58 2.848 3.637v4.188zM3.56 4.955a1.376 1.376 0 1 1-.003-2.751 1.376 1.376 0 0 1 .002 2.751zm1.186 8.678H2.371V5.998h2.375v7.635zM15.334 0H.667A.667.667 0 0 0 0 .666v14.667c0 .368.299.667.667.667h14.667a.667.667 0 0 0 .666-.667V.666A.667.667 0 0 0 15.334 0z"/>
</svg>
