<svg xmlns="http://www.w3.org/2000/svg" width="138" height="138" viewBox="0 0 138 138">
    <defs>
        <filter id="a" width="125%" height="140%" x="-12.5%" y="-20%" filterUnits="objectBoundingBox">
            <feOffset dy="4" in="SourceAlpha" result="shadowOffsetOuter1"/>
            <feGaussianBlur in="shadowOffsetOuter1" result="shadowBlurOuter1" stdDeviation="10"/>
            <feColorMatrix in="shadowBlurOuter1" result="shadowMatrixOuter1" values="0 0 0 0 0 0 0 0 0 0 0 0 0 0 0 0 0 0 0.1 0"/>
            <feMerge>
                <feMergeNode in="shadowMatrixOuter1"/>
                <feMergeNode in="SourceGraphic"/>
            </feMerge>
        </filter>
    </defs>
    <g fill="none" fill-rule="evenodd" filter="url(#a)" transform="translate(21 17)">
        <circle cx="48" cy="48" r="48" fill="#0069B4" fill-rule="nonzero" stroke="#FFF" stroke-width="3"/>
        <g fill="#FFF">
            <path fill-rule="nonzero" d="M21 66.75l28.644 5.198V24L21 29.199v37.55zm8.623-29.845l4.19-.347v17.157l7.756.347v4.104l-11.946-.693V36.905z"/>
            <path d="M73.438 47.606c0-5.711-4.736-10.341-9.723-10.341H62.06l5.049 6.54c.023.03.042.062.064.093a5.71 5.71 0 0 1-4.34 9.418h-6.519l2.644 3.426.93 1.205 3.254 4.216a2.513 2.513 0 1 0 3.978-3.07l-1.13-1.465c4.061-1.137 7.448-5.193 7.448-10.022zM53.089 51.406c-.023-.03-.042-.061-.064-.092a5.728 5.728 0 0 1-.695-1.015v6.571c1.291.688 2.711 1.077 4.153 1.077h1.654l-5.048-6.54z"/>
            <path d="M57.365 41.897h6.519L61.24 38.47l-.93-1.205v-.001l-3.255-4.216a2.513 2.513 0 1 0-3.978 3.07l1.13 1.465a9.388 9.388 0 0 0-1.877.757v6.57a5.708 5.708 0 0 1 5.035-3.014z"/>
        </g>
    </g>
</svg>
