<svg xmlns="http://www.w3.org/2000/svg" width="96" height="96" viewBox="0 0 96 96">
    <g fill="none" fill-rule="nonzero">
        <path fill="#1E91FD" d="M47.976 81.6c-18.526 0-33.6-15.074-33.6-33.6 0-18.526 15.074-33.6 33.6-33.6 18.526 0 33.6 15.074 33.6 33.6 0 18.526-15.072 33.6-33.6 33.6"/>
        <path fill="#FFF" d="M47.976 24a1.6 1.6 0 0 1-1.6-1.6v-3.2a1.6 1.6 0 1 1 3.2 0v3.2a1.6 1.6 0 0 1-1.6 1.6M47.976 78.4a1.6 1.6 0 0 1-1.6-1.6v-3.2a1.6 1.6 0 1 1 3.2 0v3.2a1.6 1.6 0 0 1-1.6 1.6M76.776 49.6h-3.2a1.6 1.6 0 1 1 0-3.2h3.2a1.6 1.6 0 1 1 0 3.2M22.376 49.6h-3.2a1.6 1.6 0 1 1 0-3.2h3.2a1.6 1.6 0 1 1 0 3.2M47.976 52.8c-3.53 0-6.4-2.87-6.4-6.4 0-3.53 2.87-6.4 6.4-6.4 3.53 0 6.4 2.87 6.4 6.4 0 3.53-2.869 6.4-6.4 6.4m0-9.6a3.203 3.203 0 0 0-3.2 3.2c0 1.765 1.435 3.2 3.2 3.2 1.765 0 3.2-1.435 3.2-3.2 0-1.765-1.435-3.2-3.2-3.2"/>
        <path fill="#FFF" d="M47.976 43.2a1.6 1.6 0 0 1-1.6-1.6V32a1.6 1.6 0 1 1 3.2 0v9.6a1.6 1.6 0 0 1-1.6 1.6M30.376 65.6a1.598 1.598 0 0 1-1.131-2.731L43.45 48.662a1.598 1.598 0 0 1 2.263 0 1.598 1.598 0 0 1 0 2.263L31.507 65.13c-.31.312-.721.469-1.131.469"/>
        <path fill="#271D45" d="M94.376 49.6a1.6 1.6 0 0 1-1.6-1.6c0-24.702-20.098-44.8-44.8-44.8-11.547 0-22.52 4.4-30.896 12.387a1.6 1.6 0 0 1-2.208-2.315C23.846 4.714 35.605 0 47.976 0c26.467 0 48 21.533 48 48a1.6 1.6 0 0 1-1.6 1.6"/>
        <path fill="#271D45" d="M28.776 16h-14.4V1.6a1.6 1.6 0 1 1 3.2 0v11.2h11.2a1.6 1.6 0 1 1 0 3.2M47.274 94.416a1.605 1.605 0 0 1 1.568-1.632 1.604 1.604 0 0 1 1.632 1.568 1.596 1.596 0 0 1-1.568 1.632h-.032a1.596 1.596 0 0 1-1.6-1.568zm-3.33 1.408v.014a1.6 1.6 0 0 1-1.456-1.742 1.59 1.59 0 0 1 1.728-1.458c.88.082 1.52.85 1.456 1.728a1.603 1.603 0 0 1-1.6 1.472c-.032 0-.08 0-.128-.014zm8.13-1.586a1.595 1.595 0 0 1 1.392-1.774c.88-.112 1.68.51 1.776 1.392.112.88-.512 1.68-1.392 1.792v-.016c-.064.016-.128.016-.192.016a1.59 1.59 0 0 1-1.584-1.41zm-13.04.928a1.606 1.606 0 0 1-1.28-1.87 1.6 1.6 0 0 1 1.872-1.28 1.612 1.612 0 0 1 1.28 1.872 1.622 1.622 0 0 1-1.584 1.296c-.098 0-.192 0-.288-.018zm17.79-1.582a1.588 1.588 0 0 1 1.2-1.92 1.608 1.608 0 0 1 1.92 1.2c.192.864-.352 1.728-1.2 1.92-.128.032-.24.032-.368.032-.72 0-1.392-.496-1.552-1.232zm-22.622.4c-.848-.256-1.312-1.152-1.072-2a1.609 1.609 0 0 1 2-1.056 1.58 1.58 0 0 1 1.072 1.982 1.607 1.607 0 0 1-1.536 1.138c-.146 0-.304-.016-.464-.064zm27.278-1.552c-.288-.848.16-1.76.992-2.032a1.588 1.588 0 0 1 2.032.992 1.602 1.602 0 0 1-.992 2.032 2.01 2.01 0 0 1-.528.078 1.597 1.597 0 0 1-1.504-1.07zm-31.95-.112a1.593 1.593 0 0 1-.848-2.096 1.589 1.589 0 0 1 2.08-.864c.816.336 1.2 1.278.864 2.096a1.597 1.597 0 0 1-1.472.976 1.71 1.71 0 0 1-.624-.112zm36.462-1.536a1.578 1.578 0 0 1 .784-2.112 1.571 1.571 0 0 1 2.112.766 1.59 1.59 0 0 1-.768 2.128 1.667 1.667 0 0 1-.672.144 1.592 1.592 0 0 1-1.456-.926zm-40.926-.624A1.593 1.593 0 0 1 24.41 88c.432-.784 1.408-1.072 2.176-.64a1.573 1.573 0 0 1 .64 2.16 1.579 1.579 0 0 1-1.408.846c-.256 0-.512-.064-.752-.206zm45.246-1.472c-.464-.752-.208-1.728.544-2.192a1.605 1.605 0 0 1 2.192.56 1.592 1.592 0 0 1-1.36 2.416 1.571 1.571 0 0 1-1.376-.784zm-49.488-1.122c-.72-.51-.912-1.502-.4-2.222a1.595 1.595 0 0 1 2.224-.416c.72.496.912 1.504.4 2.224-.304.448-.8.686-1.312.686-.32 0-.624-.078-.912-.272zm53.568-1.406a1.605 1.605 0 0 1 .32-2.24 1.593 1.593 0 0 1 2.24.336c.528.704.384 1.71-.336 2.24a1.558 1.558 0 0 1-.944.304c-.496 0-.974-.208-1.28-.64zm-57.504-1.616a1.6 1.6 0 1 1 1.04.384c-.366 0-.736-.128-1.04-.384zm61.296-1.312a1.6 1.6 0 0 1 .096-2.272v.014a1.58 1.58 0 0 1 2.256.098c.592.638.56 1.648-.096 2.256a1.613 1.613 0 0 1-1.072.416 1.65 1.65 0 0 1-1.184-.512zm-64.896-2.096a1.594 1.594 0 0 1 .048-2.256 1.594 1.594 0 0 1 2.256.048 1.58 1.58 0 0 1-.048 2.256 1.548 1.548 0 0 1-1.104.448c-.416 0-.848-.16-1.152-.496zm68.368-1.216a1.596 1.596 0 0 1-.128-2.256c.576-.672 1.584-.72 2.256-.144.656.59.72 1.6.128 2.254a1.56 1.56 0 0 1-1.2.546c-.368 0-.75-.128-1.056-.4zM10.04 77.374a1.587 1.587 0 0 1 .288-2.238 1.587 1.587 0 0 1 2.24.288 1.601 1.601 0 0 1-.272 2.24c-.304.224-.64.336-.992.336-.464 0-.942-.208-1.264-.626zm74.736-1.102a1.609 1.609 0 0 1-.368-2.24 1.624 1.624 0 0 1 2.24-.368c.72.528.88 1.52.368 2.238-.32.434-.8.672-1.312.672a1.57 1.57 0 0 1-.928-.302zM7.208 73.31a1.609 1.609 0 0 1 .512-2.208 1.605 1.605 0 0 1 2.208.514c.464.75.24 1.744-.512 2.208-.272.16-.56.24-.848.24a1.62 1.62 0 0 1-1.36-.754zm80.304-.99a1.58 1.58 0 0 1-.592-2.176h-.016a1.619 1.619 0 0 1 2.192-.608 1.602 1.602 0 0 1-1.584 2.784zM4.808 68.974a1.598 1.598 0 0 1 .736-2.142 1.604 1.604 0 0 1 2.144.734c.384.8.048 1.762-.752 2.144a1.525 1.525 0 0 1-.688.162 1.607 1.607 0 0 1-1.44-.898zm85.008-.864A1.58 1.58 0 0 1 89 66a1.609 1.609 0 0 1 2.112-.816c.8.352 1.168 1.296.816 2.112-.272.592-.848.96-1.472.96-.208 0-.432-.048-.64-.146zM2.874 64.4a1.587 1.587 0 0 1 .944-2.048 1.59 1.59 0 0 1 2.048.958 1.59 1.59 0 0 1-1.504 2.146c-.642 0-1.264-.4-1.488-1.056zm88.8-.704a1.61 1.61 0 0 1-1.024-2.016 1.582 1.582 0 0 1 2-1.042 1.6 1.6 0 0 1 1.04 2.018 1.609 1.609 0 0 1-1.52 1.104c-.162 0-.336-.016-.496-.064zM1.416 59.664a1.582 1.582 0 0 1 1.152-1.936A1.604 1.604 0 0 1 4.52 58.88a1.628 1.628 0 0 1-1.168 1.952 1.578 1.578 0 0 1-.384.048c-.72 0-1.376-.496-1.552-1.216zm91.65-.576a1.581 1.581 0 0 1-1.232-1.888 1.582 1.582 0 0 1 1.888-1.234 1.583 1.583 0 0 1 1.232 1.89c-.144.752-.816 1.264-1.552 1.264-.114 0-.226 0-.336-.032zM.456 54.784a1.603 1.603 0 0 1 1.36-1.81 1.603 1.603 0 0 1 1.808 1.362c.128.88-.48 1.68-1.36 1.808-.08.016-.144.016-.224.016-.784 0-1.47-.576-1.584-1.376zm93.506-.4a1.6 1.6 0 0 1-1.424-1.76c.096-.88.88-1.522 1.76-1.424.88.08 1.52.88 1.424 1.744-.08.83-.784 1.44-1.584 1.44h-.176zM.008 49.856a1.596 1.596 0 0 1 1.536-1.664 1.606 1.606 0 0 1 1.664 1.536 1.606 1.606 0 0 1-1.536 1.664h-.064c-.846 0-1.568-.69-1.6-1.536zM92.776 48c0-.88.72-1.6 1.6-1.6.88 0 1.6.72 1.6 1.6 0 .88-.72 1.6-1.6 1.6-.878 0-1.6-.72-1.6-1.6z"/>
    </g>
</svg>
