<svg xmlns="http://www.w3.org/2000/svg" width="18" height="19" viewBox="0 0 18 19">
    <g fill="#FFF" fill-rule="evenodd">
        <path fill-rule="nonzero" d="M9.011 18.478c-4.956 0-8.989-4.033-8.989-8.989S4.055.5 9.011.5 18 4.533 18 9.489s-4.033 8.989-8.989 8.989zm0-17.08c-4.462 0-8.09 3.63-8.09 8.091 0 4.462 3.628 8.09 8.09 8.09s8.09-3.628 8.09-8.09-3.628-8.09-8.09-8.09z"/>
        <path d="M10.708 12.334a.447.447 0 0 1-.319.132.447.447 0 0 1-.319-.766l1.76-1.76H5.107a.45.45 0 1 1 0-.902h6.723l-1.76-1.76a.447.447 0 0 1 0-.634.447.447 0 0 1 .635 0L13.23 9.17a.447.447 0 0 1 0 .634l-2.523 2.53z"/>
    </g>
</svg>
