<svg xmlns="http://www.w3.org/2000/svg" width="138" height="138" viewBox="0 0 138 138">
    <defs>
        <filter id="a" width="125%" height="140%" x="-12.5%" y="-20%" filterUnits="objectBoundingBox">
            <feOffset dy="4" in="SourceAlpha" result="shadowOffsetOuter1"/>
            <feGaussianBlur in="shadowOffsetOuter1" result="shadowBlurOuter1" stdDeviation="10"/>
            <feColorMatrix in="shadowBlurOuter1" result="shadowMatrixOuter1" values="0 0 0 0 0 0 0 0 0 0 0 0 0 0 0 0 0 0 0.1 0"/>
            <feMerge>
                <feMergeNode in="shadowMatrixOuter1"/>
                <feMergeNode in="SourceGraphic"/>
            </feMerge>
        </filter>
    </defs>
    <g fill="none" fill-rule="nonzero" filter="url(#a)" transform="translate(21 17)">
        <circle cx="48" cy="48" r="48" fill="#00AFF0" stroke="#FFF" stroke-width="3"/>
        <path fill="#FFF" d="M70.301 51.94c-.015.084-.026.169-.042.253l-.082-.483c.045.075.082.153.124.23a22.78 22.78 0 0 0 .378-4.11c0-3.059-.6-6.027-1.783-8.821a22.57 22.57 0 0 0-4.858-7.205 22.583 22.583 0 0 0-16.025-6.638c-1.442 0-2.886.135-4.292.405l-.01.002c.079.042.159.079.236.122l-.476-.074.24-.048A13.434 13.434 0 0 0 37.418 24a13.328 13.328 0 0 0-9.488 3.93A13.334 13.334 0 0 0 24 37.42c0 2.281.587 4.524 1.688 6.505.015-.082.025-.165.04-.247l.083.475c-.043-.074-.08-.152-.123-.228a22.827 22.827 0 0 0-.341 3.907 22.5 22.5 0 0 0 1.783 8.823 22.561 22.561 0 0 0 4.855 7.204 22.544 22.544 0 0 0 7.206 4.856 22.48 22.48 0 0 0 8.822 1.784 22.79 22.79 0 0 0 3.97-.353c-.076-.042-.154-.081-.231-.126l.484.085c-.084.016-.168.026-.253.041a13.407 13.407 0 0 0 6.601 1.74 13.32 13.32 0 0 0 9.486-3.93A13.323 13.323 0 0 0 72 58.468c0-2.29-.59-4.54-1.699-6.528zm-22.197 9.772c-8.053 0-11.655-3.959-11.655-6.926 0-1.522 1.124-2.588 2.672-2.588 3.446 0 2.553 4.948 8.983 4.948 3.291 0 5.109-1.787 5.109-3.616 0-1.1-.543-2.32-2.71-2.854l-7.162-1.788c-5.768-1.446-6.815-4.564-6.815-7.496 0-6.085 5.73-8.37 11.111-8.37 4.957 0 10.8 2.74 10.8 6.39 0 1.565-1.354 2.474-2.902 2.474-2.941 0-2.4-4.07-8.324-4.07-2.94 0-4.567 1.33-4.567 3.236 0 1.9 2.321 2.508 4.337 2.967l5.301 1.177c5.807 1.294 7.28 4.684 7.28 7.878 0 4.945-3.797 8.638-11.458 8.638zm3.648 8.307c.077.045.155.084.23.126.086-.015.17-.025.254-.04l-.484-.086zm18.507-17.826c.016-.084.027-.17.042-.253-.042-.077-.079-.155-.124-.23l.082.483zm-44.53-8.516c-.016.082-.026.165-.04.247.042.076.08.154.122.228l-.082-.475zm18.218-17.982c-.077-.043-.157-.08-.236-.122l-.24.048.476.074z"/>
    </g>
</svg>
