<svg xmlns="http://www.w3.org/2000/svg" xmlns:xlink="http://www.w3.org/1999/xlink" width="138" height="138" viewBox="0 0 138 138">
    <defs>
        <filter id="a" width="125%" height="140%" x="-12.5%" y="-20%" filterUnits="objectBoundingBox">
            <feOffset dy="4" in="SourceAlpha" result="shadowOffsetOuter1"/>
            <feGaussianBlur in="shadowOffsetOuter1" result="shadowBlurOuter1" stdDeviation="10"/>
            <feColorMatrix in="shadowBlurOuter1" result="shadowMatrixOuter1" values="0 0 0 0 0 0 0 0 0 0 0 0 0 0 0 0 0 0 0.1 0"/>
            <feMerge>
                <feMergeNode in="shadowMatrixOuter1"/>
                <feMergeNode in="SourceGraphic"/>
            </feMerge>
        </filter>
        <path id="b" d="M.029.176h10v22.501h-10z"/>
        <path id="d" d="M0 .147h22.502v10H0z"/>
        <path id="f" d="M.057.118h10V22.62h-10z"/>
        <path id="h" d="M.057.204h10v10h-10z"/>
        <path id="j" d="M.057.175H22.56v10.001H.057z"/>
    </defs>
    <g fill="none" fill-rule="evenodd" filter="url(#a)" transform="translate(21 17)">
        <circle cx="48" cy="48" r="48" fill="#4A154C" fill-rule="nonzero" stroke="#FFF" stroke-width="3"/>
        <path fill="#D31A69" d="M34 54.38a5 5 0 1 1-5-5h5v5z"/>
        <g transform="translate(36.472 49.205)">
            <mask id="c" fill="#fff">
                <use xlink:href="#b"/>
            </mask>
            <path fill="#D31A69" d="M.029 5.176a5 5 0 1 1 10 0v12.5a5 5 0 1 1-10 0v-12.5z" mask="url(#c)"/>
        </g>
        <path fill="#3FB3E1" d="M41.501 34.379a5 5 0 1 1 5-5v5h-5z"/>
        <g transform="translate(24 36.732)">
            <mask id="e" fill="#fff">
                <use xlink:href="#d"/>
            </mask>
            <path fill="#3FB3E1" d="M17.501.147a5 5 0 1 1 0 10h-12.5a5 5 0 0 1 0-10h12.5z" mask="url(#e)"/>
        </g>
        <path fill="#05AF72" d="M61.503 41.88a5 5 0 1 1 5 5h-5v-5z"/>
        <g transform="translate(48.945 24.26)">
            <mask id="g" fill="#fff">
                <use xlink:href="#f"/>
            </mask>
            <path fill="#05AF72" d="M10.058 17.62a5 5 0 1 1-10 0V5.119a5 5 0 1 1 10 0v12.5z" mask="url(#g)"/>
        </g>
        <g transform="translate(48.945 61.677)">
            <mask id="i" fill="#fff">
                <use xlink:href="#h"/>
            </mask>
            <path fill="#F1AF21" d="M5.057.204a5 5 0 1 1-5 5v-5h5z" mask="url(#i)"/>
        </g>
        <g transform="translate(48.945 49.205)">
            <mask id="k" fill="#fff">
                <use xlink:href="#j"/>
            </mask>
            <path fill="#F1AF21" d="M5.057 10.176a5 5 0 1 1 0-10h12.501a5 5 0 1 1 0 10h-12.5z" mask="url(#k)"/>
        </g>
    </g>
</svg>
