<svg xmlns="http://www.w3.org/2000/svg" xmlns:xlink="http://www.w3.org/1999/xlink" width="100" height="100" viewBox="0 0 100 100">
    <defs>
        <path id="a" d="M.029.176h10v22.501h-10z"/>
        <path id="c" d="M0 .147h22.502v10H0z"/>
        <path id="e" d="M.057.118h10V22.62h-10z"/>
        <path id="g" d="M.057.204h10v10h-10z"/>
        <path id="i" d="M.057.175H22.56v10.001H.057z"/>
    </defs>
    <g fill="none" fill-rule="evenodd" transform="translate(2 2)">
        <circle cx="48" cy="48" r="48" fill="#4A154C" fill-rule="nonzero" stroke="#FFF" stroke-width="3"/>
        <path fill="#D31A69" d="M34 54.38a5 5 0 1 1-5-5h5v5z"/>
        <g transform="translate(36.472 49.205)">
            <mask id="b" fill="#fff">
                <use xlink:href="#a"/>
            </mask>
            <path fill="#D31A69" d="M.029 5.176a5 5 0 1 1 10 0v12.5a5 5 0 1 1-10 0v-12.5z" mask="url(#b)"/>
        </g>
        <path fill="#3FB3E1" d="M41.501 34.379a5 5 0 1 1 5-5v5h-5z"/>
        <g transform="translate(24 36.732)">
            <mask id="d" fill="#fff">
                <use xlink:href="#c"/>
            </mask>
            <path fill="#3FB3E1" d="M17.501.147a5 5 0 1 1 0 10h-12.5a5 5 0 0 1 0-10h12.5z" mask="url(#d)"/>
        </g>
        <path fill="#05AF72" d="M61.503 41.88a5 5 0 1 1 5 5h-5v-5z"/>
        <g transform="translate(48.945 24.26)">
            <mask id="f" fill="#fff">
                <use xlink:href="#e"/>
            </mask>
            <path fill="#05AF72" d="M10.058 17.62a5 5 0 1 1-10 0V5.119a5 5 0 1 1 10 0v12.5z" mask="url(#f)"/>
        </g>
        <g transform="translate(48.945 61.677)">
            <mask id="h" fill="#fff">
                <use xlink:href="#g"/>
            </mask>
            <path fill="#F1AF21" d="M5.057.204a5 5 0 1 1-5 5v-5h5z" mask="url(#h)"/>
        </g>
        <g transform="translate(48.945 49.205)">
            <mask id="j" fill="#fff">
                <use xlink:href="#i"/>
            </mask>
            <path fill="#F1AF21" d="M5.057 10.176a5 5 0 1 1 0-10h12.501a5 5 0 1 1 0 10h-12.5z" mask="url(#j)"/>
        </g>
    </g>
</svg>
