<svg xmlns="http://www.w3.org/2000/svg" width="20" height="16" viewBox="0 0 20 16">
    <path fill="#FFF" fill-rule="nonzero" d="M19.663 1.904c-.724.32-1.5.538-2.316.635A4.05 4.05 0 0 0 19.12.31a8.132 8.132 0 0 1-2.564.98 4.034 4.034 0 0 0-6.873 3.677A11.452 11.452 0 0 1 1.37.75 4.003 4.003 0 0 0 .824 2.78c0 1.4.713 2.634 1.794 3.356A4.034 4.034 0 0 1 .791 5.63v.05a4.038 4.038 0 0 0 3.235 3.956c-.337.09-.694.141-1.062.141-.26 0-.513-.026-.76-.075a4.036 4.036 0 0 0 3.767 2.802 8.093 8.093 0 0 1-5.009 1.723c-.326 0-.646-.02-.962-.055a11.402 11.402 0 0 0 6.183 1.815c7.42 0 11.476-6.146 11.476-11.476l-.014-.522a8.055 8.055 0 0 0 2.018-2.084z"/>
</svg>
