<svg xmlns="http://www.w3.org/2000/svg" width="142" height="150" viewBox="0 0 142 150">
    <defs>
        <filter id="a" width="111.5%" height="186.2%" x="-5.6%" y="-44%" filterUnits="objectBoundingBox">
            <feOffset dy="4" in="SourceAlpha" result="shadowOffsetOuter1"/>
            <feGaussianBlur in="shadowOffsetOuter1" result="shadowBlurOuter1" stdDeviation="10"/>
            <feColorMatrix in="shadowBlurOuter1" result="shadowMatrixOuter1" values="0 0 0 0 0 0 0 0 0 0 0 0 0 0 0 0 0 0 0.1 0"/>
            <feMerge>
                <feMergeNode in="shadowMatrixOuter1"/>
                <feMergeNode in="SourceGraphic"/>
            </feMerge>
        </filter>
        <linearGradient id="b" x1="50%" x2="50%" y1="100%" y2="0%">
            <stop offset="0%" stop-color="#F9F9F9"/>
            <stop offset="100%" stop-color="#FFF"/>
        </linearGradient>
    </defs>
    <g fill="none" fill-rule="evenodd" filter="url(#a)" transform="translate(20 17)">
        <g transform="translate(3)">
            <circle cx="48" cy="48" r="48" fill="#25D366" fill-rule="nonzero" stroke="#FFF" stroke-width="3"/>
            <path fill="#FFF" fill-rule="nonzero" d="M14.667 80.607l4.637-16.931A32.613 32.613 0 0 1 14.94 47.34c.007-18.016 14.67-32.673 32.686-32.673 8.743.004 16.95 3.406 23.121 9.582 6.17 6.176 9.568 14.386 9.565 23.117-.008 18.016-14.672 32.675-32.686 32.675-.001 0 .001 0 0 0h-.014a32.664 32.664 0 0 1-15.62-3.977l-17.326 4.543zm18.13-10.459l.992.589a27.135 27.135 0 0 0 13.828 3.786h.01c14.974 0 27.16-12.184 27.167-27.159.002-7.257-2.82-14.08-7.95-19.214-5.13-5.133-11.95-7.961-19.206-7.964-14.986 0-27.172 12.182-27.178 27.156a27.086 27.086 0 0 0 4.153 14.453l.647 1.028-2.745 10.021 10.282-2.696z"/>
            <path fill="#25D366" d="M15.803 79.466L20.28 63.12a31.485 31.485 0 0 1-4.212-15.77c.007-17.392 14.162-31.542 31.554-31.542 8.44.004 16.363 3.29 22.32 9.251 5.958 5.963 9.237 13.888 9.234 22.316-.008 17.393-14.163 31.544-31.553 31.544-.001 0 0 0 0 0h-.014A31.547 31.547 0 0 1 32.53 75.08l-16.728 4.386z"/>
            <path fill="url(#b)" fill-rule="nonzero" d="M0 65.94L4.637 49.01A32.613 32.613 0 0 1 .274 32.673C.282 14.657 14.944 0 32.96 0c8.744.004 16.95 3.407 23.122 9.583 6.17 6.176 9.567 14.385 9.564 23.117-.007 18.015-14.672 32.675-32.686 32.675 0 0 .001 0 0 0h-.014a32.664 32.664 0 0 1-15.619-3.978L0 65.941zm18.13-10.458l.993.588a27.135 27.135 0 0 0 13.827 3.786h.01c14.974 0 27.161-12.184 27.167-27.158.002-7.257-2.82-14.081-7.95-19.214-5.13-5.133-11.95-7.962-19.206-7.965-14.985 0-27.172 12.182-27.178 27.156A27.086 27.086 0 0 0 9.947 47.13l.646 1.027-2.745 10.021 10.282-2.695z" transform="translate(14.667 14.667)"/>
            <path fill="#FFF" d="M39.458 33.68c-.612-1.36-1.256-1.387-1.838-1.41-.476-.02-1.02-.02-1.565-.02-.544 0-1.43.205-2.178 1.022-.749.818-2.859 2.793-2.859 6.811 0 4.019 2.927 7.902 3.335 8.447.408.545 5.65 9.054 13.951 12.327 6.9 2.72 8.303 2.18 9.8 2.044 1.498-.137 4.833-1.976 5.513-3.883.68-1.906.68-3.541.477-3.882-.205-.34-.75-.545-1.566-.953-.817-.409-4.832-2.385-5.58-2.657-.75-.272-1.294-.408-1.838.41-.545.816-2.11 2.655-2.586 3.2-.476.545-.952.613-1.77.205-.816-.41-3.447-1.271-6.567-4.053-2.428-2.165-4.067-4.838-4.543-5.656-.477-.817-.051-1.26.358-1.666.367-.366.817-.954 1.225-1.43.408-.478.544-.818.816-1.362.272-.546.136-1.023-.068-1.431-.204-.409-1.79-4.447-2.517-6.062z"/>
        </g>
        <path fill="#FF2A77" d="M10 83h92v16c0 5.523-4.477 10-10 10H0V93c0-5.523 4.477-10 10-10z"/>
        <path fill="#FFF" fill-rule="nonzero" d="M45.736 101h-1.428l-5.362-8.092V101h-1.372v-9.926h1.834l4.956 7.616v-7.616h1.372V101zm3.234-4.06h3.682c-.019-.504-.187-.917-.504-1.239-.317-.322-.765-.483-1.344-.483-.523 0-.952.17-1.288.511-.336.34-.518.744-.546 1.211zm3.878 1.75l1.134.392a2.982 2.982 0 0 1-1.092 1.533c-.532.397-1.176.595-1.932.595-.943 0-1.743-.324-2.401-.973-.658-.649-.987-1.524-.987-2.625 0-1.027.317-1.876.952-2.548.635-.672 1.39-1.008 2.268-1.008 1.017 0 1.81.32 2.38.959.57.64.854 1.496.854 2.569 0 .168-.01.308-.028.42h-5.068c.01.597.208 1.087.595 1.47s.866.574 1.435.574c.961 0 1.591-.453 1.89-1.358zm6.65-4.424h1.358l1.75 5.068 1.484-5.068h1.386L63.292 101h-1.358l-1.792-5.124-1.75 5.124h-1.386l-2.212-6.734h1.442l1.512 5.068 1.75-5.068z"/>
    </g>
</svg>
