<svg xmlns="http://www.w3.org/2000/svg" 
  xmlns:xlink="http://www.w3.org/1999/xlink" width="20px" height="20px">
  <defs>
    <linearGradient id="PSgrad_02" x1="0%" x2="100%" y1="0%" y2="0%">
      <stop offset="0%" stop-color="rgb(75,117,239)" stop-opacity="1"></stop>
      <stop offset="100%" stop-color="rgb(141,227,255)" stop-opacity="1"></stop>
    </linearGradient>

  </defs>
  <path fill-rule="evenodd" fill="url(#PSgrad_02)" d="M10.000,5.000 C9.310,5.000 8.750,5.560 8.750,6.250 C8.750,6.940 9.310,7.500 10.000,7.500 C10.690,7.500 11.250,6.941 11.250,6.250 C11.250,5.559 10.691,5.000 10.000,5.000 ZM10.000,8.750 C9.310,8.750 8.750,9.309 8.750,10.000 L8.750,13.750 C8.750,14.440 9.310,15.000 10.000,15.000 C10.690,15.000 11.250,14.440 11.250,13.750 L11.250,10.000 C11.250,9.310 10.691,8.750 10.000,8.750 ZM10.000,0.000 C4.486,0.000 0.000,4.486 0.000,10.000 C0.000,15.514 4.486,20.000 10.000,20.000 C15.514,20.000 20.000,15.514 20.000,10.000 C20.000,4.486 15.514,0.000 10.000,0.000 ZM10.000,18.125 C5.519,18.125 1.875,14.480 1.875,10.000 C1.875,5.520 5.519,1.875 10.000,1.875 C14.480,1.875 18.125,5.520 18.125,10.000 C18.125,14.480 14.480,18.125 10.000,18.125 Z"></path>
</svg>