<svg xmlns="http://www.w3.org/2000/svg" 
  xmlns:xlink="http://www.w3.org/1999/xlink">
  <defs>
    <linearGradient id="hovered" x2="0" y2="1">
      <stop offset="0%" stop-color="rgb(154,133,239)"></stop>
      <stop offset="100%" stop-color="rgb(255,133,193)"></stop>
    </linearGradient>

  </defs>

  <path fill-rule="evenodd" fill="url(#hovered)" d="M15.481,4.833 C12.903,4.833 10.961,3.795 10.961,2.416 C10.961,1.038 12.903,-0.000 15.481,-0.000 C18.059,-0.000 20.001,1.038 20.001,2.416 C20.001,3.795 18.059,4.833 15.481,4.833 ZM15.481,1.038 C13.331,1.038 11.959,1.856 11.959,2.421 C11.959,2.985 13.331,3.803 15.481,3.803 C17.630,3.803 19.003,2.985 19.003,2.421 C19.003,1.856 17.630,1.038 15.481,1.038 ZM4.520,10.100 C1.942,10.100 -0.000,9.062 -0.000,7.684 C-0.000,6.306 1.942,5.268 4.520,5.268 C7.098,5.268 9.040,6.306 9.040,7.684 C9.040,9.062 7.098,10.100 4.520,10.100 ZM4.520,6.301 C2.370,6.301 0.998,7.120 0.998,7.684 C0.998,8.248 2.370,9.067 4.520,9.067 C6.670,9.067 8.042,8.248 8.042,7.684 C8.042,7.120 6.670,6.301 4.520,6.301 ZM0.374,10.247 C0.624,10.126 0.923,10.238 1.040,10.497 C1.306,11.087 2.682,11.699 4.520,11.699 C6.408,11.699 7.805,11.052 8.017,10.454 C8.112,10.187 8.399,10.049 8.657,10.148 C8.915,10.247 9.048,10.544 8.957,10.807 C8.749,11.397 8.179,11.892 7.314,12.241 C6.528,12.560 5.539,12.732 4.520,12.732 C2.383,12.732 0.620,12.013 0.133,10.936 C0.017,10.678 0.125,10.368 0.374,10.247 ZM0.374,12.883 C0.624,12.762 0.923,12.874 1.040,13.133 C1.306,13.723 2.682,14.335 4.520,14.335 C6.408,14.335 7.805,13.688 8.017,13.090 C8.112,12.823 8.399,12.685 8.657,12.784 C8.915,12.879 9.048,13.176 8.957,13.443 C8.749,14.033 8.179,14.528 7.314,14.877 C6.528,15.196 5.539,15.368 4.520,15.368 C2.383,15.368 0.620,14.649 0.133,13.572 C0.017,13.314 0.125,13.004 0.374,12.883 ZM0.374,15.515 C0.624,15.394 0.923,15.506 1.040,15.765 C1.306,16.355 2.682,16.966 4.520,16.966 C6.408,16.966 7.805,16.320 8.017,15.721 C8.112,15.454 8.399,15.317 8.657,15.416 C8.915,15.515 9.048,15.812 8.957,16.075 C8.749,16.665 8.179,17.160 7.314,17.509 C6.528,17.828 5.539,18.000 4.520,18.000 C2.383,18.000 0.620,17.281 0.133,16.204 C0.017,15.945 0.125,15.635 0.374,15.515 ZM11.339,4.979 C11.589,4.859 11.888,4.971 12.005,5.229 C12.271,5.819 13.647,6.431 15.485,6.431 C17.373,6.431 18.770,5.785 18.982,5.186 C19.077,4.919 19.364,4.781 19.622,4.880 C19.880,4.979 20.013,5.276 19.922,5.539 C19.714,6.129 19.144,6.625 18.279,6.973 C17.493,7.292 16.504,7.465 15.485,7.465 C13.348,7.465 11.585,6.745 11.098,5.668 C10.982,5.410 11.090,5.100 11.339,4.979 ZM11.339,7.615 C11.589,7.495 11.888,7.607 12.005,7.865 C12.271,8.455 13.647,9.067 15.485,9.067 C17.373,9.067 18.770,8.421 18.982,7.822 C19.077,7.555 19.364,7.417 19.622,7.516 C19.880,7.615 20.013,7.912 19.922,8.175 C19.714,8.765 19.144,9.261 18.279,9.610 C17.493,9.928 16.504,10.100 15.485,10.100 C13.348,10.100 11.585,9.381 11.098,8.304 C10.982,8.046 11.090,7.736 11.339,7.615 ZM11.339,10.247 C11.589,10.126 11.888,10.238 12.005,10.497 C12.271,11.087 13.647,11.699 15.485,11.699 C17.373,11.699 18.770,11.052 18.982,10.454 C19.077,10.187 19.364,10.049 19.622,10.148 C19.880,10.247 20.013,10.544 19.922,10.807 C19.714,11.397 19.144,11.892 18.279,12.241 C17.493,12.560 16.504,12.732 15.485,12.732 C13.348,12.732 11.585,12.013 11.098,10.936 C10.982,10.678 11.090,10.368 11.339,10.247 ZM11.339,12.883 C11.589,12.762 11.888,12.874 12.005,13.133 C12.271,13.723 13.647,14.335 15.485,14.335 C17.373,14.335 18.770,13.688 18.982,13.090 C19.077,12.823 19.364,12.685 19.622,12.784 C19.880,12.879 20.013,13.176 19.922,13.443 C19.714,14.033 19.144,14.528 18.279,14.877 C17.493,15.196 16.504,15.368 15.485,15.368 C13.348,15.368 11.585,14.649 11.098,13.572 C10.982,13.314 11.090,13.004 11.339,12.883 ZM11.339,15.515 C11.589,15.394 11.888,15.506 12.005,15.765 C12.271,16.355 13.647,16.966 15.485,16.966 C17.373,16.966 18.770,16.320 18.982,15.721 C19.077,15.454 19.364,15.317 19.622,15.416 C19.880,15.515 20.013,15.812 19.922,16.075 C19.714,16.665 19.144,17.160 18.279,17.509 C17.493,17.828 16.504,18.000 15.485,18.000 C13.348,18.000 11.585,17.281 11.098,16.204 C10.982,15.945 11.090,15.635 11.339,15.515 Z"></path>
</svg>