<svg xmlns="http://www.w3.org/2000/svg" 
  xmlns:xlink="http://www.w3.org/1999/xlink" width="12px" height="14px">
  <path fill-rule="evenodd" fill="rgb(255, 255, 255)" d="M5.527,6.244 C5.709,6.051 5.709,5.738 5.527,5.545 C5.345,5.353 5.048,5.353 4.866,5.545 L2.393,8.159 C1.971,8.604 1.744,9.183 1.744,9.809 C1.744,10.435 1.971,11.013 2.393,11.459 C3.259,12.374 4.661,12.374 5.516,11.459 L11.100,5.558 C11.681,4.943 12.000,4.124 12.000,3.257 C12.000,2.390 11.681,1.571 11.100,0.957 C9.892,-0.320 7.943,-0.320 6.735,0.957 L1.162,6.846 C0.410,7.641 0.000,8.689 0.000,9.809 C0.000,10.929 0.410,11.989 1.162,12.772 C1.914,13.566 2.906,14.000 3.966,14.000 C5.026,14.000 6.029,13.566 6.769,12.772 L9.242,10.158 C9.424,9.965 9.424,9.652 9.242,9.460 C9.060,9.267 8.764,9.267 8.581,9.460 L6.108,12.073 C5.538,12.675 4.775,13.012 3.966,13.012 C3.157,13.012 2.393,12.675 1.823,12.073 C1.254,11.471 0.935,10.664 0.935,9.809 C0.935,8.954 1.254,8.147 1.823,7.545 L7.396,1.655 C7.806,1.222 8.342,0.993 8.912,0.993 C9.481,0.993 10.028,1.234 10.427,1.655 C10.838,2.089 11.054,2.655 11.054,3.257 C11.054,3.859 10.826,4.437 10.427,4.859 L4.843,10.760 C4.353,11.278 3.544,11.278 3.043,10.760 C2.803,10.507 2.667,10.170 2.667,9.809 C2.667,9.448 2.803,9.110 3.043,8.857 L5.527,6.244 Z"></path>
</svg>