<svg xmlns="http://www.w3.org/2000/svg" 
  xmlns:xlink="http://www.w3.org/1999/xlink" width="12px" height="16px">
  <path fill-rule="evenodd" fill="rgb(255, 255, 255)" d="M7.133,15.101 L7.128,15.126 L7.128,4.419 L10.174,7.785 C10.323,7.949 10.524,8.040 10.735,8.040 C10.947,8.040 11.147,7.949 11.296,7.785 L11.769,7.261 C11.918,7.096 12.000,6.877 12.000,6.643 C12.000,6.409 11.918,6.189 11.770,6.024 L6.560,0.255 C6.411,0.089 6.212,-0.001 6.001,-0.000 C5.788,-0.001 5.589,0.089 5.440,0.255 L0.230,6.024 C0.082,6.189 0.000,6.408 0.000,6.643 C0.000,6.877 0.082,7.096 0.230,7.261 L0.704,7.785 C0.852,7.949 1.050,8.040 1.262,8.040 C1.473,8.040 1.661,7.949 1.809,7.785 L4.872,4.381 L4.872,15.113 C4.872,15.595 5.248,16.000 5.683,16.000 L6.352,16.000 C6.787,16.000 7.133,15.583 7.133,15.101 Z" />
</svg>