<svg xmlns="http://www.w3.org/2000/svg" 
  xmlns:xlink="http://www.w3.org/1999/xlink" width="20px" height="20px">
  <defs>
    <linearGradient id="PSgrad_5" x1="0%" x2="100%" y1="0%" y2="0%">
      <stop offset="0%" stop-color="rgb(154,133,239)" stop-opacity="1"></stop>
      <stop offset="100%" stop-color="rgb(255,133,193)" stop-opacity="1"></stop>
    </linearGradient>

  </defs>
  <path fill-rule="evenodd" fill="url(#PSgrad_5)" d="M19.214,15.053 C17.416,13.491 15.752,11.286 15.752,5.781 C15.752,2.593 13.172,-0.001 10.000,-0.001 C6.828,-0.001 4.247,2.593 4.247,5.781 C4.247,11.290 2.584,13.493 0.785,15.055 C0.286,15.491 -0.000,16.120 -0.000,16.780 C-0.000,17.143 0.293,17.438 0.654,17.438 L6.864,17.438 C7.167,18.899 8.458,20.000 10.000,20.000 C11.542,20.000 12.833,18.899 13.136,17.438 L19.346,17.438 C19.707,17.438 20.000,17.143 20.000,16.780 C20.000,16.115 19.713,15.485 19.214,15.053 ZM10.000,18.685 C9.185,18.685 8.489,18.165 8.222,17.438 L11.778,17.438 C11.511,18.165 10.815,18.685 10.000,18.685 ZM1.566,16.123 C1.590,16.096 1.616,16.072 1.642,16.048 C4.386,13.668 5.556,10.597 5.556,5.781 C5.556,3.318 7.550,1.315 10.000,1.315 C12.450,1.315 14.444,3.318 14.444,5.781 C14.444,10.593 15.614,13.663 18.359,16.049 C18.386,16.072 18.411,16.097 18.435,16.123 L1.566,16.123 Z"></path>
</svg>