<svg xmlns="http://www.w3.org/2000/svg" 
  xmlns:xlink="http://www.w3.org/1999/xlink">
  <defs>
    <linearGradient id="hovered" x2="0" y2="1">
      <stop offset="0%" stop-color="rgb(154,133,239)"></stop>
      <stop offset="100%" stop-color="rgb(255,133,193)"></stop>
    </linearGradient>

  </defs>
  <path fill-rule="evenodd" fill="url(#hovered)" d="M16.406,16.266 L2.435,16.266 L5.253,19.016 L4.244,20.000 L0.209,16.062 C-0.070,15.790 -0.070,15.349 0.209,15.077 L4.244,11.139 L5.253,12.123 L2.435,14.873 L16.406,14.873 C17.588,14.873 18.546,13.938 18.546,12.785 L18.546,10.000 L19.973,10.000 L19.973,12.785 C19.971,14.706 18.375,16.263 16.406,16.266 ZM15.729,8.861 L14.720,7.877 L17.538,5.127 L3.566,5.127 C2.384,5.127 1.426,6.062 1.426,7.215 L1.426,10.000 L-0.000,10.000 L-0.000,7.215 C0.002,5.294 1.598,3.736 3.566,3.734 L17.538,3.734 L14.720,0.984 L15.729,-0.000 L19.764,3.938 C20.043,4.210 20.043,4.651 19.764,4.923 L15.729,8.861 Z"></path>
</svg>