<svg xmlns="http://www.w3.org/2000/svg" 
  xmlns:xlink="http://www.w3.org/1999/xlink" width="20px" height="20px">
  <path fill-rule="evenodd" fill="rgb(191, 196, 210)" d="M19.896,0.970 C20.087,0.682 20.008,0.295 19.720,0.104 C19.431,-0.087 19.044,-0.008 18.854,0.281 L16.542,3.780 C16.445,3.764 16.350,3.750 16.250,3.750 C15.216,3.750 14.375,4.592 14.375,5.625 C14.375,5.824 14.414,6.012 14.472,6.192 L12.239,9.039 C11.951,8.859 11.614,8.750 11.250,8.750 C10.242,8.750 9.423,9.552 9.383,10.551 L5.851,12.607 C5.508,12.165 4.977,11.875 4.375,11.875 C3.341,11.875 2.500,12.716 2.500,13.750 C2.500,14.157 2.634,14.531 2.854,14.838 L0.103,19.032 C-0.087,19.321 -0.007,19.708 0.282,19.898 C0.388,19.967 0.507,20.000 0.625,20.000 C0.828,20.000 1.028,19.901 1.148,19.718 L3.882,15.551 C4.040,15.595 4.204,15.625 4.375,15.625 C5.383,15.625 6.203,14.824 6.243,13.825 L9.775,11.769 C10.118,12.210 10.648,12.500 11.250,12.500 C12.284,12.500 13.125,11.659 13.125,10.625 C13.125,10.426 13.086,10.238 13.029,10.059 L15.261,7.212 C15.549,7.392 15.886,7.500 16.250,7.500 C17.283,7.500 18.125,6.659 18.125,5.625 C18.125,5.146 17.938,4.713 17.642,4.381 L19.896,0.970 ZM4.375,14.375 C4.030,14.375 3.750,14.095 3.750,13.750 C3.750,13.406 4.030,13.125 4.375,13.125 C4.720,13.125 5.000,13.406 5.000,13.750 C5.000,14.095 4.720,14.375 4.375,14.375 ZM11.250,11.250 C10.905,11.250 10.625,10.970 10.625,10.625 C10.625,10.281 10.905,10.000 11.250,10.000 C11.595,10.000 11.875,10.281 11.875,10.625 C11.875,10.970 11.595,11.250 11.250,11.250 ZM16.250,6.250 C15.905,6.250 15.625,5.970 15.625,5.625 C15.625,5.281 15.905,5.000 16.250,5.000 C16.594,5.000 16.875,5.281 16.875,5.625 C16.875,5.970 16.594,6.250 16.250,6.250 ZM3.750,18.750 C3.404,18.750 3.125,19.030 3.125,19.375 C3.125,19.721 3.404,20.000 3.750,20.000 C4.096,20.000 4.375,19.721 4.375,19.375 C4.375,19.030 4.096,18.750 3.750,18.750 ZM6.875,18.750 C6.529,18.750 6.250,19.030 6.250,19.375 C6.250,19.721 6.529,20.000 6.875,20.000 C7.221,20.000 7.500,19.721 7.500,19.375 C7.500,19.030 7.221,18.750 6.875,18.750 ZM10.000,18.750 C9.654,18.750 9.375,19.030 9.375,19.375 C9.375,19.721 9.654,20.000 10.000,20.000 C10.346,20.000 10.625,19.721 10.625,19.375 C10.625,19.030 10.346,18.750 10.000,18.750 ZM13.125,18.750 C12.780,18.750 12.500,19.030 12.500,19.375 C12.500,19.721 12.780,20.000 13.125,20.000 C13.471,20.000 13.750,19.721 13.750,19.375 C13.750,19.030 13.471,18.750 13.125,18.750 ZM16.250,18.750 C15.905,18.750 15.625,19.030 15.625,19.375 C15.625,19.721 15.905,20.000 16.250,20.000 C16.596,20.000 16.875,19.721 16.875,19.375 C16.875,19.030 16.596,18.750 16.250,18.750 ZM19.375,18.750 C19.030,18.750 18.750,19.030 18.750,19.375 C18.750,19.721 19.030,20.000 19.375,20.000 C19.721,20.000 20.000,19.721 20.000,19.375 C20.000,19.030 19.721,18.750 19.375,18.750 ZM0.625,16.875 C0.971,16.875 1.250,16.596 1.250,16.250 C1.250,15.905 0.971,15.625 0.625,15.625 C0.279,15.625 0.000,15.905 0.000,16.250 C0.000,16.596 0.279,16.875 0.625,16.875 ZM0.625,13.750 C0.971,13.750 1.250,13.471 1.250,13.125 C1.250,12.780 0.971,12.500 0.625,12.500 C0.279,12.500 0.000,12.780 0.000,13.125 C0.000,13.471 0.279,13.750 0.625,13.750 ZM0.625,10.625 C0.971,10.625 1.250,10.346 1.250,10.000 C1.250,9.655 0.971,9.375 0.625,9.375 C0.279,9.375 0.000,9.655 0.000,10.000 C0.000,10.346 0.279,10.625 0.625,10.625 ZM0.625,7.500 C0.971,7.500 1.250,7.221 1.250,6.875 C1.250,6.530 0.971,6.250 0.625,6.250 C0.279,6.250 0.000,6.530 0.000,6.875 C0.000,7.221 0.279,7.500 0.625,7.500 ZM0.625,4.375 C0.971,4.375 1.250,4.096 1.250,3.750 C1.250,3.405 0.971,3.125 0.625,3.125 C0.279,3.125 0.000,3.405 0.000,3.750 C0.000,4.096 0.279,4.375 0.625,4.375 ZM0.625,1.250 C0.971,1.250 1.250,0.972 1.250,0.625 C1.250,0.280 0.971,0.000 0.625,0.000 C0.279,0.000 0.000,0.280 0.000,0.625 C0.000,0.972 0.279,1.250 0.625,1.250 Z"></path>
</svg>