<svg xmlns="http://www.w3.org/2000/svg" 
  xmlns:xlink="http://www.w3.org/1999/xlink" width="16px" height="16px">
  <path fill-rule="evenodd" fill="rgb(30, 180, 104)" d="M8.000,16.000 C3.582,16.000 0.000,12.418 0.000,8.000 C0.000,3.582 3.582,-0.000 8.000,-0.000 C12.418,-0.000 16.000,3.582 16.000,8.000 C16.000,12.418 12.418,16.000 8.000,16.000 ZM8.000,1.448 C4.382,1.448 1.448,4.381 1.448,8.000 C1.448,11.619 4.382,14.552 8.000,14.552 C11.619,14.552 14.552,11.619 14.552,8.000 C14.548,4.383 11.617,1.452 8.000,1.448 ZM4.080,8.080 L5.144,7.016 L7.128,9.008 L11.000,5.064 L12.232,6.328 L7.208,11.200 L4.080,8.080 Z"/>
</svg>