<svg xmlns="http://www.w3.org/2000/svg" 
  xmlns:xlink="http://www.w3.org/1999/xlink" width="20px" height="20px">
  <path fill-rule="evenodd" fill="rgb(255, 255, 255)" d="M10.000,19.998 C4.487,19.998 0.002,15.513 0.002,10.000 C0.002,4.487 4.487,0.002 10.000,0.002 C15.513,0.002 19.998,4.487 19.998,10.000 C19.998,15.513 15.513,19.998 10.000,19.998 ZM10.000,1.613 C5.375,1.613 1.613,5.375 1.613,9.999 C1.613,14.624 5.375,18.386 10.000,18.386 C14.624,18.386 18.386,14.624 18.386,10.000 C18.386,5.375 14.624,1.613 10.000,1.613 ZM9.090,13.187 C8.932,13.345 8.727,13.424 8.520,13.424 C8.314,13.424 8.108,13.345 7.951,13.187 L5.673,10.910 C5.358,10.596 5.358,10.085 5.673,9.771 C5.988,9.456 6.498,9.456 6.812,9.771 L8.520,11.479 L13.187,6.812 C13.501,6.497 14.011,6.497 14.326,6.812 C14.641,7.126 14.641,7.636 14.326,7.951 L9.090,13.187 Z"></path>
</svg>