<svg class="mr15" 
  xmlns="http://www.w3.org/2000/svg" 
  xmlns:xlink="http://www.w3.org/1999/xlink" width="24px" height="24px">
  <path fill-rule="evenodd" fill="rgb(191, 196, 210)" d="M23.999,12.011 C23.993,18.624 18.613,24.000 12.000,24.000 C5.383,24.000 0.000,18.617 0.000,12.000 C0.000,5.383 5.383,0.000 12.000,0.000 C18.613,0.000 23.993,5.377 23.999,11.989 C23.999,11.993 24.000,11.996 24.000,12.000 C24.000,12.004 23.999,12.007 23.999,12.011 ZM21.242,11.232 L22.435,11.232 C22.059,6.073 17.927,1.940 12.768,1.564 L12.768,2.758 C12.768,3.182 12.424,3.526 12.000,3.526 C11.576,3.526 11.232,3.182 11.232,2.758 L11.232,1.564 C6.073,1.940 1.940,6.073 1.564,11.232 L2.758,11.232 C3.182,11.232 3.526,11.576 3.526,12.000 C3.526,12.424 3.182,12.768 2.758,12.768 L1.564,12.768 C1.940,17.927 6.073,22.060 11.232,22.436 L11.232,21.242 C11.232,20.818 11.576,20.474 12.000,20.474 C12.424,20.474 12.768,20.818 12.768,21.242 L12.768,22.436 C17.927,22.060 22.060,17.927 22.435,12.768 L21.242,12.768 C20.818,12.768 20.474,12.424 20.474,12.000 C20.474,11.575 20.818,11.232 21.242,11.232 ZM16.021,16.788 C15.824,16.788 15.628,16.713 15.477,16.563 L11.457,12.543 C11.313,12.399 11.232,12.204 11.232,12.000 L11.232,5.485 C11.232,5.060 11.576,4.717 12.000,4.717 C12.424,4.717 12.768,5.060 12.768,5.485 L12.768,11.682 L16.563,15.477 C16.863,15.777 16.863,16.263 16.563,16.563 C16.413,16.714 16.217,16.788 16.021,16.788 Z"></path>
</svg>