<svg xmlns="http://www.w3.org/2000/svg" 
  xmlns:xlink="http://www.w3.org/1999/xlink" width="22px" height="20px">
  <path fill-rule="evenodd" fill="rgb(255, 255, 255)" d="M21.782,12.970 L13.826,18.977 C13.063,19.552 12.089,19.797 11.156,19.642 L4.746,18.586 L3.256,19.868 C3.151,19.958 3.027,20.000 2.904,20.000 C2.748,20.000 2.593,19.929 2.483,19.797 C2.286,19.557 2.318,19.199 2.552,19.000 L4.234,17.553 C4.358,17.449 4.518,17.407 4.673,17.430 L11.325,18.524 C11.970,18.628 12.642,18.463 13.173,18.062 L20.630,12.428 C20.621,12.423 20.616,12.419 20.607,12.414 C20.319,12.230 19.985,12.230 19.587,12.414 C18.193,13.050 15.235,14.521 15.203,14.535 C14.933,14.672 14.604,14.554 14.471,14.272 C14.338,13.989 14.453,13.654 14.727,13.517 C14.759,13.503 17.736,12.027 19.144,11.381 C20.634,10.702 21.617,11.650 21.933,12.244 C22.065,12.494 21.997,12.801 21.782,12.970 ZM15.523,5.148 C14.860,5.148 14.229,4.885 13.758,4.394 C12.784,3.390 12.784,1.759 13.758,0.755 C14.229,0.269 14.855,0.000 15.523,0.000 C16.190,0.000 16.817,0.269 17.287,0.755 C18.261,1.759 18.261,3.390 17.287,4.394 C16.817,4.880 16.190,5.148 15.523,5.148 ZM16.519,1.556 C16.254,1.282 15.902,1.132 15.527,1.132 C15.152,1.132 14.800,1.282 14.535,1.556 C13.991,2.117 13.991,3.031 14.535,3.597 C14.800,3.871 15.152,4.022 15.527,4.022 C15.902,4.022 16.254,3.871 16.519,3.597 C17.064,3.036 17.064,2.117 16.519,1.556 ZM14.032,10.627 C13.424,11.250 12.624,11.594 11.769,11.594 C10.914,11.594 10.114,11.250 9.506,10.627 C8.258,9.340 8.258,7.251 9.506,5.964 C10.114,5.342 10.914,4.998 11.769,4.998 C12.624,4.998 13.429,5.342 14.032,5.964 C15.280,7.251 15.280,9.340 14.032,10.627 ZM13.255,6.766 C12.857,6.355 12.331,6.129 11.769,6.129 C11.207,6.129 10.681,6.355 10.283,6.766 C9.465,7.610 9.465,8.986 10.283,9.830 C10.681,10.240 11.207,10.467 11.769,10.467 C12.331,10.467 12.857,10.240 13.255,9.830 C14.073,8.986 14.073,7.610 13.255,6.766 ZM12.958,13.847 C13.026,14.588 12.656,15.761 11.362,15.973 C10.059,16.190 8.052,16.063 7.965,16.059 C7.663,16.040 7.435,15.771 7.453,15.460 C7.471,15.148 7.732,14.913 8.034,14.932 C8.052,14.932 10.009,15.054 11.188,14.861 C11.508,14.809 11.705,14.658 11.801,14.389 C11.810,14.366 11.819,14.338 11.824,14.314 L8.235,13.192 C6.740,12.725 4.989,13.588 4.815,13.682 L0.832,16.157 C0.741,16.210 0.645,16.238 0.549,16.238 C0.362,16.238 0.183,16.139 0.078,15.964 C-0.077,15.695 0.005,15.347 0.266,15.186 L4.266,12.692 C4.275,12.683 4.289,12.678 4.298,12.673 C4.390,12.626 6.566,11.485 8.550,12.103 L12.569,13.357 C12.784,13.423 12.935,13.616 12.958,13.847 Z"></path>
</svg>