<svg xmlns="http://www.w3.org/2000/svg" 
  xmlns:xlink="http://www.w3.org/1999/xlink" width="20px" height="20px">
  <path fill-rule="evenodd" fill="rgb(255, 255, 255)" d="M17.857,17.143 C17.463,17.143 17.143,16.823 17.143,16.429 C17.143,16.034 17.463,15.714 17.857,15.714 C18.252,15.714 18.571,15.395 18.571,15.000 L18.571,2.143 C18.571,1.748 18.252,1.429 17.857,1.429 L5.000,1.429 C4.605,1.429 4.286,1.748 4.286,2.143 C4.286,2.537 3.966,2.857 3.572,2.857 C3.177,2.857 2.857,2.537 2.857,2.143 C2.857,0.959 3.817,0.000 5.000,0.000 L17.857,0.000 C19.041,0.000 20.000,0.959 20.000,2.143 L20.000,15.000 C20.000,16.183 19.041,17.143 17.857,17.143 ZM16.428,5.714 L16.428,17.857 C16.428,19.041 15.469,20.000 14.286,20.000 L2.143,20.000 C0.959,20.000 0.000,19.041 0.000,17.857 L0.000,5.714 C0.000,4.531 0.959,3.571 2.143,3.571 L14.286,3.571 C15.469,3.571 16.428,4.531 16.428,5.714 ZM1.429,5.714 L1.429,17.857 C1.429,18.252 1.748,18.572 2.143,18.572 L14.286,18.572 C14.680,18.572 15.000,18.252 15.000,17.857 L15.000,5.714 C15.000,5.320 14.680,5.000 14.286,5.000 L2.143,5.000 C1.748,5.000 1.429,5.320 1.429,5.714 Z"></path>
</svg>