<svg xmlns="http://www.w3.org/2000/svg" 
  xmlns:xlink="http://www.w3.org/1999/xlink" width="32px" height="30px">
  <path fill-rule="evenodd" fill="rgb(255, 255, 255)" d="M31.620,3.545 L16.213,18.650 C15.961,18.898 15.630,19.021 15.299,19.021 C14.969,19.021 14.638,18.898 14.385,18.650 L10.183,14.531 C9.679,14.036 9.679,13.233 10.183,12.738 C10.688,12.243 11.507,12.243 12.011,12.738 L15.299,15.962 L29.792,1.752 C30.297,1.258 31.115,1.258 31.620,1.752 C32.125,2.247 32.125,3.050 31.620,3.545 ZM20.474,3.614 C18.837,2.899 17.098,2.536 15.307,2.535 C15.304,2.535 15.302,2.535 15.299,2.535 C11.906,2.535 8.715,3.829 6.314,6.180 C3.912,8.534 2.587,11.663 2.585,14.993 C2.581,21.866 8.282,27.461 15.292,27.465 C15.294,27.465 15.297,27.465 15.299,27.465 C18.693,27.465 21.883,26.171 24.284,23.819 C26.687,21.466 28.011,18.337 28.013,15.007 L28.013,13.731 C28.013,13.031 28.592,12.464 29.306,12.464 C30.020,12.464 30.598,13.031 30.598,13.731 L30.598,15.008 C30.596,19.015 29.002,22.781 26.111,25.613 C23.222,28.442 19.382,30.000 15.299,30.000 C15.296,30.000 15.294,30.000 15.290,30.000 C11.204,29.998 7.363,28.435 4.475,25.601 C1.587,22.766 -0.002,18.998 0.000,14.992 C0.003,10.985 1.596,7.219 4.488,4.387 C7.377,1.558 11.216,0.000 15.299,0.000 C15.302,0.000 15.305,0.000 15.308,0.000 C17.464,0.001 19.556,0.438 21.526,1.299 C22.178,1.583 22.471,2.333 22.181,2.972 C21.890,3.611 21.126,3.899 20.474,3.614 Z"></path>
</svg>