<svg xmlns="http://www.w3.org/2000/svg" 
  xmlns:xlink="http://www.w3.org/1999/xlink" width="30px" height="30px">
  <path fill-rule="evenodd" fill="rgb(212, 215, 225)" d="M25.312,25.254 L24.141,25.254 L24.141,25.313 C24.141,27.251 22.563,28.828 20.625,28.828 L17.051,28.828 L17.051,28.791 C16.651,29.512 15.883,30.000 15.000,30.000 C13.706,30.000 12.656,28.951 12.656,27.656 C12.656,26.362 13.706,25.313 15.000,25.313 C15.883,25.313 16.651,25.801 17.051,26.522 L17.051,26.484 L20.625,26.484 C21.271,26.484 21.797,25.959 21.797,25.313 L21.797,24.082 L21.797,21.094 L21.797,13.066 C21.797,12.419 22.322,11.894 22.969,11.894 L25.312,11.894 C27.897,11.894 30.000,13.997 30.000,16.582 L30.000,20.566 C30.000,23.151 27.897,25.254 25.312,25.254 ZM27.656,16.582 C27.656,15.290 26.605,14.238 25.312,14.238 L24.141,14.238 L24.141,21.094 L24.141,22.910 L25.312,22.910 C26.605,22.910 27.656,21.859 27.656,20.566 L27.656,16.582 ZM26.181,9.771 C25.574,9.995 24.900,9.685 24.675,9.078 C23.185,5.050 19.297,2.344 15.000,2.344 C9.570,2.344 5.107,6.563 4.716,11.894 L7.031,11.894 C7.678,11.894 8.203,12.419 8.203,13.066 L8.203,24.082 C8.203,24.729 7.678,25.254 7.031,25.254 L4.687,25.254 C2.103,25.254 -0.000,23.151 -0.000,20.566 L-0.000,16.582 C-0.000,14.850 0.945,13.336 2.345,12.524 C2.379,9.193 3.691,6.066 6.051,3.707 C8.441,1.316 11.619,0.000 15.000,0.000 C17.637,0.000 20.165,0.804 22.311,2.324 C24.407,3.810 25.985,5.864 26.874,8.265 C27.098,8.872 26.788,9.546 26.181,9.771 ZM2.344,16.582 L2.344,20.566 C2.344,21.859 3.395,22.910 4.687,22.910 L5.859,22.910 L5.859,14.238 L4.687,14.238 C3.395,14.238 2.344,15.290 2.344,16.582 Z"></path>
</svg>