<svg xmlns="http://www.w3.org/2000/svg" 
  xmlns:xlink="http://www.w3.org/1999/xlink" width="20px" height="20px">
  <path fill-rule="evenodd" fill="rgb(255, 255, 255)" d="M19.568,12.737 C19.309,12.325 18.955,12.004 18.548,11.790 C18.687,9.867 18.129,8.260 17.278,8.182 L17.247,8.179 C17.207,6.553 16.705,4.938 15.770,3.556 C14.265,1.329 11.841,-0.000 9.287,-0.000 C6.733,-0.000 4.309,1.329 2.803,3.556 C1.868,4.939 1.367,6.555 1.327,8.182 L1.296,8.185 C0.431,8.264 -0.136,9.922 0.030,11.888 C0.196,13.855 1.031,15.385 1.896,15.305 L1.896,15.305 L4.718,15.047 C4.956,15.025 5.176,14.906 5.329,14.715 C5.483,14.524 5.557,14.277 5.536,14.029 L5.094,8.780 C5.051,8.263 4.614,7.881 4.118,7.927 L3.372,7.995 C3.439,6.869 3.803,5.763 4.468,4.780 C5.609,3.092 7.366,2.124 9.287,2.124 C11.208,2.124 12.965,3.092 14.106,4.780 C14.770,5.762 15.134,6.867 15.202,7.992 L14.456,7.923 C13.960,7.878 13.524,8.260 13.480,8.777 L13.038,14.026 C13.017,14.274 13.091,14.521 13.245,14.712 C13.399,14.903 13.618,15.022 13.856,15.044 L16.678,15.302 L16.678,15.302 C17.314,15.360 17.932,14.544 18.282,13.328 C18.335,13.387 18.389,13.444 18.432,13.514 C18.671,13.893 18.710,14.368 18.537,14.784 L17.641,16.934 C17.369,17.587 16.752,18.009 16.069,18.009 L14.863,18.009 C14.765,17.678 14.480,17.434 14.131,17.434 L11.896,17.434 C11.467,17.434 11.118,17.797 11.118,18.245 L11.118,19.189 C11.118,19.637 11.467,20.000 11.896,20.000 L14.131,20.000 C14.480,20.000 14.765,19.755 14.863,19.425 L16.069,19.425 C17.293,19.425 18.399,18.668 18.886,17.498 L19.782,15.348 C20.138,14.493 20.058,13.517 19.568,12.737 Z"></path>
</svg>