<svg xmlns="http://www.w3.org/2000/svg" 
  xmlns:xlink="http://www.w3.org/1999/xlink" width="46px" height="46px">
  <defs>
    <linearGradient id="PSgrad_4" x1="0%" x2="100%" y1="0%" y2="0%">
      <stop offset="0%" stop-color="rgb(8,174,234)" stop-opacity="1"></stop>
      <stop offset="100%" stop-color="rgb(42,245,152)" stop-opacity="1"></stop>
    </linearGradient>

  </defs>
  <path fill-rule="evenodd" fill="url(#PSgrad_4)" d="M23.000,46.000 C10.318,46.000 0.000,35.682 0.000,23.000 C0.000,10.318 10.318,0.000 23.000,0.000 C35.682,0.000 46.000,10.318 46.000,23.000 C46.000,35.682 35.682,46.000 23.000,46.000 ZM23.000,2.298 C11.584,2.298 2.298,11.584 2.298,23.000 C2.298,34.416 11.584,43.702 23.000,43.702 C34.416,43.702 43.702,34.416 43.702,23.000 C43.702,11.584 34.416,2.298 23.000,2.298 ZM23.816,33.806 C23.591,34.031 23.300,34.134 23.000,34.134 C22.700,34.134 22.409,34.022 22.184,33.797 L15.721,27.334 C15.271,26.883 15.271,26.161 15.721,25.711 C16.171,25.261 16.894,25.261 17.344,25.711 L21.846,30.213 L21.846,13.010 C21.846,12.372 22.362,11.856 23.000,11.856 C23.638,11.856 24.154,12.372 24.154,13.010 L24.154,30.223 L28.656,25.720 C29.106,25.270 29.829,25.270 30.279,25.720 C30.729,26.170 30.729,26.893 30.279,27.343 L23.816,33.806 Z"></path>
</svg>