<svg xmlns="http://www.w3.org/2000/svg" 
  xmlns:xlink="http://www.w3.org/1999/xlink" width="24px" height="32px">
  <path fill-rule="evenodd" fill="rgb(255, 255, 255)" d="M22.422,32.000 L1.578,32.000 C0.708,32.000 -0.000,31.292 -0.000,30.423 L-0.000,1.577 C-0.000,0.707 0.708,-0.000 1.578,-0.000 L17.514,-0.000 C17.721,-0.000 17.908,0.084 18.043,0.219 C18.044,0.219 18.044,0.219 18.044,0.219 L23.780,5.955 C23.922,6.096 23.996,6.285 23.998,6.477 C23.999,6.479 24.000,6.482 24.000,6.485 L24.000,30.423 C24.000,31.292 23.292,32.000 22.422,32.000 ZM18.263,2.558 L18.263,5.656 C18.263,5.700 18.299,5.735 18.342,5.735 L21.441,5.735 L18.263,2.558 ZM22.501,7.234 L18.342,7.234 C17.472,7.234 16.765,6.526 16.765,5.656 L16.765,1.499 L1.578,1.499 C1.534,1.499 1.499,1.534 1.499,1.577 L1.499,30.423 C1.499,30.466 1.534,30.502 1.578,30.502 L22.422,30.502 C22.466,30.502 22.501,30.466 22.501,30.423 L22.501,30.423 L22.501,7.234 ZM18.632,20.792 L5.368,20.792 C4.954,20.792 4.619,20.456 4.619,20.042 C4.619,19.629 4.954,19.293 5.368,19.293 L18.632,19.293 C19.046,19.293 19.381,19.629 19.381,20.042 C19.381,20.456 19.046,20.792 18.632,20.792 ZM18.632,16.271 L5.368,16.271 C4.954,16.271 4.619,15.935 4.619,15.521 C4.619,15.108 4.954,14.772 5.368,14.772 L18.632,14.772 C19.046,14.772 19.381,15.108 19.381,15.521 C19.381,15.935 19.046,16.271 18.632,16.271 ZM18.632,11.749 L5.368,11.749 C4.954,11.749 4.619,11.414 4.619,11.000 C4.619,10.586 4.954,10.251 5.368,10.251 L18.632,10.251 C19.046,10.251 19.381,10.586 19.381,11.000 C19.381,11.414 19.046,11.749 18.632,11.749 ZM5.368,23.815 L12.000,23.815 C12.414,23.815 12.749,24.150 12.749,24.564 C12.749,24.978 12.414,25.313 12.000,25.313 L5.368,25.313 C4.954,25.313 4.619,24.978 4.619,24.564 C4.619,24.150 4.954,23.815 5.368,23.815 Z"></path>
</svg>