<svg 
 xmlns="http://www.w3.org/2000/svg"
 xmlns:xlink="http://www.w3.org/1999/xlink"
 width="9px" height="13px">
<path fill-rule="evenodd"  fill="rgb(242, 38, 96)"
 d="M4.382,11.836 L7.842,8.266 C8.053,8.048 8.053,7.694 7.842,7.476 C7.631,7.258 7.288,7.258 7.077,7.476 L4.541,10.095 L4.541,0.558 C4.541,0.250 4.299,-0.000 4.000,-0.000 C3.701,-0.000 3.459,0.250 3.459,0.558 L3.459,10.095 L0.923,7.476 C0.712,7.258 0.369,7.258 0.158,7.476 C0.053,7.585 0.000,7.728 0.000,7.871 C0.000,8.014 0.053,8.157 0.158,8.266 L3.618,11.836 C3.829,12.054 4.171,12.054 4.382,11.836 Z"/>
</svg>