<svg xmlns="http://www.w3.org/2000/svg" 
  xmlns:xlink="http://www.w3.org/1999/xlink" width="30px" height="30px">
  <path fill-rule="evenodd" fill="rgb(212, 215, 225)" d="M15.000,-0.000 C6.729,-0.000 -0.000,6.729 -0.000,15.000 C-0.000,23.271 6.729,30.000 15.000,30.000 C15.619,30.000 16.120,29.498 16.120,28.879 C16.120,28.261 15.619,27.759 15.000,27.759 C7.964,27.759 2.241,22.035 2.241,15.000 C2.241,7.964 7.964,2.241 15.000,2.241 C22.035,2.241 27.759,7.964 27.759,15.000 L27.759,18.470 C27.759,19.766 26.705,20.820 25.409,20.820 C24.114,20.820 23.060,19.766 23.060,18.470 L23.060,15.000 C23.060,10.556 19.444,6.940 15.000,6.940 C10.555,6.940 6.940,10.556 6.940,15.000 C6.940,19.445 10.555,23.061 15.000,23.061 C17.466,23.061 19.676,21.945 21.156,20.195 C21.839,21.873 23.488,23.061 25.409,23.061 C27.940,23.061 30.000,21.001 30.000,18.470 L30.000,15.000 C30.000,6.729 23.271,-0.000 15.000,-0.000 ZM15.000,20.820 C11.791,20.820 9.181,18.209 9.181,15.000 C9.181,11.791 11.791,9.181 15.000,9.181 C18.209,9.181 20.819,11.791 20.819,15.000 C20.819,18.209 18.209,20.820 15.000,20.820 Z"></path>
</svg>