<svg xmlns="http://www.w3.org/2000/svg" 
  xmlns:xlink="http://www.w3.org/1999/xlink" width="24px" height="24px">
  <path fill-rule="evenodd" fill="rgb(139, 144, 157)" d="M12.000,24.000 C5.384,24.000 0.000,18.616 0.000,12.000 C0.000,5.383 5.384,0.000 12.000,0.000 C18.617,0.000 24.000,5.383 24.000,12.000 C24.000,18.616 18.617,24.000 12.000,24.000 ZM12.000,1.500 C6.210,1.500 1.500,6.210 1.500,12.000 C1.500,17.790 6.210,22.500 12.000,22.500 C17.790,22.500 22.500,17.790 22.500,12.000 C22.500,6.210 17.790,1.500 12.000,1.500 ZM12.750,16.500 C13.404,16.500 14.019,16.307 14.577,15.925 C14.919,15.693 15.387,15.780 15.619,16.122 C15.854,16.464 15.765,16.931 15.423,17.164 C14.622,17.710 13.698,18.000 12.750,18.000 C10.553,18.000 8.672,16.445 7.890,14.250 L6.750,14.250 C6.336,14.250 6.000,13.914 6.000,13.500 C6.000,13.086 6.336,12.750 6.750,12.750 L7.566,12.750 C7.539,12.501 7.500,12.257 7.500,12.000 C7.500,11.743 7.539,11.499 7.566,11.250 L6.750,11.250 C6.336,11.250 6.000,10.914 6.000,10.500 C6.000,10.086 6.336,9.750 6.750,9.750 L7.890,9.750 C8.672,7.556 10.553,6.000 12.750,6.000 C13.698,6.000 14.622,6.290 15.423,6.835 C15.765,7.069 15.854,7.536 15.619,7.878 C15.387,8.221 14.919,8.307 14.577,8.075 C14.019,7.694 13.404,7.500 12.750,7.500 C11.369,7.500 10.172,8.412 9.522,9.750 L12.750,9.750 C13.164,9.750 13.500,10.086 13.500,10.500 C13.500,10.914 13.164,11.250 12.750,11.250 L9.063,11.250 C9.029,11.494 9.000,11.743 9.000,12.000 C9.000,12.257 9.029,12.505 9.063,12.750 L12.000,12.750 C12.414,12.750 12.750,13.086 12.750,13.500 C12.750,13.914 12.414,14.250 12.000,14.250 L9.522,14.250 C10.172,15.588 11.369,16.500 12.750,16.500 Z"></path>
</svg>