<svg xmlns="http://www.w3.org/2000/svg" 
  xmlns:xlink="http://www.w3.org/1999/xlink" width="30px" height="30px">
  <path fill-rule="evenodd" fill="rgb(212, 215, 225)" d="M14.800,0.001 C6.516,0.112 -0.109,6.918 0.001,15.202 C0.112,23.482 6.917,30.109 15.201,29.999 C23.483,29.887 30.109,23.082 29.999,14.798 C29.887,6.517 23.082,-0.109 14.800,0.001 ZM14.755,24.130 L14.672,24.129 C13.397,24.091 12.497,23.152 12.534,21.895 C12.569,20.660 13.490,19.763 14.724,19.763 L14.798,19.764 C16.109,19.803 16.999,20.733 16.962,22.026 C16.925,23.265 16.018,24.130 14.755,24.130 ZM20.121,13.481 C19.821,13.907 19.161,14.436 18.330,15.084 L17.415,15.716 C16.912,16.106 16.609,16.474 16.495,16.836 C16.406,17.120 16.362,17.195 16.354,17.775 L16.352,17.922 L12.858,17.922 L12.867,17.626 C12.910,16.410 12.940,15.695 13.444,15.104 C14.234,14.176 15.978,13.054 16.052,13.006 C16.302,12.818 16.513,12.603 16.669,12.375 C17.036,11.869 17.198,11.471 17.198,11.080 C17.198,10.537 17.037,10.034 16.719,9.587 C16.413,9.156 15.831,8.937 14.990,8.937 C14.155,8.937 13.584,9.202 13.242,9.745 C12.891,10.304 12.713,10.891 12.713,11.490 L12.713,11.639 L9.109,11.639 L9.116,11.483 C9.209,9.276 9.997,7.687 11.456,6.760 C12.374,6.169 13.515,5.870 14.847,5.870 C16.590,5.870 18.062,6.293 19.220,7.129 C20.394,7.975 20.990,9.243 20.990,10.897 C20.990,11.822 20.698,12.691 20.121,13.481 Z"></path>
</svg>