<svg xmlns="http://www.w3.org/2000/svg" 
  xmlns:xlink="http://www.w3.org/1999/xlink" width="16px" height="14px">
  <path fill-rule="evenodd" fill="rgb(255, 255, 255)" d="M15.940,0.361 C15.834,0.141 15.605,-0.000 15.354,-0.000 L0.646,-0.000 C0.395,-0.000 0.166,0.141 0.060,0.361 C-0.046,0.581 -0.010,0.840 0.153,1.025 L5.883,7.554 L5.883,11.960 C5.883,12.196 6.021,12.412 6.240,12.517 L9.182,13.934 C9.273,13.978 9.372,14.000 9.471,14.000 C9.589,14.000 9.707,13.969 9.811,13.907 C10.001,13.794 10.117,13.593 10.117,13.377 L10.117,7.554 L15.847,1.025 C16.010,0.840 16.046,0.581 15.940,0.361 ZM8.977,6.924 C8.879,7.036 8.824,7.179 8.824,7.326 L8.824,12.370 L7.176,11.575 L7.176,7.326 C7.176,7.179 7.121,7.036 7.023,6.924 L2.039,1.246 L13.961,1.246 L8.977,6.924 Z"></path>
</svg>