<svg
  xmlns="http://www.w3.org/2000/svg" 
  xmlns:xlink="http://www.w3.org/1999/xlink" width="20px" height="20px">
  <defs>
    <linearGradient id="hovered" x2="0" y2="1">
      <stop offset="0%" stop-color="rgb(154,133,239)"></stop>
      <stop offset="100%" stop-color="rgb(255,133,193)"></stop>
    </linearGradient>

  </defs>
  <path fill-rule="evenodd" fill="url(#hovered)" d="M0.000,20.000 L0.000,18.817 L0.872,18.817 L0.872,15.623 L2.122,15.623 L2.122,7.552 L0.872,7.552 L0.872,4.228 L10.000,-0.000 L19.128,4.228 L19.128,7.552 L17.878,7.552 L17.878,15.623 L19.128,15.623 L19.128,18.817 L20.000,18.817 L20.000,20.000 L0.000,20.000 ZM17.956,6.369 L17.956,4.987 L10.000,1.302 L2.044,4.987 L2.044,6.369 L17.956,6.369 ZM3.294,7.552 L3.294,15.623 L5.324,15.623 L5.324,7.552 L3.294,7.552 ZM6.495,7.552 L6.495,15.623 L7.813,15.623 L7.813,7.552 L6.495,7.552 ZM8.985,7.552 L8.985,15.623 L11.015,15.623 L11.015,7.552 L8.985,7.552 ZM12.187,7.552 L12.187,15.623 L13.505,15.623 L13.505,7.552 L12.187,7.552 ZM14.676,7.552 L14.676,15.623 L16.706,15.623 L16.706,7.552 L14.676,7.552 ZM17.956,16.806 L2.044,16.806 L2.044,18.817 L17.956,18.817 L17.956,16.806 ZM10.000,3.424 C11.012,3.424 11.836,4.256 11.836,5.278 L10.664,5.278 C10.664,4.908 10.366,4.607 10.000,4.607 C9.634,4.607 9.336,4.908 9.336,5.278 L8.164,5.278 C8.164,4.256 8.988,3.424 10.000,3.424 Z"></path>
</svg>