<svg
  xmlns="http://www.w3.org/2000/svg" 
  xmlns:xlink="http://www.w3.org/1999/xlink">
  <defs>
    <linearGradient id="hovered" x2="0" y2="1">
      <stop offset="0%" stop-color="rgb(154,133,239)"></stop>
      <stop offset="100%" stop-color="rgb(255,133,193)"></stop>
    </linearGradient>

  </defs>
  <path fill-rule="evenodd" fill="url(#hovered)" d="M10.272,23.953 C10.184,23.985 10.092,24.000 10.000,24.000 C9.907,24.000 9.815,23.985 9.727,23.953 C-0.245,20.468 -0.089,12.210 0.025,6.180 C0.038,5.532 0.049,4.919 0.049,4.327 C0.049,3.863 0.422,3.487 0.882,3.487 C4.445,3.487 7.158,2.455 9.419,0.237 C9.742,-0.079 10.257,-0.080 10.581,0.237 C12.842,2.455 15.555,3.487 19.118,3.487 C19.578,3.487 19.951,3.863 19.951,4.327 C19.951,4.919 19.963,5.531 19.975,6.179 C20.089,12.210 20.245,20.468 10.272,23.953 ZM18.309,6.211 C18.302,5.848 18.295,5.495 18.291,5.150 C14.953,5.008 12.284,3.988 10.000,1.982 C7.715,3.988 5.047,5.008 1.710,5.150 C1.705,5.495 1.698,5.848 1.691,6.212 C1.577,12.273 1.447,19.136 10.000,22.269 C18.553,19.136 18.424,12.273 18.309,6.211 ZM9.437,14.918 C9.274,15.082 9.061,15.164 8.847,15.164 C8.634,15.164 8.421,15.082 8.258,14.918 L5.953,12.594 C5.628,12.266 5.628,11.734 5.953,11.406 C6.278,11.078 6.806,11.078 7.132,11.406 L8.847,13.136 L12.869,9.082 C13.194,8.753 13.722,8.754 14.047,9.082 C14.372,9.410 14.372,9.941 14.047,10.270 L9.437,14.918 Z"></path>
</svg>