<svg xmlns="http://www.w3.org/2000/svg" 
    xmlns:xlink="http://www.w3.org/1999/xlink" width="18px" height="18px">
    <path fill-rule="evenodd" fill="rgb(87, 91, 104)" d="M8.880,0.001 C3.910,0.067 -0.065,4.151 0.001,9.121 C0.067,14.089 4.151,18.065 9.120,17.999 C14.090,17.932 18.065,13.849 17.999,8.879 C17.933,3.910 13.849,-0.065 8.880,0.001 ZM8.853,14.478 L8.803,14.478 C8.038,14.455 7.498,13.891 7.520,13.137 C7.542,12.396 8.094,11.858 8.834,11.858 L8.879,11.858 C9.666,11.882 10.199,12.440 10.177,13.216 C10.155,13.959 9.611,14.478 8.853,14.478 ZM12.073,8.089 C11.893,8.344 11.497,8.662 10.998,9.050 L10.449,9.429 C10.147,9.664 9.965,9.884 9.897,10.101 C9.843,10.272 9.817,10.317 9.812,10.665 L9.811,10.753 L7.715,10.753 L7.720,10.576 C7.746,9.846 7.764,9.417 8.066,9.063 C8.541,8.506 9.587,7.832 9.631,7.804 C9.781,7.691 9.908,7.562 10.002,7.425 C10.222,7.121 10.319,6.883 10.319,6.648 C10.319,6.322 10.222,6.021 10.031,5.752 C9.848,5.494 9.499,5.362 8.994,5.362 C8.493,5.362 8.150,5.521 7.945,5.847 C7.734,6.183 7.628,6.534 7.628,6.894 L7.628,6.983 L5.466,6.983 L5.470,6.890 C5.525,5.566 5.998,4.612 6.874,4.056 C7.424,3.701 8.109,3.522 8.908,3.522 C9.954,3.522 10.837,3.776 11.532,4.277 C12.237,4.785 12.594,5.546 12.594,6.538 C12.594,7.093 12.419,7.615 12.073,8.089 Z" />
</svg>