<svg xmlns="http://www.w3.org/2000/svg" 
  xmlns:xlink="http://www.w3.org/1999/xlink" width="20px" height="20px">
  <path fill-rule="evenodd" fill="rgb(191, 196, 210)" d="M19.294,20.000 L0.655,20.000 C0.603,20.000 0.551,20.000 0.500,19.983 C0.500,19.983 0.482,19.965 0.465,19.965 C0.448,19.948 0.448,19.948 0.431,19.948 C0.413,19.931 0.379,19.931 0.362,19.914 C0.362,19.897 0.345,19.897 0.345,19.897 L0.327,19.879 C0.310,19.862 0.293,19.862 0.276,19.845 C0.276,19.845 0.276,19.828 0.258,19.828 C0.241,19.811 0.241,19.811 0.224,19.793 L0.207,19.776 C0.190,19.742 0.155,19.724 0.138,19.690 L0.121,19.673 C0.121,19.655 0.103,19.655 0.103,19.638 C0.103,19.621 0.086,19.621 0.086,19.604 C0.069,19.569 0.052,19.518 0.034,19.483 C0.017,19.483 0.017,19.483 0.017,19.466 C0.017,19.466 0.017,19.449 0.017,19.431 C0.017,19.380 0.000,19.311 0.000,19.259 L0.000,14.608 L0.000,0.706 C0.000,0.310 0.310,-0.000 0.706,-0.000 L19.294,-0.000 C19.690,-0.000 20.000,0.310 20.000,0.706 L20.000,14.643 L20.000,19.294 C20.000,19.690 19.690,20.000 19.294,20.000 ZM1.413,17.967 L9.767,12.506 L8.079,10.801 L1.413,15.004 L1.413,17.967 ZM18.639,1.413 L1.413,1.413 L1.413,13.333 L7.804,9.302 C8.079,9.130 8.441,9.164 8.682,9.406 L10.973,11.714 L14.264,9.544 C14.539,9.371 14.901,9.406 15.142,9.630 L18.639,12.972 L18.639,1.413 ZM18.639,14.918 L14.574,11.042 L3.066,18.570 L18.639,18.570 L18.639,14.918 ZM12.007,7.321 C11.379,7.321 10.870,6.812 10.870,6.184 C10.870,5.556 11.379,5.047 12.007,5.047 C12.635,5.047 13.144,5.556 13.144,6.184 C13.144,6.812 12.635,7.321 12.007,7.321 Z"></path>
</svg>