<svg xmlns="http://www.w3.org/2000/svg" 
  xmlns:xlink="http://www.w3.org/1999/xlink" width="46px" height="46px">
  <defs>
    <linearGradient id="PSgrad_12" x1="0%" x2="100%" y1="0%" y2="0%">
      <stop offset="0%" stop-color="rgb(251,171,126)" stop-opacity="1"></stop>
      <stop offset="100%" stop-color="rgb(247,206,104)" stop-opacity="1"></stop>
    </linearGradient>

  </defs>
  <path fill-rule="evenodd" fill="url(#PSgrad_12)" d="M23.000,46.000 C10.318,46.000 -0.000,35.682 -0.000,23.000 C-0.000,10.318 10.318,0.000 23.000,0.000 C35.682,0.000 46.000,10.318 46.000,23.000 C46.000,35.682 35.682,46.000 23.000,46.000 ZM23.000,2.298 C11.584,2.298 2.298,11.584 2.298,23.000 C2.298,34.416 11.584,43.702 23.000,43.702 C34.416,43.702 43.702,34.416 43.702,23.000 C43.702,11.584 34.416,2.298 23.000,2.298 ZM28.656,20.289 L24.154,15.787 L24.154,32.990 C24.154,33.628 23.638,34.143 23.000,34.143 C22.362,34.143 21.846,33.628 21.846,32.990 L21.846,15.777 L17.344,20.280 C16.894,20.730 16.171,20.730 15.721,20.280 C15.271,19.830 15.271,19.107 15.721,18.657 L22.184,12.194 C22.409,11.969 22.700,11.866 23.000,11.866 C23.300,11.866 23.591,11.978 23.816,12.204 L30.279,18.666 C30.729,19.117 30.729,19.839 30.279,20.289 C29.829,20.739 29.106,20.739 28.656,20.289 Z"></path>
</svg>