<svg 
 xmlns="http://www.w3.org/2000/svg"
 xmlns:xlink="http://www.w3.org/1999/xlink"
 width="14px" height="10px">
<path fill-rule="evenodd"  fill="rgb(255, 255, 255)"
 d="M0.191,5.478 L4.357,9.802 C4.611,10.066 5.023,10.066 5.278,9.802 C5.532,9.538 5.532,9.111 5.278,8.847 L2.223,5.676 L13.349,5.676 C13.708,5.676 14.000,5.373 14.000,5.000 C14.000,4.627 13.708,4.324 13.349,4.324 L2.223,4.324 L5.277,1.153 C5.532,0.890 5.532,0.462 5.277,0.198 C5.150,0.066 4.984,-0.000 4.817,-0.000 C4.650,-0.000 4.484,0.066 4.357,0.198 L0.191,4.522 C-0.063,4.786 -0.063,5.214 0.191,5.478 Z"/>
</svg>