<svg xmlns="http://www.w3.org/2000/svg" 
  xmlns:xlink="http://www.w3.org/1999/xlink" width="20px" height="20px">
  <path fill-rule="evenodd" fill="rgb(255, 255, 255)" d="M19.311,11.107 C19.436,11.489 19.499,11.819 19.498,12.097 C19.523,12.757 19.344,13.352 18.961,13.881 C19.102,14.367 19.102,14.875 18.961,15.405 C18.836,15.900 18.611,16.308 18.286,16.629 C18.361,17.601 18.157,18.387 17.673,18.986 C17.140,19.646 16.320,19.984 15.211,20.001 L14.761,20.001 L13.811,20.001 L13.599,20.001 C13.049,20.001 12.449,19.934 11.799,19.800 C11.150,19.665 10.643,19.539 10.281,19.422 C9.918,19.305 9.416,19.133 8.775,18.908 C7.750,18.534 7.092,18.343 6.800,18.334 C6.584,18.326 6.396,18.241 6.238,18.080 C6.079,17.920 6.000,17.727 6.000,17.501 L6.000,9.153 C6.000,8.936 6.075,8.748 6.225,8.587 C6.375,8.426 6.554,8.337 6.763,8.320 C6.963,8.303 7.279,8.046 7.713,7.551 C8.146,7.057 8.567,6.531 8.975,5.976 C9.542,5.221 9.962,4.700 10.237,4.413 C10.387,4.257 10.516,4.049 10.625,3.788 C10.733,3.528 10.806,3.317 10.844,3.157 C10.881,2.996 10.937,2.733 11.012,2.369 C11.070,2.030 11.123,1.765 11.169,1.574 C11.214,1.383 11.296,1.157 11.412,0.897 C11.529,0.637 11.671,0.420 11.838,0.246 C11.996,0.081 12.183,-0.001 12.400,-0.001 C12.783,-0.001 13.127,0.044 13.431,0.135 C13.735,0.226 13.985,0.339 14.181,0.474 C14.377,0.608 14.544,0.784 14.681,1.001 C14.818,1.218 14.919,1.414 14.981,1.587 C15.044,1.761 15.094,1.978 15.131,2.238 C15.168,2.499 15.190,2.694 15.194,2.824 C15.198,2.954 15.200,3.124 15.200,3.332 C15.200,3.662 15.161,3.992 15.081,4.322 C15.002,4.652 14.923,4.912 14.844,5.103 C14.765,5.294 14.650,5.537 14.500,5.833 C14.475,5.885 14.433,5.963 14.375,6.067 C14.317,6.171 14.271,6.267 14.238,6.354 C14.205,6.440 14.171,6.544 14.138,6.666 L17.600,6.666 C18.250,6.666 18.812,6.913 19.287,7.408 C19.761,7.904 19.999,8.490 19.999,9.167 C19.999,9.913 19.770,10.560 19.311,11.107 ZM4.401,18.335 L0.801,18.335 C0.585,18.335 0.397,18.252 0.239,18.087 C0.080,17.922 0.001,17.727 0.001,17.502 L0.001,9.167 C0.001,8.941 0.080,8.746 0.239,8.581 C0.397,8.416 0.584,8.333 0.801,8.333 L4.401,8.333 C4.617,8.333 4.805,8.416 4.963,8.581 C5.121,8.746 5.201,8.941 5.201,9.167 L5.201,17.502 C5.201,17.727 5.121,17.922 4.963,18.087 C4.805,18.252 4.617,18.335 4.401,18.335 ZM2.963,15.248 C2.805,15.083 2.618,15.001 2.401,15.001 C2.176,15.001 1.986,15.083 1.832,15.248 C1.678,15.413 1.601,15.609 1.601,15.834 C1.601,16.069 1.678,16.266 1.832,16.427 C1.986,16.588 2.176,16.668 2.401,16.668 C2.618,16.668 2.805,16.588 2.963,16.427 C3.122,16.266 3.201,16.069 3.201,15.834 C3.201,15.609 3.122,15.413 2.963,15.248 Z"></path>
</svg>