<svg xmlns="http://www.w3.org/2000/svg" 
  xmlns:xlink="http://www.w3.org/1999/xlink" width="20px" height="20px">
  <path fill-rule="evenodd" fill="rgb(255, 255, 255)" d="M19.667,20.000 L9.667,20.000 C9.467,20.000 9.333,19.867 9.333,19.667 L9.333,7.000 C9.333,6.800 9.467,6.667 9.667,6.667 L19.667,6.667 C19.867,6.667 20.000,6.800 20.000,7.000 L20.000,19.667 C20.000,19.867 19.867,20.000 19.667,20.000 ZM19.333,7.333 L10.000,7.333 C10.000,7.333 10.000,7.933 10.000,8.000 L14.000,8.000 L14.000,8.667 L10.000,8.667 C10.000,8.800 10.000,9.133 10.000,9.333 L19.333,9.333 L19.333,7.333 ZM19.333,10.000 L10.000,10.000 C10.000,13.233 10.000,19.333 10.000,19.333 L19.333,19.333 L19.333,10.000 ZM12.333,13.000 L11.000,13.000 L11.000,12.333 L12.333,12.333 L12.333,13.000 ZM12.333,14.333 L11.000,14.333 L11.000,13.667 L12.333,13.667 L12.333,14.333 ZM12.333,15.667 L11.000,15.667 L11.000,15.000 L12.333,15.000 L12.333,15.667 ZM12.333,17.000 L11.000,17.000 L11.000,16.333 L12.333,16.333 L12.333,17.000 ZM12.333,18.333 L11.000,18.333 L11.000,17.667 L12.333,17.667 L12.333,18.333 ZM11.667,10.667 L12.667,10.667 L12.667,11.333 L11.667,11.333 L11.667,10.667 ZM14.333,13.000 L13.000,13.000 L13.000,12.333 L14.333,12.333 L14.333,13.000 ZM14.333,14.333 L13.000,14.333 L13.000,13.667 L14.333,13.667 L14.333,14.333 ZM14.333,15.667 L13.000,15.667 L13.000,15.000 L14.333,15.000 L14.333,15.667 ZM14.333,17.000 L13.000,17.000 L13.000,16.333 L14.333,16.333 L14.333,17.000 ZM14.333,18.333 L13.000,18.333 L13.000,17.667 L14.333,17.667 L14.333,18.333 ZM16.000,11.333 L15.000,11.333 L15.000,10.667 L16.000,10.667 L16.000,11.333 ZM16.333,13.000 L15.000,13.000 L15.000,12.333 L16.333,12.333 L16.333,13.000 ZM16.333,14.333 L15.000,14.333 L15.000,13.667 L16.333,13.667 L16.333,14.333 ZM16.333,15.667 L15.000,15.667 L15.000,15.000 L16.333,15.000 L16.333,15.667 ZM16.333,17.000 L15.000,17.000 L15.000,16.333 L16.333,16.333 L16.333,17.000 ZM16.333,18.333 L15.000,18.333 L15.000,17.667 L16.333,17.667 L16.333,18.333 ZM17.667,11.333 L16.667,11.333 L16.667,10.667 L17.667,10.667 L17.667,11.333 ZM18.333,13.000 L17.000,13.000 L17.000,12.333 L18.333,12.333 L18.333,13.000 ZM18.333,14.333 L17.000,14.333 L17.000,13.667 L18.333,13.667 L18.333,14.333 ZM18.333,15.667 L17.000,15.667 L17.000,15.000 L18.333,15.000 L18.333,15.667 ZM18.333,17.000 L17.000,17.000 L17.000,16.333 L18.333,16.333 L18.333,17.000 ZM18.333,18.333 L17.000,18.333 L17.000,17.667 L18.333,17.667 L18.333,18.333 ZM13.333,10.667 L14.333,10.667 L14.333,11.333 L13.333,11.333 L13.333,10.667 ZM15.667,8.667 L14.667,8.667 L14.667,8.000 L15.667,8.000 L15.667,8.667 ZM16.000,0.667 L4.667,0.667 L4.667,4.333 C4.667,4.534 4.533,4.667 4.333,4.667 L0.667,4.667 C0.667,5.033 0.667,8.000 0.667,8.000 L0.000,8.000 L0.000,4.333 C0.000,4.300 0.033,4.267 0.033,4.233 L0.033,4.200 C0.067,4.167 0.067,4.133 0.100,4.100 L4.100,0.100 C4.133,0.067 4.167,0.067 4.200,0.033 L4.233,0.033 C4.267,0.000 4.300,0.000 4.333,0.000 L16.333,0.000 C16.533,0.000 16.667,0.133 16.667,0.333 L16.667,5.333 L16.000,5.333 L16.000,0.667 ZM4.000,1.133 L2.567,2.567 L1.133,4.000 L4.000,4.000 L4.000,1.133 ZM0.333,9.333 L4.333,9.333 C4.533,9.333 4.667,9.467 4.667,9.667 L4.667,11.333 L4.667,13.000 L4.667,14.333 L8.333,14.333 C8.533,14.333 8.667,14.467 8.667,14.667 L8.667,16.333 L8.667,18.000 L8.667,19.667 C8.667,19.867 8.533,20.000 8.333,20.000 L4.333,20.000 L0.333,20.000 C0.133,20.000 0.000,19.867 0.000,19.667 L0.000,18.000 L0.000,16.333 L0.000,14.667 L0.000,13.000 L0.000,11.333 L0.000,9.667 C0.000,9.467 0.133,9.333 0.333,9.333 ZM4.667,19.333 L8.000,19.333 L8.000,18.333 L4.667,18.333 L4.667,19.333 ZM4.667,17.667 L8.000,17.667 L8.000,16.667 L4.667,16.667 L4.667,17.667 ZM4.667,16.000 L8.000,16.000 L8.000,15.000 L4.667,15.000 L4.667,16.000 ZM0.667,19.333 L4.000,19.333 L4.000,18.333 L0.667,18.333 L0.667,19.333 ZM0.667,17.667 L4.000,17.667 L4.000,16.667 L0.667,16.667 L0.667,17.667 ZM0.667,16.000 L4.000,16.000 L4.000,15.000 L0.667,15.000 L0.667,16.000 ZM0.667,14.333 L4.000,14.333 L4.000,13.334 L0.667,13.334 L0.667,14.333 ZM0.667,12.667 L4.000,12.667 L4.000,11.666 L0.667,11.666 L0.667,12.667 ZM0.667,11.000 L4.000,11.000 L4.000,10.000 L0.667,10.000 L0.667,11.000 ZM15.000,1.667 L15.000,2.333 L12.667,2.333 L12.667,1.667 L15.000,1.667 ZM15.000,4.000 L9.000,4.000 L9.000,3.333 L15.000,3.333 L15.000,4.000 Z"></path>
</svg>