<svg xmlns="http://www.w3.org/2000/svg" 
  xmlns:xlink="http://www.w3.org/1999/xlink">
  <defs>
    <linearGradient id="hovered" x2="0" y2="1">
      <stop offset="0%" stop-color="rgb(154,133,239)"></stop>
      <stop offset="100%" stop-color="rgb(255,133,193)"></stop>
    </linearGradient>

  </defs>
  <path fill-rule="evenodd" fill="url(#hovered)" d="M10.000,22.000 C4.477,22.000 -0.000,17.507 -0.000,11.965 C-0.000,11.708 0.013,11.454 0.032,11.202 C0.034,11.166 0.037,11.131 0.040,11.096 C0.325,7.767 2.228,4.904 4.957,3.300 C4.961,3.297 4.965,3.296 4.969,3.293 C5.412,3.034 5.876,2.808 6.359,2.619 C6.394,2.605 6.427,2.591 6.462,2.578 C6.687,2.492 6.915,2.415 7.148,2.346 C7.165,2.341 7.182,2.334 7.200,2.328 C7.205,2.327 7.210,2.328 7.215,2.327 C7.681,2.191 8.162,2.091 8.654,2.024 L8.654,3.582 C4.626,4.231 1.538,7.742 1.538,11.965 C1.538,16.647 5.334,20.456 10.000,20.456 C14.666,20.456 18.462,16.647 18.462,11.965 C18.462,7.742 15.374,4.231 11.346,3.583 L11.346,2.024 C11.842,2.092 12.327,2.193 12.798,2.331 C12.802,2.332 12.807,2.331 12.812,2.332 C12.829,2.337 12.845,2.344 12.862,2.349 C13.093,2.419 13.322,2.496 13.546,2.581 C13.582,2.595 13.616,2.609 13.652,2.623 C17.112,3.986 19.630,7.227 19.960,11.097 C19.963,11.132 19.966,11.168 19.968,11.203 C19.987,11.454 20.000,11.708 20.000,11.965 C20.000,17.507 15.523,22.000 10.000,22.000 ZM10.000,11.193 C9.575,11.193 9.231,10.847 9.231,10.421 L9.231,0.772 C9.231,0.346 9.575,0.000 10.000,0.000 C10.425,0.000 10.769,0.346 10.769,0.772 L10.769,10.421 C10.769,10.847 10.425,11.193 10.000,11.193 Z"></path>
</svg>