<svg xmlns="http://www.w3.org/2000/svg" 
  xmlns:xlink="http://www.w3.org/1999/xlink" width="20px" height="20px">
  <defs>
    <linearGradient id="PSgrad_22" x1="0%" x2="100%" y1="0%" y2="0%">
      <stop offset="0%" stop-color="rgb(251,171,126)" stop-opacity="1"></stop>
      <stop offset="100%" stop-color="rgb(247,206,104)" stop-opacity="1"></stop>
    </linearGradient>

  </defs>
  <path fill-rule="evenodd" fill="url(#PSgrad_22)" d="M19.344,4.432 L10.458,13.364 C10.397,13.426 10.322,13.470 10.239,13.493 L6.020,14.668 C5.847,14.716 5.662,14.667 5.535,14.539 C5.408,14.412 5.359,14.225 5.407,14.051 L6.576,9.811 C6.599,9.728 6.643,9.652 6.704,9.591 L15.590,0.659 C16.465,-0.221 17.885,-0.221 18.760,0.659 L19.344,1.246 C20.218,2.127 20.218,3.552 19.344,4.432 ZM6.602,13.467 L9.194,12.745 L7.320,10.861 L6.602,13.467 ZM15.062,2.606 L7.789,9.916 L10.134,12.274 L17.407,4.963 L15.062,2.606 ZM18.640,1.954 L18.055,1.367 C17.569,0.878 16.781,0.878 16.295,1.367 L15.766,1.898 L18.112,4.255 L18.640,3.724 C19.126,3.235 19.126,2.443 18.640,1.954 ZM6.913,2.948 L2.490,2.948 C1.665,2.949 0.997,3.621 0.996,4.450 L0.996,17.497 C0.997,18.326 1.665,18.998 2.490,18.999 L16.467,18.999 C17.292,18.998 17.960,18.326 17.961,17.497 L17.961,13.051 C17.961,12.775 18.184,12.551 18.459,12.551 C18.734,12.551 18.957,12.775 18.957,13.051 L18.957,17.497 C18.956,18.879 17.842,19.998 16.467,20.000 L2.490,20.000 C1.116,19.998 0.001,18.879 -0.000,17.497 L-0.000,4.450 C0.001,3.068 1.116,1.948 2.490,1.947 L6.913,1.947 C7.188,1.947 7.411,2.171 7.411,2.447 C7.411,2.724 7.188,2.948 6.913,2.948 Z"></path>
</svg>