<svg xmlns="http://www.w3.org/2000/svg" 
  xmlns:xlink="http://www.w3.org/1999/xlink" width="10px" height="14px">

  <path fill-rule="evenodd" fill="rgb(255, 255, 255)" d="M5.478,13.809 L9.802,9.643 C10.066,9.389 10.066,8.977 9.802,8.722 C9.538,8.468 9.110,8.468 8.847,8.722 L5.676,11.777 L5.676,0.651 C5.676,0.292 5.373,0.000 5.000,0.000 C4.627,0.000 4.324,0.292 4.324,0.651 L4.324,11.777 L1.153,8.723 C0.890,8.469 0.462,8.469 0.198,8.723 C0.066,8.850 -0.000,9.016 -0.000,9.183 C-0.000,9.349 0.066,9.516 0.198,9.643 L4.522,13.809 C4.786,14.063 5.214,14.063 5.478,13.809 Z"></path>
</svg>