<svg xmlns="http://www.w3.org/2000/svg" 
  xmlns:xlink="http://www.w3.org/1999/xlink" width="20px" height="20px">
  <path fill-rule="evenodd" fill="rgb(255, 255, 255)" d="M18.968,12.099 L17.564,12.333 C17.422,12.801 17.230,13.257 17.000,13.695 L17.828,14.857 C18.179,15.350 18.120,16.022 17.694,16.449 L16.449,17.694 C16.215,17.928 15.906,18.057 15.576,18.057 C15.317,18.057 15.066,17.978 14.857,17.827 L13.700,17.000 C13.265,17.230 12.810,17.418 12.338,17.564 L12.100,18.968 C11.999,19.566 11.485,20.000 10.880,20.000 L9.116,20.000 C8.511,20.000 7.997,19.566 7.896,18.968 L7.662,17.564 C7.207,17.422 6.764,17.243 6.342,17.021 L5.168,17.857 C4.959,18.007 4.713,18.087 4.454,18.087 C4.124,18.087 3.814,17.957 3.581,17.723 L2.335,16.478 C1.905,16.052 1.851,15.379 2.202,14.886 L3.025,13.741 C2.791,13.307 2.599,12.852 2.453,12.383 L1.032,12.141 C0.434,12.041 -0.000,11.527 -0.000,10.921 L-0.000,9.162 C-0.000,8.556 0.434,8.043 1.032,7.942 L2.419,7.708 C2.561,7.236 2.745,6.781 2.975,6.342 L2.139,5.168 C1.788,4.675 1.847,4.003 2.273,3.576 L3.522,2.332 C3.752,2.097 4.065,1.968 4.395,1.968 C4.654,1.968 4.905,2.047 5.114,2.198 L6.263,3.025 C6.697,2.791 7.153,2.599 7.621,2.453 L7.863,1.032 C7.963,0.435 8.477,-0.000 9.083,-0.000 L10.842,-0.000 C11.448,-0.000 11.962,0.435 12.062,1.032 L12.296,2.419 C12.785,2.565 13.257,2.762 13.708,3.000 L14.870,2.172 C15.079,2.022 15.325,1.943 15.584,1.943 C15.914,1.943 16.223,2.072 16.457,2.306 L17.702,3.551 C18.133,3.977 18.187,4.650 17.836,5.143 L17.009,6.300 C17.239,6.735 17.427,7.190 17.573,7.662 L18.977,7.901 C19.574,8.001 20.009,8.515 20.000,9.120 L20.000,10.879 C20.000,11.485 19.566,11.999 18.968,12.099 ZM18.885,9.120 C18.885,9.066 18.847,9.020 18.793,9.012 L17.038,8.715 C16.821,8.682 16.641,8.519 16.587,8.302 C16.428,7.687 16.186,7.098 15.860,6.551 C15.747,6.359 15.755,6.117 15.885,5.937 L16.917,4.487 C16.946,4.441 16.942,4.383 16.904,4.345 L15.659,3.100 C15.630,3.071 15.597,3.067 15.580,3.067 C15.559,3.067 15.538,3.075 15.517,3.088 L14.076,4.124 C13.892,4.253 13.654,4.262 13.462,4.149 C12.902,3.819 12.300,3.572 11.669,3.413 C11.452,3.359 11.289,3.179 11.251,2.958 L10.959,1.216 C10.951,1.161 10.905,1.124 10.850,1.124 L9.091,1.124 C9.037,1.124 8.991,1.161 8.983,1.216 L8.682,2.983 C8.644,3.200 8.481,3.376 8.268,3.434 C7.654,3.593 7.065,3.844 6.522,4.170 C6.330,4.282 6.087,4.274 5.903,4.145 L4.462,3.117 C4.445,3.104 4.424,3.096 4.399,3.096 C4.379,3.096 4.349,3.100 4.320,3.129 L3.075,4.374 C3.037,4.412 3.033,4.475 3.062,4.516 L4.103,5.979 C4.232,6.158 4.245,6.396 4.132,6.589 C3.810,7.136 3.572,7.729 3.418,8.344 C3.363,8.561 3.184,8.724 2.962,8.761 L1.220,9.054 C1.166,9.062 1.128,9.108 1.128,9.162 L1.128,10.921 C1.128,10.975 1.166,11.022 1.220,11.030 L2.987,11.331 C3.204,11.368 3.380,11.531 3.438,11.744 C3.597,12.358 3.848,12.947 4.174,13.491 C4.287,13.683 4.278,13.925 4.149,14.109 L3.121,15.550 C3.092,15.596 3.096,15.655 3.133,15.693 L4.379,16.938 C4.408,16.967 4.441,16.971 4.458,16.971 C4.479,16.971 4.500,16.963 4.521,16.950 L5.983,15.910 C6.079,15.839 6.196,15.805 6.309,15.805 C6.405,15.805 6.505,15.831 6.593,15.880 C7.132,16.190 7.708,16.428 8.306,16.582 C8.519,16.637 8.682,16.812 8.720,17.034 L9.012,18.789 C9.020,18.843 9.066,18.880 9.121,18.880 L10.880,18.880 C10.934,18.880 10.980,18.843 10.988,18.789 L11.285,17.034 C11.318,16.816 11.481,16.637 11.698,16.582 C12.313,16.424 12.902,16.181 13.449,15.855 C13.641,15.743 13.884,15.751 14.063,15.880 L15.513,16.912 C15.530,16.925 15.551,16.933 15.576,16.933 C15.597,16.933 15.626,16.929 15.655,16.900 L16.900,15.655 C16.938,15.617 16.942,15.554 16.913,15.513 L15.881,14.059 C15.751,13.875 15.743,13.637 15.856,13.445 C16.182,12.897 16.424,12.308 16.583,11.694 C16.637,11.481 16.812,11.318 17.034,11.280 L18.789,10.988 C18.843,10.980 18.881,10.934 18.881,10.879 L18.885,10.879 L18.885,9.120 ZM10.002,14.314 C7.621,14.314 5.686,12.379 5.686,9.998 C5.686,7.616 7.621,5.682 10.002,5.682 C12.384,5.682 14.318,7.616 14.318,9.998 C14.318,12.379 12.384,14.314 10.002,14.314 ZM10.002,6.810 C8.243,6.810 6.814,8.239 6.814,9.998 C6.814,11.757 8.243,13.186 10.002,13.186 C11.761,13.186 13.190,11.757 13.190,9.998 C13.190,8.239 11.761,6.810 10.002,6.810 Z"></path>
</svg>