<svg xmlns="http://www.w3.org/2000/svg" 
  xmlns:xlink="http://www.w3.org/1999/xlink" width="10px" height="14px">
  <path fill-rule="evenodd" fill="rgb(255, 255, 255)" d="M4.522,0.191 L0.198,4.357 C-0.066,4.611 -0.066,5.023 0.198,5.277 C0.462,5.532 0.890,5.532 1.153,5.277 L4.324,2.223 L4.324,13.349 C4.324,13.709 4.627,14.000 5.000,14.000 C5.373,14.000 5.676,13.709 5.676,13.349 L5.676,2.223 L8.847,5.277 C9.110,5.532 9.538,5.532 9.802,5.277 C9.934,5.150 10.000,4.984 10.000,4.817 C10.000,4.651 9.934,4.484 9.802,4.357 L5.478,0.191 C5.214,-0.064 4.786,-0.064 4.522,0.191 Z"></path>
</svg>