<svg 
 xmlns="http://www.w3.org/2000/svg"
 xmlns:xlink="http://www.w3.org/1999/xlink"
 width="39px" height="39px">
<defs>
<linearGradient id="PSgrad_0" x1="0%" x2="100%" y1="0%" y2="0%">
  <stop offset="0%" stop-color="rgb(154,133,239)" stop-opacity="1" />
  <stop offset="100%" stop-color="rgb(255,133,193)" stop-opacity="1" />
</linearGradient>

</defs>
<path fill-rule="evenodd"  fill="url(#PSgrad_0)"
 d="M26.143,21.857 C24.567,21.857 23.286,20.575 23.286,19.000 C23.286,17.425 24.567,16.143 26.143,16.143 C27.718,16.143 29.000,17.425 29.000,19.000 C29.000,20.575 27.718,21.857 26.143,21.857 ZM26.143,14.714 C24.567,14.714 23.286,13.433 23.286,11.857 C23.286,10.282 24.567,9.000 26.143,9.000 C27.718,9.000 29.000,10.282 29.000,11.857 C29.000,13.433 27.718,14.714 26.143,14.714 ZM19.000,29.000 C17.425,29.000 16.143,27.718 16.143,26.143 C16.143,24.568 17.425,23.286 19.000,23.286 C20.575,23.286 21.857,24.568 21.857,26.143 C21.857,27.718 20.575,29.000 19.000,29.000 ZM19.000,21.857 C17.425,21.857 16.143,20.575 16.143,19.000 C16.143,17.425 17.425,16.143 19.000,16.143 C20.575,16.143 21.857,17.425 21.857,19.000 C21.857,20.575 20.575,21.857 19.000,21.857 ZM19.000,14.714 C17.425,14.714 16.143,13.433 16.143,11.857 C16.143,10.282 17.425,9.000 19.000,9.000 C20.575,9.000 21.857,10.282 21.857,11.857 C21.857,13.433 20.575,14.714 19.000,14.714 ZM11.857,29.000 C10.282,29.000 9.000,27.718 9.000,26.143 C9.000,24.568 10.282,23.286 11.857,23.286 C13.432,23.286 14.714,24.568 14.714,26.143 C14.714,27.718 13.432,29.000 11.857,29.000 ZM11.857,21.857 C10.282,21.857 9.000,20.575 9.000,19.000 C9.000,17.425 10.282,16.143 11.857,16.143 C13.432,16.143 14.714,17.425 14.714,19.000 C14.714,20.575 13.432,21.857 11.857,21.857 ZM11.857,14.714 C10.282,14.714 9.000,13.433 9.000,11.857 C9.000,10.282 10.282,9.000 11.857,9.000 C13.432,9.000 14.714,10.282 14.714,11.857 C14.714,13.433 13.432,14.714 11.857,14.714 ZM26.143,23.286 C27.718,23.286 29.000,24.568 29.000,26.143 C29.000,27.718 27.718,29.000 26.143,29.000 C24.567,29.000 23.286,27.718 23.286,26.143 C23.286,24.568 24.567,23.286 26.143,23.286 Z"/>
</svg>