<svg xmlns="http://www.w3.org/2000/svg" 
  xmlns:xlink="http://www.w3.org/1999/xlink" width="30px" height="30px">
  <path fill-rule="evenodd" fill="rgb(191, 196, 210)" d="M15.000,-0.000 C6.729,-0.000 -0.000,6.729 -0.000,15.000 C-0.000,23.271 6.729,30.000 15.000,30.000 C23.271,30.000 30.000,23.271 30.000,15.000 C30.000,6.729 23.271,-0.000 15.000,-0.000 ZM7.727,17.273 C6.474,17.273 5.455,16.253 5.455,15.000 C5.455,13.747 6.474,12.727 7.727,12.727 C8.980,12.727 10.000,13.747 10.000,15.000 C10.000,16.253 8.980,17.273 7.727,17.273 ZM15.000,17.273 C13.747,17.273 12.727,16.253 12.727,15.000 C12.727,13.747 13.747,12.727 15.000,12.727 C16.253,12.727 17.273,13.747 17.273,15.000 C17.273,16.253 16.253,17.273 15.000,17.273 ZM22.273,17.273 C21.020,17.273 20.000,16.253 20.000,15.000 C20.000,13.747 21.020,12.727 22.273,12.727 C23.526,12.727 24.546,13.747 24.546,15.000 C24.546,16.253 23.526,17.273 22.273,17.273 Z"></path>
</svg>