<svg class="mr20" 
  xmlns="http://www.w3.org/2000/svg" 
  xmlns:xlink="http://www.w3.org/1999/xlink">
  <defs>
    <linearGradient id="hovered" x2="0" y2="1">
      <stop offset="0%" stop-color="rgb(154,133,239)" stop-opacity="1" />
      <stop offset="100%" stop-color="rgb(255,133,193)" stop-opacity="1" />
    </linearGradient>

  </defs>
  <path fill-rule="evenodd" fill="url(#hovered)" d="M19.294,20.000 L11.670,20.000 C11.274,20.000 10.964,19.690 10.964,19.294 L10.964,11.670 C10.964,11.274 11.274,10.964 11.670,10.964 L19.294,10.964 C19.673,10.964 20.000,11.291 20.000,11.670 L20.000,19.294 C20.000,19.690 19.690,20.000 19.294,20.000 ZM18.589,12.375 L12.375,12.375 L12.375,18.589 L18.589,18.589 L18.589,12.375 ZM19.294,9.036 L11.670,9.036 C11.274,9.036 10.964,8.726 10.964,8.330 L10.964,0.706 C10.964,0.310 11.274,-0.000 11.670,-0.000 L19.294,-0.000 C19.690,-0.000 20.000,0.310 20.000,0.706 L20.000,8.330 C20.000,8.726 19.690,9.036 19.294,9.036 ZM18.589,1.411 L12.375,1.411 L12.375,7.625 L18.589,7.625 L18.589,1.411 ZM8.331,20.000 L0.706,20.000 C0.327,20.000 0.000,19.673 0.000,19.294 L0.000,11.670 C0.000,11.274 0.310,10.964 0.706,10.964 L8.331,10.964 C8.726,10.964 9.036,11.274 9.036,11.670 L9.036,19.294 C9.036,19.690 8.726,20.000 8.331,20.000 ZM7.625,12.375 L1.411,12.375 L1.411,18.589 L7.625,18.589 L7.625,12.375 ZM8.331,9.036 L0.706,9.036 C0.327,9.036 0.000,8.709 0.000,8.330 L0.000,0.706 C0.000,0.310 0.310,-0.000 0.706,-0.000 L8.331,-0.000 C8.726,-0.000 9.036,0.310 9.036,0.706 L9.036,8.330 C9.036,8.726 8.726,9.036 8.331,9.036 ZM7.625,1.411 L1.411,1.411 L1.411,7.625 L7.625,7.625 L7.625,1.411 Z"></path>
</svg>