<svg xmlns="http://www.w3.org/2000/svg" 
  xmlns:xlink="http://www.w3.org/1999/xlink" width="30px" height="30px">
  <path fill-rule="evenodd" fill="rgb(255, 255, 255)" d="M15.000,30.000 C6.729,30.000 0.000,23.271 0.000,14.999 C0.000,6.728 6.729,0.000 15.000,0.000 C23.271,0.000 30.000,6.728 30.000,14.999 C30.000,23.271 23.271,30.000 15.000,30.000 ZM15.000,1.714 C7.674,1.714 1.714,7.674 1.714,14.999 C1.714,22.325 7.674,28.285 15.000,28.285 C22.325,28.285 28.285,22.325 28.285,14.999 C28.285,7.674 22.325,1.714 15.000,1.714 ZM20.914,15.856 L15.857,15.856 L15.857,20.914 C15.857,21.388 15.474,21.770 15.000,21.770 C14.527,21.770 14.142,21.387 14.142,20.914 L14.142,15.856 L9.086,15.856 C8.612,15.856 8.228,15.474 8.228,14.999 C8.228,14.526 8.611,14.142 9.086,14.142 L14.142,14.142 L14.142,9.085 C14.142,8.612 14.527,8.227 15.000,8.227 C15.473,8.227 15.857,8.612 15.857,9.085 L15.857,14.142 L20.914,14.142 C21.388,14.142 21.771,14.526 21.771,14.999 C21.771,15.474 21.388,15.856 20.914,15.856 Z"></path>
</svg>