<svg xmlns="http://www.w3.org/2000/svg" 
  xmlns:xlink="http://www.w3.org/1999/xlink" width="20px" height="20px">
  <path fill-rule="evenodd" fill="rgb(191, 196, 210)" d="M17.778,-0.000 L2.222,-0.000 C1.000,-0.000 0.000,1.000 0.000,2.222 L0.000,17.778 C0.000,19.000 1.000,20.000 2.222,20.000 L17.778,20.000 C19.000,20.000 20.000,19.000 20.000,17.778 L20.000,2.222 C20.000,1.000 19.000,-0.000 17.778,-0.000 ZM15.556,11.111 L11.111,11.111 L11.111,15.556 L8.889,15.556 L8.889,11.111 L4.444,11.111 L4.444,8.889 L8.889,8.889 L8.889,4.444 L11.111,4.444 L11.111,8.889 L15.556,8.889 L15.556,11.111 Z"></path>
</svg>