<svg xmlns="http://www.w3.org/2000/svg" 
  xmlns:xlink="http://www.w3.org/1999/xlink" width="16px" height="16px">
  <path fill-rule="evenodd" fill="rgb(255, 255, 255)" d="M14.000,12.800 L13.000,12.800 L13.000,10.667 L13.000,9.600 L3.000,9.600 L3.000,10.667 L3.000,12.800 L2.000,12.800 C1.000,12.800 0.000,11.733 0.000,10.667 L0.000,5.333 C0.000,4.267 1.000,3.200 2.000,3.200 L3.000,3.200 L3.000,5.333 L3.000,6.400 L13.000,6.400 L13.000,5.333 L13.000,3.200 L14.000,3.200 C15.000,3.200 16.000,4.267 16.000,5.333 L16.000,10.667 C16.000,11.733 15.000,12.800 14.000,12.800 ZM4.000,3.200 L4.000,-0.000 L12.000,-0.000 L12.000,3.200 L12.000,5.333 L4.000,5.333 L4.000,3.200 ZM12.000,12.800 L12.000,16.000 L4.000,16.000 L4.000,12.800 L4.000,10.667 L12.000,10.667 L12.000,12.800 ZM11.000,11.733 L5.000,11.733 L5.000,12.800 L11.000,12.800 L11.000,11.733 ZM11.000,13.867 L5.000,13.867 L5.000,14.933 L11.000,14.933 L11.000,13.867 Z"></path>
</svg>