<svg xmlns="http://www.w3.org/2000/svg" id="prefix___021-bar-chart" width="15.653" height="15.653" data-name="021-bar-chart" viewBox="0 0 15.653 15.653">
    <defs>
        <style>
            .prefix__cls-1{fill:#fff}
        </style>
    </defs>
    <path id="prefix__Path_14038" d="M3.21 451.709a.458.458 0 0 0-.459-.459H.459a.458.458 0 0 0-.459.459v3.7a.458.458 0 0 0 .459.459h2.293a.458.458 0 0 0 .459-.459zm0 0" class="prefix__cls-1" data-name="Path 14038" transform="translate(0 -440.213)"/>
    <path id="prefix__Path_14039" d="M172.752 338.75h-2.293a.458.458 0 0 0-.459.459v6.451a.458.458 0 0 0 .459.459h2.293a.458.458 0 0 0 .459-.459v-6.451a.458.458 0 0 0-.459-.459zm0 0" class="prefix__cls-1" data-name="Path 14039" transform="translate(-165.842 -330.465)"/>
    <path id="prefix__Path_14040" d="M341.5 301.25h-2.293a.458.458 0 0 0-.459.459v7.368a.458.458 0 0 0 .459.459h2.293a.458.458 0 0 0 .459-.459v-7.368a.458.458 0 0 0-.459-.459zm0 0" class="prefix__cls-1" data-name="Path 14040" transform="translate(-330.465 -293.882)"/>
    <path id="prefix__Path_14041" d="M511.5 151.25h-2.293a.458.458 0 0 0-.459.459v11.037a.458.458 0 0 0 .459.459h2.293a.458.458 0 0 0 .459-.459v-11.037a.458.458 0 0 0-.459-.459zm0 0" class="prefix__cls-1" data-name="Path 14041" transform="translate(-496.307 -147.551)"/>
    <path id="prefix__Path_14042" d="M12 10.089a1.377 1.377 0 0 0 1.376-1.376 1.357 1.357 0 0 0-.057-.369l1.787-1.261a1.366 1.366 0 0 0 2.149-.938l1.83-.385a1.372 1.372 0 0 0 2.443-1.233l2.195-1.951a1.359 1.359 0 0 0 .66.176 1.381 1.381 0 1 0-1.273-.858l-2.195 1.951a1.359 1.359 0 0 0-.66-.176A1.373 1.373 0 0 0 18.9 4.862l-1.83.385a1.372 1.372 0 0 0-2.546.715 1.357 1.357 0 0 0 .057.369l-1.788 1.261a1.374 1.374 0 1 0-.792 2.5zm0 0" class="prefix__cls-1" data-name="Path 14042" transform="translate(-10.365)"/>
</svg>
