<svg xmlns="http://www.w3.org/2000/svg" 
  xmlns:xlink="http://www.w3.org/1999/xlink" width="20px" height="20px">
  <defs>
    <linearGradient id="PSgrad_2" x1="0%" x2="100%" y1="0%" y2="0%">
      <stop offset="0%" stop-color="rgb(251,171,126)" stop-opacity="1"></stop>
      <stop offset="100%" stop-color="rgb(247,206,104)" stop-opacity="1"></stop>
    </linearGradient>

  </defs>
  <path fill-rule="evenodd" fill="url(#PSgrad_2)" d="M15.773,5.781 C15.773,2.593 13.180,-0.000 9.995,-0.000 C6.809,-0.000 4.216,2.593 4.216,5.781 C4.216,7.756 5.211,9.502 6.725,10.545 C5.312,11.033 4.016,11.839 2.927,12.929 C1.040,14.817 -0.000,17.328 -0.000,19.999 L1.562,19.999 C1.562,15.347 5.345,11.562 9.995,11.562 C13.180,11.562 15.773,8.969 15.773,5.781 ZM9.995,10.000 C7.670,10.000 5.778,8.107 5.778,5.781 C5.778,3.455 7.670,1.562 9.995,1.562 C12.319,1.562 14.211,3.455 14.211,5.781 C14.211,8.107 12.319,10.000 9.995,10.000 ZM20.000,14.375 L16.325,18.052 L15.220,16.947 L17.050,15.117 L15.695,15.117 C13.824,15.117 12.301,16.640 12.299,18.512 L12.298,20.000 L10.736,19.999 L10.737,18.511 C10.740,15.778 12.964,13.554 15.695,13.554 L16.972,13.554 L15.220,11.802 L16.325,10.697 L20.000,14.375 Z"></path>
</svg>