<svg xmlns="http://www.w3.org/2000/svg" 
  xmlns:xlink="http://www.w3.org/1999/xlink" width="14px" height="10px">
  <path fill-rule="evenodd" fill="rgb(242, 38, 96)" d="M13.809,4.522 L9.643,0.198 C9.389,-0.066 8.977,-0.066 8.722,0.198 C8.468,0.462 8.468,0.889 8.722,1.153 L11.777,4.324 L0.651,4.324 C0.291,4.324 -0.000,4.627 -0.000,5.000 C-0.000,5.373 0.291,5.676 0.651,5.676 L11.777,5.676 L8.723,8.847 C8.468,9.110 8.468,9.538 8.723,9.802 C8.850,9.934 9.016,10.000 9.183,10.000 C9.349,10.000 9.516,9.934 9.643,9.802 L13.809,5.478 C14.064,5.214 14.064,4.786 13.809,4.522 Z"/>
</svg>