<svg xmlns="http://www.w3.org/2000/svg" 
  xmlns:xlink="http://www.w3.org/1999/xlink" width="14px" height="12px">
  <path fill-rule="evenodd" fill="rgb(255, 255, 255)" d="M0.787,7.133 L0.765,7.128 L10.133,7.128 L7.188,10.174 C7.044,10.323 6.965,10.524 6.965,10.735 C6.965,10.947 7.044,11.147 7.188,11.296 L7.647,11.769 C7.791,11.918 7.983,12.000 8.188,12.000 C8.392,12.000 8.585,11.918 8.729,11.770 L13.777,6.560 C13.922,6.411 14.001,6.212 14.000,6.001 C14.001,5.788 13.922,5.589 13.777,5.440 L8.729,0.230 C8.585,0.082 8.393,0.000 8.188,0.000 C7.983,0.000 7.791,0.082 7.647,0.230 L7.188,0.704 C7.044,0.852 6.965,1.050 6.965,1.262 C6.965,1.473 7.044,1.661 7.188,1.809 L10.167,4.872 L0.777,4.872 C0.355,4.872 -0.000,5.247 -0.000,5.683 L-0.000,6.352 C-0.000,6.787 0.365,7.133 0.787,7.133 Z"></path>
</svg>