<svg xmlns="http://www.w3.org/2000/svg" 
  xmlns:xlink="http://www.w3.org/1999/xlink" width="20px" height="20px">
  <path fill-rule="evenodd" fill="rgb(255, 255, 255)" d="M19.688,18.217 L14.759,13.266 C16.026,11.811 16.721,9.981 16.721,8.075 C16.721,3.623 12.970,0.000 8.359,0.000 C3.749,0.000 -0.002,3.623 -0.002,8.075 C-0.002,12.527 3.749,16.150 8.359,16.150 C10.090,16.150 11.740,15.646 13.150,14.689 L18.116,19.677 C18.323,19.885 18.603,20.000 18.902,20.000 C19.185,20.000 19.454,19.895 19.658,19.706 C20.091,19.303 20.105,18.636 19.688,18.217 ZM8.359,2.107 C11.767,2.107 14.539,4.784 14.539,8.075 C14.539,11.366 11.767,14.043 8.359,14.043 C4.952,14.043 2.179,11.366 2.179,8.075 C2.179,4.784 4.952,2.107 8.359,2.107 Z"></path>
</svg>