<svg xmlns="http://www.w3.org/2000/svg" 
  xmlns:xlink="http://www.w3.org/1999/xlink" width="12px" height="14px">
  <path fill-rule="evenodd" fill="rgb(30, 180, 104)" d="M11.707,6.642 C11.513,6.456 11.277,6.364 10.999,6.364 L10.666,6.364 L10.666,4.454 C10.666,3.234 10.207,2.186 9.291,1.311 C8.375,0.436 7.278,-0.002 6.000,-0.002 C4.722,-0.002 3.625,0.436 2.709,1.311 C1.792,2.186 1.334,3.234 1.334,4.454 L1.334,6.364 L1.001,6.364 C0.723,6.364 0.487,6.456 0.293,6.642 C0.098,6.828 0.001,7.053 0.001,7.318 L0.001,13.047 C0.001,13.312 0.098,13.538 0.293,13.723 C0.487,13.909 0.723,14.002 1.001,14.002 L10.999,14.002 C11.277,14.002 11.513,13.909 11.707,13.723 C11.901,13.538 11.999,13.312 11.999,13.047 L11.999,7.318 C11.999,7.053 11.901,6.828 11.707,6.642 ZM8.666,6.364 L3.334,6.364 L3.334,4.454 C3.334,3.751 3.594,3.151 4.115,2.654 C4.636,2.157 5.264,1.908 6.000,1.908 C6.736,1.908 7.364,2.157 7.885,2.654 C8.406,3.151 8.666,3.751 8.666,4.454 L8.666,6.364 Z"></path>
</svg>