<svg xmlns="http://www.w3.org/2000/svg" 
  xmlns:xlink="http://www.w3.org/1999/xlink" width="20px" height="18px">
  <defs>
    <linearGradient id="PSgrad_22" x1="0%" x2="100%" y1="0%" y2="0%">
      <stop offset="0%" stop-color="rgb(251,171,126)" stop-opacity="1"></stop>
      <stop offset="100%" stop-color="rgb(247,206,104)" stop-opacity="1"></stop>
    </linearGradient>

  </defs>
  <path fill-rule="evenodd" fill="url(#PSgrad_22)" d="M1.159,2.528 L18.841,2.528 C19.482,2.528 20.001,1.964 20.001,1.266 C20.001,0.569 19.482,0.002 18.841,0.002 L1.159,0.002 C0.518,0.002 -0.001,0.569 -0.001,1.266 C-0.001,1.964 0.518,2.528 1.159,2.528 ZM18.841,7.737 L1.159,7.737 C0.518,7.737 -0.001,8.304 -0.001,9.000 C-0.001,9.699 0.518,10.263 1.159,10.263 L18.841,10.263 C19.482,10.263 20.001,9.699 20.001,9.000 C20.001,8.304 19.482,7.737 18.841,7.737 ZM18.841,15.472 L1.159,15.472 C0.518,15.472 -0.001,16.039 -0.001,16.735 C-0.001,17.434 0.518,17.999 1.159,17.999 L18.841,17.999 C19.482,17.999 20.001,17.434 20.001,16.735 C20.001,16.039 19.482,15.472 18.841,15.472 Z"></path>
</svg>