<svg xmlns="http://www.w3.org/2000/svg" 
  xmlns:xlink="http://www.w3.org/1999/xlink" width="16px" height="16px">
  <defs>
    <linearGradient id="PSgrad_1" x1="0%" x2="100%" y1="0%" y2="0%">
      <stop offset="0%" stop-color="rgb(251,171,126)" stop-opacity="1"></stop>
      <stop offset="100%" stop-color="rgb(247,206,104)" stop-opacity="1"></stop>
    </linearGradient>

  </defs>
  <path fill-rule="evenodd" fill="url(#PSgrad_1)" d="M8.000,16.000 C3.582,16.000 0.000,12.418 0.000,8.000 C0.000,3.582 3.582,-0.000 8.000,-0.000 C12.418,-0.000 16.000,3.582 16.000,8.000 C16.000,12.418 12.418,16.000 8.000,16.000 ZM8.000,2.000 C4.686,2.000 2.000,4.686 2.000,8.000 C2.000,11.314 4.686,14.000 8.000,14.000 C11.314,14.000 14.000,11.314 14.000,8.000 C14.000,4.686 11.314,2.000 8.000,2.000 ZM10.000,9.000 L9.000,9.000 L9.000,10.000 C9.000,10.552 8.552,11.000 8.000,11.000 C7.448,11.000 7.000,10.552 7.000,10.000 L7.000,9.000 L6.000,9.000 C5.448,9.000 5.000,8.552 5.000,8.000 C5.000,7.448 5.448,7.000 6.000,7.000 L7.000,7.000 L7.000,6.000 C7.000,5.448 7.448,5.000 8.000,5.000 C8.552,5.000 9.000,5.448 9.000,6.000 L9.000,7.000 L10.000,7.000 C10.552,7.000 11.000,7.448 11.000,8.000 C11.000,8.552 10.552,9.000 10.000,9.000 Z"></path>
</svg>