<svg xmlns="http://www.w3.org/2000/svg" 
  xmlns:xlink="http://www.w3.org/1999/xlink" width="20px" height="20px">
  <defs>
    <linearGradient id="PSgrad_0" x1="0%" x2="100%" y1="0%" y2="0%">
      <stop offset="0%" stop-color="rgb(154,133,239)" stop-opacity="1"></stop>
      <stop offset="100%" stop-color="rgb(255,133,193)" stop-opacity="1"></stop>
    </linearGradient>

  </defs>
  <path fill-rule="evenodd" fill="url(#PSgrad_0)" d="M15.469,5.471 C15.469,6.161 14.909,6.721 14.219,6.721 C13.528,6.721 12.969,6.161 12.969,5.471 C12.969,4.780 13.528,4.220 14.219,4.220 C14.909,4.220 15.469,4.780 15.469,5.471 ZM19.082,9.828 L15.977,12.919 C15.076,13.816 13.733,14.080 12.555,13.590 C11.992,13.355 11.445,13.076 10.932,12.761 C10.564,12.535 10.449,12.054 10.675,11.686 C10.900,11.319 11.381,11.203 11.749,11.429 C12.194,11.702 12.667,11.944 13.155,12.147 C13.748,12.393 14.423,12.262 14.875,11.811 L17.979,8.720 C18.418,8.283 18.556,7.629 18.330,7.053 C17.967,6.129 17.308,4.803 16.224,3.724 C15.148,2.652 13.840,2.013 12.933,1.667 C12.355,1.446 11.699,1.585 11.261,2.021 L8.194,5.075 C7.740,5.526 7.609,6.219 7.867,6.799 C8.086,7.293 8.335,7.770 8.606,8.217 C8.792,8.524 8.745,8.920 8.490,9.174 L1.562,16.104 L1.562,18.437 L3.437,18.437 L3.437,17.030 C3.437,16.599 3.787,16.249 4.219,16.249 L5.625,16.249 L5.625,14.843 C5.625,14.411 5.975,14.061 6.406,14.061 L8.594,14.061 C9.025,14.061 9.375,14.411 9.375,14.843 C9.375,15.274 9.025,15.624 8.594,15.624 L7.187,15.624 L7.187,17.030 C7.187,17.462 6.838,17.812 6.406,17.812 L5.000,17.812 L5.000,19.219 C5.000,19.650 4.650,20.000 4.219,20.000 L0.781,20.000 C0.350,20.000 -0.000,19.650 -0.000,19.219 L-0.000,15.780 C-0.000,15.573 0.082,15.374 0.229,15.228 L6.962,8.493 C6.775,8.151 6.600,7.796 6.439,7.434 C5.920,6.266 6.182,4.873 7.091,3.968 L10.159,0.913 C11.032,0.044 12.340,-0.233 13.491,0.207 C14.539,0.608 16.056,1.351 17.326,2.616 C18.602,3.886 19.367,5.419 19.784,6.481 C20.238,7.638 19.962,8.951 19.082,9.828 Z"></path>
</svg>