<svg xmlns="http://www.w3.org/2000/svg" 
  xmlns:xlink="http://www.w3.org/1999/xlink" width="20px" height="20px">
  <defs>
    <linearGradient id="PSgrad_0" x1="0%" x2="100%" y1="0%" y2="0%">
      <stop offset="0%" stop-color="rgb(154,133,239)" stop-opacity="1"></stop>
      <stop offset="100%" stop-color="rgb(255,133,193)" stop-opacity="1"></stop>
    </linearGradient>

  </defs>
  <path fill-rule="evenodd" fill="url(#PSgrad_0)" d="M10.000,-0.000 C4.486,-0.000 -0.000,4.486 -0.000,10.000 C-0.000,15.514 4.486,20.000 10.000,20.000 C10.413,20.000 10.747,19.665 10.747,19.253 C10.747,18.840 10.413,18.506 10.000,18.506 C5.310,18.506 1.494,14.690 1.494,10.000 C1.494,5.310 5.310,1.494 10.000,1.494 C14.690,1.494 18.506,5.310 18.506,10.000 L18.506,12.313 C18.506,13.177 17.803,13.880 16.939,13.880 C16.076,13.880 15.373,13.177 15.373,12.313 L15.373,10.000 C15.373,7.037 12.963,4.626 10.000,4.626 C7.037,4.626 4.626,7.037 4.626,10.000 C4.626,12.963 7.037,15.374 10.000,15.374 C11.644,15.374 13.118,14.630 14.104,13.463 C14.559,14.582 15.658,15.374 16.939,15.374 C18.627,15.374 20.000,14.001 20.000,12.313 L20.000,10.000 C20.000,4.486 15.514,-0.000 10.000,-0.000 ZM10.000,13.880 C7.861,13.880 6.120,12.139 6.120,10.000 C6.120,7.861 7.861,6.120 10.000,6.120 C12.139,6.120 13.879,7.861 13.879,10.000 C13.879,12.139 12.139,13.880 10.000,13.880 Z"></path>
</svg>