<svg xmlns="http://www.w3.org/2000/svg" 
  xmlns:xlink="http://www.w3.org/1999/xlink" width="32px" height="40px">
  <path fill-rule="evenodd" fill="rgb(156, 161, 174)" d="M30.963,23.609 L26.194,23.609 L26.194,37.723 C26.194,38.979 25.160,40.000 23.889,40.000 L2.305,40.000 C1.034,40.000 0.000,38.979 0.000,37.723 L0.000,2.277 C0.000,1.021 1.034,-0.000 2.305,-0.000 L23.889,-0.000 C25.160,-0.000 26.194,1.021 26.194,2.277 L26.194,9.863 L30.963,9.863 C31.535,9.863 32.000,10.322 32.000,10.887 L32.000,22.585 C32.000,23.150 31.535,23.609 30.963,23.609 ZM10.363,36.958 C10.363,37.774 11.035,38.438 11.862,38.438 L14.332,38.438 C15.158,38.438 15.830,37.774 15.830,36.958 L15.830,35.317 C15.830,34.501 15.158,33.838 14.332,33.838 L11.862,33.838 C11.035,33.838 10.363,34.501 10.363,35.317 L10.363,36.958 ZM14.925,1.818 L11.269,1.818 C10.951,1.818 10.693,2.073 10.693,2.387 C10.693,2.702 10.951,2.957 11.269,2.957 L14.925,2.957 C15.243,2.957 15.501,2.702 15.501,2.387 C15.501,2.073 15.243,1.818 14.925,1.818 ZM23.499,5.078 C23.499,4.765 23.239,4.509 22.922,4.509 L3.271,4.509 C2.954,4.509 2.695,4.765 2.695,5.078 L2.695,31.971 C2.695,32.284 2.954,32.540 3.271,32.540 L22.922,32.540 C23.239,32.540 23.499,32.284 23.499,31.971 L23.499,23.609 L22.236,23.609 C22.113,23.609 21.874,23.693 21.779,23.769 L18.015,26.774 C17.799,26.946 17.595,26.982 17.463,26.982 C17.092,26.982 16.718,26.701 16.718,26.162 L16.718,23.609 L15.574,23.609 C15.002,23.609 14.536,23.150 14.536,22.585 L14.536,10.887 C14.536,10.322 15.002,9.863 15.574,9.863 L23.499,9.863 L23.499,5.078 ZM19.014,15.392 C19.350,15.392 19.596,15.497 19.824,15.696 C19.913,15.775 20.007,15.765 20.054,15.731 C20.136,15.670 20.283,15.395 20.283,15.395 C20.442,15.161 20.383,14.838 20.151,14.675 C20.129,14.659 19.609,14.298 18.998,14.298 C18.375,14.298 17.321,14.624 17.321,15.849 C17.321,17.056 18.349,17.333 18.963,17.390 C19.554,17.432 19.672,17.593 19.672,17.838 C19.672,18.161 19.360,18.354 19.058,18.354 L19.038,18.354 C18.634,18.345 18.122,17.972 18.117,17.968 C18.033,17.906 17.936,17.873 17.838,17.873 C17.673,17.873 17.525,17.963 17.442,18.114 C17.442,18.114 17.270,18.403 17.225,18.505 C17.190,18.585 17.240,18.671 17.260,18.695 C17.839,19.399 18.474,19.496 19.021,19.496 C20.201,19.496 20.729,18.678 20.729,17.867 C20.729,16.579 19.823,16.341 19.034,16.278 C18.439,16.230 18.371,15.988 18.371,15.810 C18.371,15.446 18.774,15.392 19.014,15.392 ZM26.286,14.886 C26.286,14.729 26.156,14.601 25.997,14.601 L25.447,14.601 C25.301,14.601 25.121,14.693 25.037,14.811 L23.836,16.495 C23.788,16.563 23.713,16.563 23.665,16.495 L22.464,14.811 C22.380,14.694 22.200,14.601 22.054,14.601 L21.497,14.601 C21.338,14.601 21.209,14.729 21.209,14.886 L21.209,19.212 C21.209,19.368 21.338,19.496 21.497,19.496 L21.920,19.496 C22.079,19.496 22.208,19.368 22.208,19.212 L22.208,16.190 C22.208,16.173 22.209,16.160 22.211,16.151 C22.218,16.157 22.226,16.167 22.237,16.181 L23.463,17.893 C23.515,17.966 23.638,18.103 23.731,18.103 C23.823,18.103 23.947,17.967 24.000,17.895 L25.255,16.187 C25.266,16.172 25.276,16.162 25.283,16.155 C25.285,16.165 25.286,16.178 25.286,16.197 L25.286,19.212 C25.286,19.368 25.416,19.496 25.575,19.496 L25.997,19.496 C26.156,19.496 26.285,19.368 26.285,19.212 L26.286,19.212 L26.286,14.886 ZM28.489,16.278 C27.894,16.230 27.825,15.988 27.825,15.810 C27.825,15.446 28.228,15.392 28.468,15.392 C28.823,15.392 29.087,15.497 29.312,15.730 C29.333,15.752 29.457,15.811 29.511,15.727 C29.566,15.643 29.738,15.395 29.738,15.395 C29.897,15.161 29.838,14.838 29.606,14.675 C29.584,14.659 29.064,14.298 28.453,14.298 C27.830,14.298 26.776,14.624 26.776,15.849 C26.776,17.056 27.804,17.333 28.418,17.390 C29.008,17.433 29.127,17.593 29.127,17.838 C29.127,18.161 28.815,18.354 28.513,18.354 L28.493,18.354 C28.089,18.345 27.577,17.972 27.572,17.968 C27.488,17.906 27.392,17.873 27.293,17.873 C27.128,17.873 26.980,17.963 26.897,18.113 C26.897,18.113 26.737,18.379 26.697,18.474 C26.641,18.610 26.694,18.669 26.713,18.692 C27.292,19.399 27.928,19.496 28.476,19.496 C29.656,19.496 30.184,18.678 30.184,17.867 C30.184,16.579 29.278,16.341 28.489,16.278 ZM11.862,34.976 L14.332,34.976 C14.520,34.976 14.678,35.132 14.678,35.317 L14.678,36.958 C14.678,37.143 14.520,37.299 14.332,37.299 L11.862,37.299 C11.674,37.299 11.516,37.143 11.516,36.958 L11.516,35.317 C11.516,35.132 11.674,34.976 11.862,34.976 Z"></path>
</svg>