<svg 
 xmlns="http://www.w3.org/2000/svg"
 xmlns:xlink="http://www.w3.org/1999/xlink"
 width="17px" height="16px">
<path fill-rule="evenodd"  fill="rgb(83, 91, 115)"
 d="M15.305,5.453 L10.898,5.014 C10.620,4.987 10.380,4.801 10.266,4.522 L8.688,0.496 C8.436,-0.169 7.539,-0.169 7.286,0.496 L5.721,4.522 C5.620,4.801 5.367,4.987 5.089,5.014 L0.682,5.453 C0.026,5.519 -0.239,6.383 0.253,6.848 L3.574,9.918 C3.789,10.117 3.877,10.410 3.814,10.702 L2.816,15.008 C2.665,15.686 3.359,16.244 3.940,15.885 L7.615,13.613 C7.855,13.466 8.145,13.466 8.385,13.613 L12.060,15.885 C12.640,16.244 13.335,15.699 13.183,15.008 L12.198,10.702 C12.135,10.410 12.224,10.117 12.438,9.918 L15.759,6.848 C16.239,6.383 15.961,5.519 15.305,5.453 Z"/>
</svg>