<svg xmlns="http://www.w3.org/2000/svg" 
  xmlns:xlink="http://www.w3.org/1999/xlink" width="52px" height="52px">
  <path fill-rule="evenodd" fill="rgb(255, 255, 255)" d="M26.000,52.000 C11.664,52.000 0.000,40.336 0.000,26.000 C0.000,11.664 11.664,0.000 26.000,0.000 C40.336,0.000 52.000,11.664 52.000,26.000 C52.000,40.336 40.336,52.000 26.000,52.000 ZM26.000,2.598 C13.095,2.598 2.598,13.095 2.598,26.000 C2.598,38.905 13.095,49.402 26.000,49.402 C38.905,49.402 49.402,38.905 49.402,26.000 C49.402,13.095 38.905,2.598 26.000,2.598 ZM26.922,38.215 C26.668,38.470 26.339,38.586 26.000,38.586 C25.661,38.586 25.332,38.459 25.077,38.205 L17.772,30.899 C17.263,30.390 17.263,29.573 17.772,29.065 C18.281,28.555 19.097,28.555 19.606,29.065 L24.696,34.154 L24.696,14.707 C24.696,13.986 25.279,13.403 26.000,13.403 C26.721,13.403 27.304,13.986 27.304,14.707 L27.304,34.165 L32.394,29.075 C32.903,28.566 33.719,28.566 34.228,29.075 C34.737,29.584 34.737,30.401 34.228,30.909 L26.922,38.215 Z"></path>
</svg>