<svg xmlns="http://www.w3.org/2000/svg" 
  xmlns:xlink="http://www.w3.org/1999/xlink" width="52px" height="52px">
  <path fill-rule="evenodd" fill="rgb(255, 255, 255)" d="M26.000,52.000 C11.664,52.000 0.001,40.336 0.001,25.999 C0.001,11.663 11.664,0.000 26.000,0.000 C40.336,0.000 51.999,11.663 51.999,25.999 C52.001,40.336 40.336,52.000 26.000,52.000 ZM26.000,2.970 C13.301,2.970 2.971,13.302 2.971,25.999 C2.971,38.697 13.301,49.026 26.000,49.026 C38.697,49.026 49.027,38.697 49.027,25.999 C49.027,13.302 38.697,2.970 26.000,2.970 ZM36.251,27.484 L27.485,27.484 L27.485,36.250 C27.485,37.072 26.822,37.736 26.000,37.736 C25.180,37.736 24.513,37.071 24.513,36.250 L24.513,27.484 L15.749,27.484 C14.928,27.484 14.262,26.821 14.262,25.999 C14.262,25.179 14.927,24.513 15.749,24.513 L24.513,24.513 L24.513,15.748 C24.513,14.928 25.180,14.261 26.000,14.261 C26.820,14.261 27.485,14.928 27.485,15.748 L27.485,24.513 L36.251,24.513 C37.072,24.513 37.736,25.179 37.736,25.999 C37.736,26.821 37.073,27.484 36.251,27.484 Z"></path>
</svg>