<svg xmlns="http://www.w3.org/2000/svg" 
  xmlns:xlink="http://www.w3.org/1999/xlink" width="49px" height="52px">
  <path fill-rule="evenodd" fill="rgb(255, 255, 255)" d="M40.448,16.883 C40.163,17.181 39.780,17.324 39.408,17.324 C39.035,17.324 38.652,17.170 38.367,16.883 C37.787,16.298 37.787,15.361 38.367,14.776 L42.955,10.155 L34.360,10.155 C30.352,10.155 26.640,11.986 24.177,15.184 C23.881,15.559 23.443,15.758 23.005,15.758 C22.687,15.758 22.370,15.658 22.096,15.449 C21.450,14.942 21.341,14.015 21.823,13.354 C24.855,9.416 29.421,7.166 34.349,7.166 L42.944,7.166 L38.356,2.545 C37.776,1.960 37.776,1.023 38.356,0.438 C38.937,-0.146 39.867,-0.146 40.448,0.438 L47.565,7.607 C48.145,8.192 48.145,9.129 47.565,9.714 L40.448,16.883 ZM34.360,41.853 L42.955,41.853 L38.367,37.232 C37.787,36.647 37.787,35.710 38.367,35.125 C38.948,34.541 39.878,34.541 40.459,35.125 L47.565,42.283 C48.145,42.868 48.145,43.805 47.565,44.390 L40.448,51.559 C40.163,51.857 39.780,52.000 39.408,52.000 C39.035,52.000 38.652,51.846 38.367,51.559 C37.787,50.974 37.787,50.037 38.367,49.452 L42.955,44.831 L34.360,44.831 C25.622,44.831 18.516,37.673 18.516,28.872 L18.516,23.136 C18.516,15.978 12.734,10.155 5.628,10.155 L1.544,10.155 C0.723,10.155 0.066,9.493 0.066,8.666 C0.066,7.839 0.723,7.177 1.544,7.177 L5.628,7.177 C14.366,7.177 21.472,14.335 21.472,23.136 L21.472,28.872 C21.472,36.030 27.253,41.853 34.360,41.853 ZM1.478,41.853 L5.551,41.853 C9.636,41.853 13.391,39.967 15.855,36.680 C16.348,36.019 17.267,35.886 17.924,36.383 C18.581,36.879 18.702,37.816 18.220,38.467 C16.775,40.408 14.880,42.008 12.745,43.099 C10.512,44.247 8.092,44.831 5.562,44.831 L1.478,44.831 C0.657,44.831 0.000,44.169 0.000,43.342 C0.000,42.515 0.657,41.853 1.478,41.853 Z"></path>
</svg>