<svg xmlns="http://www.w3.org/2000/svg" 
  xmlns:xlink="http://www.w3.org/1999/xlink" width="52px" height="52px">
  <path fill-rule="evenodd" fill="rgb(255, 255, 255)" d="M26.000,52.000 C11.646,51.988 0.012,40.354 0.000,26.000 C0.000,11.641 11.641,0.000 26.000,0.000 C40.359,0.000 52.000,11.641 52.000,26.000 C52.000,40.359 40.359,52.000 26.000,52.000 ZM26.000,2.238 C12.887,2.262 2.262,12.887 2.238,26.000 C2.238,39.124 12.876,49.762 26.000,49.762 C39.124,49.762 49.762,39.124 49.762,26.000 C49.762,12.876 39.124,2.238 26.000,2.238 ZM25.016,30.296 L26.604,28.707 L28.036,30.162 L38.687,19.489 L40.275,21.077 L28.036,33.317 L25.016,30.296 ZM11.702,26.761 L13.269,25.172 L18.281,30.162 L28.954,19.489 L30.520,21.077 L18.281,33.317 L11.702,26.761 Z"></path>
</svg>