<svg xmlns="http://www.w3.org/2000/svg" 
  xmlns:xlink="http://www.w3.org/1999/xlink" width="20px" height="20px">
  <defs>
    <linearGradient id="PSgrad_2" x1="0%" x2="100%" y1="0%" y2="0%">
      <stop offset="0%" stop-color="rgb(251,171,126)" stop-opacity="1"></stop>
      <stop offset="100%" stop-color="rgb(247,206,104)" stop-opacity="1"></stop>
    </linearGradient>

  </defs>
  <path fill-rule="evenodd" fill="url(#PSgrad_2)" d="M4.053,13.295 C6.033,15.653 8.417,17.509 11.137,18.823 C12.173,19.312 13.559,19.892 15.102,19.992 C15.198,19.996 15.289,20.000 15.385,20.000 C16.421,20.000 17.253,19.644 17.931,18.910 C17.935,18.906 17.943,18.898 17.947,18.889 C18.189,18.599 18.463,18.338 18.750,18.061 C18.946,17.874 19.145,17.679 19.337,17.480 C20.223,16.560 20.223,15.392 19.328,14.501 L16.828,12.010 C16.404,11.571 15.896,11.339 15.364,11.339 C14.831,11.339 14.320,11.571 13.883,12.006 L12.394,13.489 C12.256,13.411 12.115,13.340 11.982,13.274 C11.815,13.191 11.662,13.112 11.524,13.025 C10.168,12.167 8.937,11.048 7.759,9.610 C7.165,8.860 6.765,8.230 6.487,7.588 C6.878,7.236 7.244,6.867 7.597,6.506 C7.722,6.378 7.851,6.250 7.980,6.121 C8.429,5.673 8.671,5.155 8.671,4.629 C8.671,4.103 8.433,3.585 7.980,3.137 L6.740,1.902 C6.595,1.757 6.457,1.616 6.316,1.471 C6.041,1.189 5.754,0.899 5.472,0.638 C5.043,0.220 4.540,-0.000 4.007,-0.000 C3.479,-0.000 2.971,0.220 2.526,0.642 L0.970,2.192 C0.405,2.756 0.084,3.440 0.018,4.231 C-0.061,5.222 0.122,6.274 0.596,7.547 C1.324,9.515 2.422,11.343 4.053,13.295 ZM1.033,4.318 C1.083,3.767 1.295,3.307 1.694,2.909 L3.242,1.368 C3.483,1.136 3.749,1.015 4.007,1.015 C4.261,1.015 4.519,1.136 4.756,1.376 C5.035,1.633 5.297,1.902 5.580,2.188 C5.721,2.333 5.867,2.478 6.012,2.627 L7.252,3.862 C7.510,4.119 7.643,4.380 7.643,4.637 C7.643,4.894 7.510,5.155 7.252,5.412 C7.123,5.541 6.994,5.673 6.865,5.802 C6.478,6.191 6.116,6.560 5.717,6.913 C5.709,6.921 5.705,6.925 5.696,6.933 C5.351,7.277 5.405,7.605 5.488,7.853 C5.492,7.866 5.497,7.874 5.501,7.886 C5.821,8.653 6.266,9.382 6.961,10.253 C8.209,11.786 9.523,12.975 10.971,13.891 C11.150,14.007 11.341,14.099 11.520,14.190 C11.687,14.273 11.840,14.351 11.978,14.438 C11.994,14.447 12.007,14.455 12.024,14.463 C12.161,14.534 12.294,14.567 12.427,14.567 C12.760,14.567 12.976,14.356 13.047,14.285 L14.603,12.735 C14.844,12.495 15.106,12.366 15.364,12.366 C15.680,12.366 15.938,12.561 16.100,12.735 L18.609,15.230 C19.108,15.727 19.104,16.266 18.596,16.792 C18.421,16.979 18.238,17.157 18.043,17.344 C17.752,17.625 17.448,17.915 17.174,18.243 C16.695,18.757 16.125,18.997 15.389,18.997 C15.318,18.997 15.243,18.993 15.173,18.989 C13.808,18.902 12.539,18.371 11.587,17.920 C8.999,16.672 6.728,14.903 4.843,12.656 C3.292,10.796 2.248,9.063 1.557,7.207 C1.129,6.067 0.966,5.151 1.033,4.318 Z"></path>
</svg>