<svg xmlns="http://www.w3.org/2000/svg" 
  xmlns:xlink="http://www.w3.org/1999/xlink" width="30px" height="26px">
  <path fill-rule="evenodd" fill="rgb(212, 215, 225)" d="M21.685,4.613 L21.685,4.022 C21.685,1.804 19.804,0.000 17.491,0.000 L12.509,0.000 C10.196,0.000 8.315,1.804 8.315,4.022 L8.315,4.613 L-0.000,4.613 L-0.000,26.000 L30.000,26.000 L30.000,4.613 L21.685,4.613 ZM10.072,4.022 C10.072,2.734 11.166,1.685 12.509,1.685 L17.491,1.685 C18.835,1.685 19.928,2.734 19.928,4.022 L19.928,4.613 L10.072,4.613 L10.072,4.022 ZM28.242,24.315 L1.758,24.315 L1.758,13.363 C3.017,14.709 4.844,15.558 6.874,15.558 L12.363,15.558 L12.363,17.833 L17.636,17.833 L17.636,15.558 L23.126,15.558 C25.156,15.558 26.983,14.709 28.242,13.363 L28.242,24.315 L28.242,24.315 ZM14.121,16.148 L14.121,13.338 L15.879,13.338 L15.879,16.148 L14.121,16.148 ZM23.126,13.872 L17.637,13.872 L17.637,11.653 L12.363,11.653 L12.363,13.872 L6.874,13.872 C4.053,13.872 1.758,11.671 1.758,8.966 L1.758,6.298 L28.242,6.298 L28.242,8.966 C28.242,11.671 25.947,13.872 23.126,13.872 Z"></path>
</svg>