<svg xmlns="http://www.w3.org/2000/svg" 
  xmlns:xlink="http://www.w3.org/1999/xlink" width="24px" height="24px">
  <path fill-rule="evenodd" fill="rgb(139, 144, 157)" d="M12.000,24.000 C5.383,24.000 0.000,18.616 0.000,12.000 C0.000,5.383 5.383,0.000 12.000,0.000 C18.617,0.000 24.000,5.383 24.000,12.000 C24.000,18.616 18.617,24.000 12.000,24.000 ZM12.000,1.500 C6.212,1.500 1.500,6.210 1.500,12.000 C1.500,17.790 6.212,22.500 12.000,22.500 C17.789,22.500 22.500,17.790 22.500,12.000 C22.500,6.210 17.789,1.500 12.000,1.500 ZM11.826,18.033 C11.430,18.033 11.178,17.998 11.138,17.992 C10.772,17.937 10.500,17.620 10.500,17.250 L10.500,12.960 L8.432,13.477 C8.372,13.492 8.310,13.500 8.250,13.500 C7.913,13.500 7.606,13.274 7.522,12.932 C7.422,12.531 7.665,12.123 8.068,12.022 L10.500,11.415 L10.500,9.960 L8.432,10.477 C8.372,10.492 8.310,10.500 8.250,10.500 C7.913,10.500 7.606,10.273 7.522,9.931 C7.422,9.531 7.665,9.123 8.068,9.023 L10.500,8.415 L10.500,6.750 C10.500,6.336 10.836,6.000 11.250,6.000 C11.664,6.000 12.000,6.336 12.000,6.750 L12.000,8.040 L14.069,7.522 C14.466,7.419 14.877,7.666 14.978,8.068 C15.078,8.470 14.835,8.877 14.432,8.977 L12.000,9.585 L12.000,11.040 L14.069,10.523 C14.466,10.421 14.877,10.665 14.978,11.068 C15.078,11.471 14.835,11.877 14.432,11.978 L12.000,12.585 L12.000,16.532 C13.043,16.500 15.138,16.125 16.622,13.842 C16.847,13.496 17.315,13.398 17.658,13.622 C18.006,13.847 18.104,14.311 17.878,14.658 C15.932,17.656 13.116,18.033 11.826,18.033 Z"></path>
</svg>