<svg xmlns="http://www.w3.org/2000/svg" 
  xmlns:xlink="http://www.w3.org/1999/xlink" width="20px" height="20px">
  <path fill-rule="evenodd" fill="rgb(255, 255, 255)" d="M19.761,11.419 C19.603,11.584 19.416,11.667 19.199,11.667 L15.599,11.667 C15.383,11.667 15.195,11.584 15.037,11.419 C14.879,11.254 14.799,11.059 14.799,10.833 L14.799,2.498 C14.799,2.273 14.879,2.078 15.037,1.913 C15.195,1.748 15.383,1.665 15.599,1.665 L19.199,1.665 C19.415,1.665 19.603,1.748 19.761,1.913 C19.920,2.078 19.999,2.273 19.999,2.498 L19.999,10.833 C19.999,11.059 19.920,11.254 19.761,11.419 ZM18.168,3.573 C18.014,3.412 17.824,3.332 17.599,3.332 C17.382,3.332 17.195,3.412 17.037,3.573 C16.878,3.734 16.799,3.931 16.799,4.166 C16.799,4.391 16.878,4.587 17.037,4.752 C17.195,4.917 17.382,4.999 17.599,4.999 C17.824,4.999 18.014,4.917 18.168,4.752 C18.322,4.587 18.399,4.391 18.399,4.166 C18.399,3.931 18.322,3.734 18.168,3.573 ZM13.237,11.680 C13.037,11.697 12.721,11.954 12.287,12.448 C11.854,12.943 11.433,13.469 11.025,14.024 C10.458,14.779 10.038,15.300 9.763,15.587 C9.613,15.743 9.484,15.951 9.375,16.212 C9.267,16.472 9.194,16.683 9.156,16.843 C9.119,17.004 9.063,17.267 8.988,17.631 C8.930,17.970 8.877,18.235 8.831,18.426 C8.786,18.617 8.704,18.843 8.588,19.103 C8.471,19.363 8.329,19.580 8.163,19.754 C8.004,19.919 7.817,20.001 7.600,20.001 C7.217,20.001 6.873,19.956 6.569,19.865 C6.265,19.774 6.015,19.661 5.819,19.526 C5.623,19.392 5.456,19.216 5.319,18.999 C5.181,18.782 5.082,18.586 5.019,18.413 C4.956,18.239 4.906,18.022 4.869,17.762 C4.832,17.501 4.810,17.306 4.806,17.176 C4.802,17.046 4.800,16.876 4.800,16.668 C4.800,16.338 4.839,16.008 4.919,15.678 C4.998,15.348 5.077,15.088 5.156,14.897 C5.235,14.706 5.350,14.462 5.500,14.167 C5.525,14.115 5.567,14.037 5.625,13.933 C5.683,13.829 5.729,13.733 5.762,13.646 C5.795,13.560 5.829,13.456 5.862,13.334 L2.400,13.334 C1.750,13.334 1.188,13.087 0.713,12.592 C0.239,12.096 0.001,11.511 0.001,10.833 C0.001,10.087 0.230,9.440 0.689,8.893 C0.564,8.511 0.501,8.181 0.502,7.903 C0.477,7.243 0.656,6.648 1.039,6.119 C0.898,5.633 0.898,5.125 1.039,4.595 C1.164,4.100 1.389,3.692 1.714,3.371 C1.639,2.399 1.843,1.613 2.327,1.014 C2.860,0.354 3.681,0.016 4.789,-0.001 L5.239,-0.001 L6.189,-0.001 L6.401,-0.001 C6.951,-0.001 7.551,0.066 8.201,0.200 C8.850,0.335 9.357,0.461 9.719,0.578 C10.082,0.695 10.584,0.867 11.225,1.092 C12.250,1.466 12.908,1.657 13.200,1.666 C13.417,1.674 13.604,1.759 13.762,1.920 C13.921,2.080 14.000,2.273 14.000,2.499 L14.000,10.847 C14.000,11.064 13.925,11.252 13.775,11.413 C13.625,11.574 13.445,11.663 13.237,11.680 Z"></path>
</svg>