<svg xmlns="http://www.w3.org/2000/svg" 
  xmlns:xlink="http://www.w3.org/1999/xlink" width="24px" height="24px">
  <path fill-rule="evenodd" fill="rgb(139, 144, 157)" d="M12.000,24.000 C5.384,24.000 -0.000,18.616 -0.000,12.000 C-0.000,5.383 5.384,0.000 12.000,0.000 C18.617,0.000 24.000,5.383 24.000,12.000 C24.000,18.616 18.617,24.000 12.000,24.000 ZM12.000,1.500 C6.210,1.500 1.500,6.210 1.500,12.000 C1.500,17.790 6.210,22.500 12.000,22.500 C17.790,22.500 22.500,17.790 22.500,12.000 C22.500,6.210 17.790,1.500 12.000,1.500 ZM12.750,17.190 L12.750,18.000 C12.750,18.414 12.414,18.750 12.000,18.750 C11.586,18.750 11.250,18.414 11.250,18.000 L11.250,17.189 C10.482,17.062 9.777,16.749 9.252,16.281 C8.941,16.005 8.913,15.531 9.189,15.222 C9.465,14.910 9.939,14.883 10.248,15.159 C10.671,15.534 11.310,15.750 12.000,15.750 C13.220,15.750 14.250,15.063 14.250,14.250 C14.250,13.437 13.220,12.750 12.000,12.750 C9.933,12.750 8.250,11.405 8.250,9.750 C8.250,8.301 9.540,7.089 11.250,6.810 L11.250,6.000 C11.250,5.586 11.586,5.250 12.000,5.250 C12.414,5.250 12.750,5.586 12.750,6.000 L12.750,6.813 C13.518,6.938 14.223,7.253 14.748,7.719 C15.059,7.995 15.087,8.469 14.811,8.778 C14.534,9.090 14.061,9.115 13.752,8.841 C13.329,8.466 12.690,8.250 12.000,8.250 C10.781,8.250 9.750,8.937 9.750,9.750 C9.750,10.563 10.781,11.250 12.000,11.250 C14.067,11.250 15.750,12.595 15.750,14.250 C15.750,15.699 14.460,16.911 12.750,17.190 Z"></path>
</svg>