<svg xmlns="http://www.w3.org/2000/svg" 
  xmlns:xlink="http://www.w3.org/1999/xlink">
  <defs>
    <linearGradient id="hovered" x2="0" y2="1">
      <stop offset="0%" stop-color="rgb(154,133,239)"></stop>
      <stop offset="100%" stop-color="rgb(255,133,193)"></stop>
    </linearGradient>

  </defs>
  <path fill-rule="evenodd" fill="url(#hovered)" d="M17.071,12.929 C15.982,11.840 14.686,11.034 13.271,10.545 C14.786,9.502 15.781,7.756 15.781,5.781 C15.781,2.594 13.188,-0.000 10.000,-0.000 C6.812,-0.000 4.219,2.594 4.219,5.781 C4.219,7.756 5.214,9.502 6.729,10.545 C5.315,11.034 4.018,11.840 2.929,12.929 C1.040,14.818 0.000,17.329 0.000,20.000 L1.562,20.000 C1.562,15.348 5.348,11.562 10.000,11.562 C14.652,11.562 18.438,15.348 18.438,20.000 L20.000,20.000 C20.000,17.329 18.960,14.818 17.071,12.929 ZM10.000,10.000 C7.674,10.000 5.781,8.108 5.781,5.781 C5.781,3.455 7.674,1.562 10.000,1.562 C12.326,1.562 14.219,3.455 14.219,5.781 C14.219,8.108 12.326,10.000 10.000,10.000 Z"></path>
</svg>