<svg xmlns="http://www.w3.org/2000/svg" 
  xmlns:xlink="http://www.w3.org/1999/xlink" width="16px" height="14px">
  <path fill-rule="evenodd" fill="rgb(139, 144, 157)" d="M15.371,10.077 L11.748,10.077 C11.401,10.077 11.120,9.809 11.120,9.480 L11.120,7.288 C11.120,6.958 11.401,6.691 11.748,6.691 L15.371,6.691 C15.719,6.691 16.000,6.958 16.000,7.288 L16.000,9.480 C16.000,9.809 15.719,10.077 15.371,10.077 ZM12.997,7.522 C12.496,7.522 12.090,7.908 12.090,8.384 C12.090,8.859 12.496,9.245 12.997,9.245 C13.498,9.245 13.904,8.859 13.904,8.384 C13.904,7.908 13.498,7.522 12.997,7.522 ZM11.748,5.967 C10.982,5.967 10.358,6.560 10.358,7.288 L10.358,9.480 C10.358,10.208 10.982,10.800 11.748,10.800 L15.371,10.800 C15.393,10.800 15.415,10.799 15.437,10.798 L15.437,12.982 C15.437,13.544 14.957,14.000 14.365,14.000 L1.072,14.000 C0.480,14.000 0.000,13.544 0.000,12.982 L0.000,3.785 C0.000,3.223 0.480,2.767 1.072,2.767 L14.365,2.767 C14.957,2.767 15.437,3.223 15.437,3.785 L15.437,5.969 C15.415,5.968 15.393,5.967 15.371,5.967 L11.748,5.967 ZM10.749,0.067 C11.475,-0.161 12.258,0.213 12.498,0.903 L12.802,1.775 L5.302,1.775 L10.749,0.067 Z"></path>
</svg>