<svg xmlns="http://www.w3.org/2000/svg" 
  xmlns:xlink="http://www.w3.org/1999/xlink">
  <defs>

  </defs>
  <path fill-rule="evenodd" fill="rgb(255,255,255)" d="M17.143,2.857 C17.143,1.279 15.864,-0.000 14.286,-0.000 L2.857,-0.000 C1.279,-0.000 -0.000,1.279 -0.000,2.857 L-0.000,20.000 L17.143,20.000 C18.721,20.000 20.000,18.721 20.000,17.143 L20.000,5.714 C20.000,4.136 18.721,2.857 17.143,2.857 ZM4.286,1.429 L12.857,1.429 C13.913,1.429 14.823,2.007 15.318,2.857 L1.824,2.857 C2.320,2.007 3.231,1.429 4.286,1.429 ZM18.571,12.143 C18.571,12.537 18.251,12.857 17.857,12.857 L13.571,12.857 C13.177,12.857 12.857,12.537 12.857,12.143 L12.857,10.714 C12.857,10.320 13.177,10.000 13.571,10.000 L17.857,10.000 C18.251,10.000 18.571,10.320 18.571,10.714 L18.571,12.143 ZM18.571,8.571 L12.143,8.571 C11.749,8.571 11.429,8.891 11.429,9.286 L11.429,13.571 C11.429,13.966 11.748,14.286 12.143,14.286 L18.571,14.286 L18.571,15.714 C18.571,17.293 17.293,18.571 15.714,18.571 L1.429,18.571 L1.429,4.286 L15.714,4.286 C17.293,4.286 18.571,5.564 18.571,7.143 L18.571,8.571 L18.571,8.571 ZM15.000,10.714 C14.606,10.714 14.286,11.034 14.286,11.429 C14.286,11.823 14.606,12.143 15.000,12.143 C15.394,12.143 15.714,11.823 15.714,11.429 C15.714,11.034 15.394,10.714 15.000,10.714 Z"></path>
</svg>