<svg xmlns="http://www.w3.org/2000/svg" width="32" height="32" viewBox="0 0 32 32">
    <path fill="#271D45" fill-rule="nonzero" d="M6.822 6.822c4.858-4.857 12.762-4.857 17.62 0a12.417 12.417 0 0 1 2.268 14.512l-.561 1.09.317 1.184 1.046 3.904-3.904-1.046-1.184-.317-1.09.561a12.417 12.417 0 0 1-14.512-2.269c-4.857-4.857-4.857-12.761 0-17.619zM4.578 4.578c-6.104 6.105-6.104 16.003 0 22.107 4.929 4.929 12.328 5.876 18.209 2.846L32 32l-2.468-9.213c3.029-5.881 2.081-13.28-2.847-18.209-6.104-6.104-16.002-6.104-22.107 0z"/>
</svg>
