<svg xmlns="http://www.w3.org/2000/svg" width="118" height="32" viewBox="0 0 118 32">
    <g fill="#271D45" fill-rule="nonzero">
        <path d="M0 .238C0 .08.078 0 .235 0h3.46c.156 0 .234.08.234.238v7.657C5.325 6.794 6.953 6.243 8.81 6.243c2.539 0 4.705.916 6.5 2.747C17.102 10.82 18 13.03 18 15.622c0 2.59-.897 4.8-2.69 6.632C13.514 24.084 11.348 25 8.81 25c-2.02 0-3.755-.642-5.21-1.925-.525.995-1.338 1.492-2.44 1.492H.235c-.157 0-.235-.08-.235-.238V.24zm5.088 11.586c-1.026 1.049-1.54 2.314-1.54 3.798 0 1.483.514 2.75 1.54 3.797 1.028 1.048 2.268 1.572 3.722 1.572 1.454 0 2.694-.524 3.72-1.572 1.028-1.048 1.541-2.314 1.541-3.797 0-1.484-.513-2.75-1.54-3.798-1.027-1.048-2.267-1.571-3.721-1.571-1.454 0-2.694.523-3.722 1.571zM35.218 8.766c2.093 2.08 3.004 4.647 2.736 7.7a8.818 8.818 0 0 1-2.04 4.901c-1.982 2.347-4.453 3.521-7.414 3.521-1.477 0-5.74 2.112-5.74 2.112s-.17-4.12-.991-4.89c-1.097-1.028-2.058-2.201-2.4-3.661-1.007-4.306.046-7.761 3.163-10.366a8.936 8.936 0 0 1 4.94-2.038c3.072-.266 5.654.64 7.746 2.72zM28.5 10.038c-1.738 0-3.181.705-4.33 2.116a4.907 4.907 0 0 0-1.068 2.561c-.196 1.812.321 3.33 1.55 4.553.468.464.495 3.579.495 3.579s2.503-1.99 3.349-1.996c.968-.007 1.936-.147 2.74-.684 2.022-1.348 2.909-3.166 2.662-5.452a4.86 4.86 0 0 0-1.024-2.505c-1.156-1.449-2.614-2.172-4.374-2.172zM40 2.235c0-.157.083-.235.248-.235h.981c.808 0 1.5.273 2.074.82.574.547.862 1.207.862 1.98v2.095h4.588c.165 0 .247.078.247.236V9.46c0 .384-.143.713-.432.986-.287.273-.632.41-1.036.41h-3.367v7.88c0 .767.202 1.334.605 1.7.434.402 1.099.603 1.99.603.79 0 1.405-.16 1.845-.48a.243.243 0 0 1 .258-.027c.09.041.137.111.137.21v3.787c0 .122-.06.197-.184.226A8.39 8.39 0 0 1 46.76 25c-2 0-3.624-.573-4.87-1.719C40.63 22.13 40 20.614 40 18.735v-16.5zM67 24.149c0 1.54-.326 2.958-.978 4.253-.705 1.39-1.688 2.404-2.951 3.043-.865.445-1.733.623-2.605.532-.969-.096-1.713-.524-2.233-1.282l-.623-.92a.229.229 0 0 1-.026-.235.218.218 0 0 1 .182-.145c1.53-.235 2.757-.756 3.687-1.562 1.078-.94 1.618-2.167 1.618-3.684v-.66c-1.396 1.126-3.024 1.69-4.881 1.69-2.539 0-4.705-.937-6.5-2.809-1.793-1.872-2.69-4.132-2.69-6.78 0-2.65.897-4.91 2.69-6.782C53.486 6.936 55.652 6 58.19 6c2.013 0 3.75.657 5.209 1.969.526-1.018 1.339-1.527 2.44-1.527h.926c.157 0 .235.082.235.245v17.462zm-14.07-8.56c0 1.517.512 2.811 1.538 3.883 1.028 1.071 2.268 1.607 3.722 1.607 1.454 0 2.694-.536 3.722-1.607 1.026-1.072 1.539-2.366 1.539-3.883s-.513-2.81-1.54-3.883c-1.027-1.071-2.267-1.607-3.72-1.607-1.455 0-2.695.536-3.723 1.607-1.026 1.072-1.539 2.366-1.539 3.883zM87 24.32c0 .161-.078.242-.235.242h-.925c-1.102 0-1.915-.504-2.44-1.512-1.46 1.3-3.197 1.95-5.21 1.95-2.539 0-4.705-.927-6.5-2.782C69.898 20.363 69 18.124 69 15.5c0-2.624.897-4.863 2.69-6.718C73.486 6.927 75.652 6 78.19 6c2.013 0 3.75.65 5.21 1.95.525-1.008 1.338-1.512 2.44-1.512h.925c.157 0 .235.08.235.242v17.64zM72.929 15.5c0 1.503.513 2.785 1.54 3.847 1.027 1.061 2.267 1.592 3.721 1.592 1.454 0 2.694-.53 3.722-1.592 1.026-1.062 1.539-2.344 1.539-3.847 0-1.503-.513-2.785-1.54-3.847-1.027-1.061-2.267-1.591-3.721-1.591-1.454 0-2.694.53-3.722 1.591-1.026 1.062-1.539 2.344-1.539 3.847zM90 2.235c0-.157.083-.235.248-.235h.981c.808 0 1.5.273 2.074.82.574.547.862 1.207.862 1.98v2.095h4.588c.165 0 .247.078.247.236V9.46c0 .384-.143.713-.432.986-.287.273-.632.41-1.036.41h-3.367v7.88c0 .767.202 1.334.605 1.7.434.402 1.099.603 1.99.603.79 0 1.405-.16 1.845-.48a.243.243 0 0 1 .258-.027c.09.041.137.111.137.21v3.787c0 .122-.06.197-.184.226A8.39 8.39 0 0 1 96.76 25c-2 0-3.624-.573-4.87-1.719C90.63 22.13 90 20.614 90 18.735v-16.5zM116.007 8.782a6.531 6.531 0 0 1 1.458 2.272c.353.9.483 1.763.389 2.585-.125 1.014-.53 1.808-1.22 2.38-.665.554-1.516.832-2.553.832h-9.903c.242.96.71 1.792 1.404 2.496 1.05 1.061 2.316 1.592 3.8 1.592s2.75-.531 3.799-1.592c.087-.096.176-.194.265-.296a.225.225 0 0 1 .176-.08h4.134a.23.23 0 0 1 .204.107.218.218 0 0 1 .017.224 9.29 9.29 0 0 1-1.97 2.916c-1.832 1.855-4.04 2.782-6.625 2.782-2.592 0-4.803-.927-6.635-2.782C100.915 20.363 100 18.124 100 15.5c0-2.624.915-4.863 2.747-6.718C104.579 6.927 106.79 6 109.382 6c2.591 0 4.8.927 6.625 2.782zm-6.625 1.28c-1.484 0-2.75.53-3.8 1.591a5.59 5.59 0 0 0-1.21 1.87h8.835c.324 0 .533-.128.627-.385.147-.393-.07-.888-.653-1.485-1.049-1.061-2.315-1.592-3.8-1.592z"/>
    </g>
</svg>
